<svg width="102" height="103" viewBox="0 0 102 103" fill="none" xmlns="http://www.w3.org/2000/svg">
<path fill-rule="evenodd" clip-rule="evenodd" d="M50.9999 2.67749C36.4137 2.67749 24.5892 14.502 24.5892 29.0882C24.5892 43.6745 36.4137 55.499 50.9999 55.499C65.5861 55.499 77.4106 43.6745 77.4106 29.0882C77.4106 14.502 65.5861 2.67749 50.9999 2.67749ZM50.9998 61.1233C35.304 61.1233 20.7019 65.853 8.55438 73.9656C5.48674 76.0144 3.45755 78.7152 2.57548 81.754C1.6991 84.7732 2.03046 87.8689 3.23228 90.5887C5.62855 96.0122 11.455 99.9909 18.6769 99.9909H83.323C90.5446 99.9909 96.371 96.0122 98.7673 90.5887C99.9694 87.8689 100.3 84.7732 99.4244 81.754C98.5421 78.7152 96.5131 76.0144 93.445 73.9656C81.2976 65.853 66.6955 61.1233 50.9998 61.1233Z" fill="#DCDCDC"/>
</svg>
