<svg width="48" height="55" viewBox="0 0 48 55" fill="none" xmlns="http://www.w3.org/2000/svg">
<path d="M39.0865 23.0678L28.2532 39.3857C25.2281 43.9416 19.2188 45.2744 14.8285 42.3648C10.4383 39.4552 9.33352 33.3988 12.3575 28.8418L23.1919 12.5228L14.5107 6.76318L3.47541 23.3867C1.98523 25.5687 0.943358 28.0249 0.410262 30.6127C-0.122835 33.2005 -0.136535 35.8683 0.369953 38.4615C0.876441 41.0546 1.89302 43.5213 3.36071 45.7185C4.82841 47.9157 6.71797 49.7996 8.91975 51.2608C11.1215 52.722 13.5917 53.7315 16.1868 54.2306C18.7819 54.7298 21.4504 54.7087 24.0373 54.1685C26.6242 53.6283 29.078 52.5798 31.2564 51.0839C33.4347 49.588 35.2942 47.6745 36.7269 45.4543C36.8627 45.2502 36.9896 45.0416 37.1165 44.8342L47.7467 28.8208L39.0865 23.0678Z" fill="black"/>
<path d="M41.1956 16.087C44.1578 13.1254 44.1578 8.32378 41.1956 5.36223C38.2334 2.40068 33.4306 2.40069 30.4684 5.36225C27.5061 8.3238 27.5061 13.1254 30.4684 16.087C33.4306 19.0485 38.2333 19.0485 41.1956 16.087Z" fill="black"/>
<circle cx="44" cy="51" r="3.75" stroke="black" stroke-width="0.5"/>
<path d="M43.1198 52.5996V49.6905H44.1567C44.3821 49.6905 44.5691 49.7293 44.7178 49.807C44.8674 49.8846 44.9791 49.9921 45.053 50.1294C45.1269 50.2658 45.1638 50.4235 45.1638 50.6025C45.1638 50.7805 45.1264 50.9372 45.0516 51.0726C44.9777 51.2071 44.866 51.3117 44.7164 51.3865C44.5677 51.4614 44.3807 51.4988 44.1553 51.4988H43.3698V51.1209H44.1155C44.2576 51.1209 44.3731 51.1006 44.4621 51.0598C44.5521 51.0191 44.6179 50.9599 44.6595 50.8823C44.7012 50.8046 44.722 50.7114 44.722 50.6025C44.722 50.4926 44.7007 50.3974 44.6581 50.3169C44.6165 50.2364 44.5506 50.1749 44.4607 50.1323C44.3717 50.0887 44.2547 50.0669 44.1098 50.0669H43.5587V52.5996H43.1198ZM44.5559 51.2871L45.2746 52.5996H44.7746L44.0701 51.2871H44.5559Z" fill="black"/>
</svg>
