<svg width="246" height="59" viewBox="0 0 246 59" fill="none" xmlns="http://www.w3.org/2000/svg">
<path d="M34.9228 37.0071C34.9228 40.2884 33.5873 43.4353 31.21 45.7555C28.8326 48.0758 25.6083 49.3793 22.2463 49.3793C18.8843 49.3793 15.66 48.0758 13.2827 45.7555C10.9053 43.4353 9.56978 40.2884 9.56978 37.0071V10.8457H0.00186157V37.0071C-0.0362436 39.8818 0.510986 42.7352 1.61178 45.4018C2.71257 48.0685 4.34503 50.4952 6.41439 52.5411C8.48376 54.5871 10.9488 56.2116 13.6666 57.3204C16.3843 58.4291 19.3006 59.0001 22.2463 59.0001C25.1919 59.0001 28.1082 58.4291 30.826 57.3204C33.5437 56.2116 36.0089 54.5871 38.0782 52.5411C40.1476 50.4952 41.78 48.0685 42.8808 45.4018C43.9816 42.7352 44.5288 39.8818 44.4907 37.0071V10.8457H34.921L34.9228 37.0071Z" fill="black"/>
<path d="M70.1856 10.8484H50.0256V59.0001H59.541V20.2351H70.1856C72.4308 20.2351 74.5841 21.1152 76.1717 22.6816C77.7594 24.2481 78.6513 26.3726 78.6513 28.588C78.6513 30.8033 77.7594 32.9279 76.1717 34.4943C74.5841 36.0608 72.4308 36.9408 70.1856 36.9408H65.8814V46.3311H70.1856C72.5623 46.3549 74.9203 45.9136 77.1232 45.0326C79.326 44.1517 81.3299 42.8485 83.0192 41.1987C84.7084 39.5488 86.0494 37.5849 86.9645 35.4204C87.8797 33.256 88.3509 30.9341 88.3509 28.5889C88.3509 26.2437 87.8797 23.9217 86.9645 21.7573C86.0494 19.5929 84.7084 17.629 83.0192 15.9791C81.3299 14.3292 79.326 13.0261 77.1232 12.1451C74.9203 11.2642 72.5623 10.8228 70.1856 10.8466V10.8484Z" fill="black"/>
<path d="M111.217 10.8457H93.884V59.0001H111.217C117.717 58.9914 123.947 56.4515 128.543 51.9371C133.139 47.4228 135.725 41.3026 135.733 34.9183C135.732 21.648 124.735 10.8457 111.217 10.8457ZM111.217 49.6155H103.443V20.2376H111.217C115.184 20.2376 118.987 21.7853 121.792 24.5402C124.597 27.2951 126.172 31.0315 126.172 34.9275C126.172 38.8235 124.597 42.5599 121.792 45.3148C118.987 48.0697 115.184 49.6173 111.217 49.6173V49.6155Z" fill="black"/>
<path d="M165.716 10.8457C152.234 10.8457 141.266 21.647 141.266 34.922C141.266 48.197 152.234 59.0001 165.716 59.0001C179.198 59.0001 190.164 48.1989 190.164 34.922C190.164 21.6451 179.196 10.8457 165.716 10.8457ZM165.716 49.6075C162.767 49.6075 159.884 48.7462 157.432 47.1325C154.979 45.5189 153.068 43.2253 151.939 40.5419C150.811 37.8585 150.515 34.9057 151.091 32.057C151.666 29.2083 153.086 26.5916 155.172 24.5378C157.257 22.484 159.914 21.0853 162.807 20.5187C165.7 19.9521 168.698 20.2429 171.423 21.3544C174.148 22.4659 176.477 24.3482 178.115 26.7632C179.754 29.1782 180.628 32.0175 180.628 34.922C180.624 38.8155 179.052 42.5483 176.256 45.3014C173.46 48.0545 169.67 49.6031 165.716 49.6075Z" fill="black"/>
<path d="M195.697 10.8457V20.238H211.185V59.0001H220.738V20.238H236.225V10.8457H195.697Z" fill="black"/>
<circle cx="242" cy="7" r="3.75" stroke="black" stroke-width="0.5"/>
<path d="M241.12 8.59961V5.69052H242.157C242.382 5.69052 242.569 5.72934 242.718 5.807C242.867 5.88465 242.979 5.99213 243.053 6.12944C243.127 6.2658 243.164 6.42347 243.164 6.60245C243.164 6.78048 243.126 6.9372 243.052 7.07262C242.978 7.20709 242.866 7.31173 242.716 7.38654C242.568 7.46135 242.381 7.49876 242.155 7.49876H241.37V7.12092H242.116C242.258 7.12092 242.373 7.10056 242.462 7.05984C242.552 7.01912 242.618 6.95993 242.66 6.88228C242.701 6.80463 242.722 6.71135 242.722 6.60245C242.722 6.4926 242.701 6.39743 242.658 6.31694C242.616 6.23645 242.551 6.17489 242.461 6.13228C242.372 6.08872 242.255 6.06694 242.11 6.06694H241.559V8.59961H241.12ZM242.556 7.28711L243.275 8.59961H242.775L242.07 7.28711H242.556Z" fill="black"/>
</svg>
