<svg width="201" height="76" viewBox="0 0 201 76" fill="none" xmlns="http://www.w3.org/2000/svg">
<g clip-path="url(#clip0_81_2382)">
<path d="M39.8519 53.1887C39.8519 53.1887 58.6363 38.4944 61.5651 35.5657C69.2909 44.7054 54.4957 64.7523 39.8519 53.1887Z" fill="#809E35"/>
<path d="M52.4758 25.5676L59.7472 32.637L39.8519 48.8967V35.2628L52.4758 25.5676Z" fill="#809E35"/>
<path d="M50.1783 22.9415L39.8519 30.6674V13.5493" fill="#809E35"/>
<path d="M38.3054 6.68207C38.3054 6.68207 16.3839 27.3601 14.4146 29.3295C12.4452 31.2988 3.73468 41.5747 12.9249 53.3403C22.1767 65.1855 34.0945 60.3978 36.8095 57.6829V75.9293L36.8071 75.9592C16.4896 75.2168 0.333313 58.5121 0.333313 38.0124C0.333313 17.0416 17.3339 0.0402832 38.3054 0.0402832C59.277 0.0402832 76.2775 17.0416 76.2775 38.0124C76.2775 58.5153 60.1315 75.2239 39.8077 75.96L39.8014 75.9293V57.6829C42.5163 60.3978 54.4341 65.1855 63.6859 53.3403C72.8762 41.5747 64.1656 31.2988 62.1963 29.3295C60.2269 27.3601 38.3054 6.68207 38.3054 6.68207Z" fill="#809E35"/>
<path d="M36.759 53.1887C36.759 53.1887 17.9745 38.4944 15.0458 35.5657C7.31989 44.7054 22.1152 64.7523 36.759 53.1887Z" fill="#809E35"/>
<path d="M24.135 25.5676L16.8636 32.637L36.759 48.8967V35.2628L24.135 25.5676Z" fill="#809E35"/>
<path d="M26.4326 22.9415L36.759 30.6674V13.5493" fill="#809E35"/>
<path d="M97.6909 39.0079C97.6909 40.2434 96.6897 41.2455 95.4541 41.2455C94.2185 41.2455 93.2165 40.2434 93.2165 39.0079C93.2165 37.7723 94.2185 36.7703 95.4541 36.7703C96.6897 36.7703 97.6909 37.7723 97.6909 39.0079Z" fill="black"/>
<path d="M103.771 39.0079C103.771 40.2434 102.77 41.2455 101.534 41.2455C100.299 41.2455 99.2965 40.2434 99.2965 39.0079C99.2965 37.7723 100.299 36.7703 101.534 36.7703C102.77 36.7703 103.771 37.7723 103.771 39.0079Z" fill="black"/>
<path d="M114.912 73.6008C114.912 74.8364 113.91 75.8384 112.675 75.8384C111.439 75.8384 110.438 74.8364 110.438 73.6008C110.438 72.3653 111.439 71.364 112.675 71.364C113.91 71.364 114.912 72.3653 114.912 73.6008Z" fill="black"/>
<path d="M120.992 73.6008C120.992 74.8364 119.99 75.8384 118.755 75.8384C117.519 75.8384 116.518 74.8364 116.518 73.6008C116.518 72.3653 117.519 71.364 118.755 71.364C119.99 71.364 120.992 72.3653 120.992 73.6008Z" fill="black"/>
<path d="M148.807 39.0079C148.807 40.2434 147.805 41.2455 146.569 41.2455C145.334 41.2455 144.333 40.2434 144.333 39.0079C144.333 37.7723 145.334 36.7703 146.569 36.7703C147.805 36.7703 148.807 37.7723 148.807 39.0079Z" fill="black"/>
<path d="M175.642 39.0079C175.642 40.2434 174.64 41.2455 173.404 41.2455C172.169 41.2455 171.167 40.2434 171.167 39.0079C171.167 37.7723 172.169 36.7703 173.404 36.7703C174.64 36.7703 175.642 37.7723 175.642 39.0079Z" fill="black"/>
<path d="M175.642 6.17632C175.642 7.4111 174.64 8.41313 173.404 8.41313C172.169 8.41313 171.167 7.4111 171.167 6.17632C171.167 4.94075 172.169 3.93872 173.404 3.93872C174.64 3.93872 175.642 4.94075 175.642 6.17632Z" fill="black"/>
<path d="M98.162 27.7954C92.9956 27.7954 88.7926 23.5924 88.7926 18.426C88.7926 13.2597 92.9956 9.05669 98.162 9.05669C103.328 9.05669 107.531 13.2597 107.531 18.426C107.531 23.5924 103.328 27.7954 98.162 27.7954ZM98.162 5.82495C91.2022 5.82495 85.5609 11.4663 85.5609 18.426C85.5609 25.3858 91.2022 31.0271 98.162 31.0271C101.914 31.0271 105.128 29.5848 107.437 26.9811V29.3639C107.437 30.2823 108.181 31.0271 109.1 31.0271C110.018 31.0271 110.763 30.2823 110.763 29.3639V18.426C110.763 11.4663 105.121 5.82495 98.162 5.82495Z" fill="black"/>
<path d="M98.162 65.4624C92.9956 65.4624 88.7926 61.2594 88.7926 56.093C88.7926 50.9267 92.9956 46.7237 98.162 46.7237C103.328 46.7237 107.531 50.9267 107.531 56.093C107.531 61.2594 103.328 65.4624 98.162 65.4624ZM131.171 45.0439C131.171 44.0971 130.213 44.3646 129.457 44.8932C128.681 45.4352 127.742 46.1351 127.742 47.0819V56.093C127.742 61.2594 123.737 65.2651 118.571 65.2651H106.801C109.321 62.9613 110.763 59.7753 110.763 56.093C110.763 49.1341 105.121 43.4919 98.162 43.4919C91.2022 43.4919 85.5609 49.1341 85.5609 56.093C85.5609 63.0528 91.2022 68.6941 98.162 68.6941H118.571C125.53 68.6941 131.172 63.0528 131.172 56.093" fill="black"/>
<path d="M124.846 27.4523C120.492 27.4523 116.95 23.9113 116.95 19.5576C116.95 15.2039 120.492 11.6629 124.846 11.6629C129.199 11.6629 132.741 15.2039 132.741 19.5576C132.741 23.9113 129.199 27.4523 124.846 27.4523ZM124.846 8.43115C118.7 8.43115 113.719 13.4121 113.719 19.5576C113.719 25.7031 118.7 30.6841 124.846 30.6841C127.961 30.6841 130.721 29.5155 132.741 27.4523V29.7925C132.741 34.1454 129.199 37.4513 124.846 37.4513H116.105C115.159 37.4513 114.391 38.219 114.391 39.1658C114.391 40.1126 115.159 40.8803 116.105 40.8803L120.469 40.8929L124.846 40.9189C130.991 40.9189 135.972 35.9372 135.972 29.7925V19.5576C135.972 13.4121 130.991 8.43115 124.846 8.43115Z" fill="black"/>
<path d="M188.4 27.4523C184.048 27.4523 180.506 23.9113 180.506 19.5576C180.506 15.2039 184.048 11.6629 188.4 11.6629C192.754 11.6629 196.295 15.2039 196.295 19.5576C196.295 23.9113 192.754 27.4523 188.4 27.4523ZM188.4 8.43115C182.256 8.43115 177.274 13.4121 177.274 19.5576C177.274 25.7031 182.256 30.6841 188.4 30.6841C191.514 30.6841 194.181 29.514 196.201 27.4523V29.3641C196.201 30.2825 196.946 31.0273 197.864 31.0273C198.783 31.0273 199.527 30.2825 199.527 29.3641V19.5576C199.527 13.4121 194.546 8.43115 188.4 8.43115Z" fill="black"/>
<path d="M175.02 11.5132C175.02 10.8813 174.252 10.3684 173.305 10.3684C172.358 10.3684 171.591 10.8813 171.591 11.5132V29.5395C171.591 30.1723 172.358 30.6851 173.305 30.6851C174.252 30.6851 175.02 30.1723 175.02 29.5395" fill="black"/>
<path d="M200.335 45.851C200.335 45.0786 199.567 44.4529 198.62 44.4529C197.674 44.4529 196.906 45.0786 196.906 45.851V67.8577C196.906 68.6294 197.674 69.2558 198.62 69.2558C199.567 69.2558 200.335 68.6294 200.335 67.8577" fill="black"/>
<path d="M153.624 10.4692V1.98427C153.624 1.03747 152.856 0.269775 151.909 0.269775C150.962 0.269775 150.195 1.03747 150.195 1.98427V28.9704C150.195 29.9164 150.962 30.6849 151.909 30.6849C152.856 30.6849 153.624 29.9164 153.624 28.9704V16.7811C153.624 14.0133 156.04 11.8073 159.225 11.8073C162.409 11.8073 164.802 14.0599 164.802 16.8277V29.5392C164.802 30.172 165.57 30.6849 166.517 30.6849C167.464 30.6849 168.231 30.172 168.231 29.5392V16.8277C168.231 12.2704 164.199 8.57556 159.225 8.57556C157.04 8.57556 155.183 9.28408 153.624 10.4692Z" fill="black"/>
<path d="M147.555 8.84224H142.914V1.98427C142.914 1.03747 142.147 0.269775 141.199 0.269775C140.253 0.269775 139.486 1.03747 139.486 1.98427V28.9696C139.486 29.9164 140.253 30.6841 141.199 30.6841C142.147 30.6841 142.914 29.9164 142.914 28.9696V11.8941H146.029C146.872 11.8941 147.122 11.0909 147.555 10.3682C147.929 9.74249 148.397 8.84224 147.555 8.84224Z" fill="black"/>
<path d="M185.229 56.8543C183.681 56.8543 183.557 55.8886 183.546 55.6993C183.249 50.8958 179.247 47.0787 174.371 47.0787C169.303 47.0787 165.179 51.2028 165.179 56.2705C165.179 60.7678 168.201 64.4769 172.474 65.2659H189.455C191.332 65.2659 191.676 66.0328 191.676 66.9803C191.676 67.9264 191.5 68.6941 189.623 68.6941H134.145C132.267 68.6941 131.99 67.9264 131.99 66.9803C131.99 66.0328 132.399 65.2659 134.277 65.2659H148.651C152.519 64.181 155.873 60.4806 155.873 56.2705C155.873 51.2028 151.75 47.0787 146.681 47.0787C145.242 47.0787 143.844 48.2606 143.484 46.4656C143.223 44.3661 145.069 43.8469 146.681 43.8469C153.543 43.8469 159.105 49.4094 159.105 56.2705C159.105 59.8857 157.715 62.9951 155.251 65.2659H165.802C163.359 62.9967 161.948 59.8675 161.948 56.2705C161.948 49.4094 167.51 43.8469 174.371 43.8469C181.046 43.8469 186.492 49.1111 186.783 55.7142C186.791 55.8989 186.778 56.8543 185.229 56.8543Z" fill="black"/>
<path d="M199.729 41.6592H197.512C197.177 41.6592 196.906 41.3878 196.906 41.0533V39.2662C196.906 37.9872 197.947 36.9465 199.226 36.9465H199.729C200.063 36.9465 200.335 37.2179 200.335 37.5525C200.335 37.887 200.063 38.1584 199.729 38.1584H199.226C198.615 38.1584 198.118 38.6555 198.118 39.2662V40.4473H199.729C200.063 40.4473 200.335 40.7187 200.335 41.0533C200.335 41.3878 200.063 41.6592 199.729 41.6592Z" fill="black"/>
</g>
<defs>
<clipPath id="clip0_81_2382">
<rect width="200" height="75.9195" fill="white" transform="translate(0.333313 0.0402832)"/>
</clipPath>
</defs>
</svg>
