<svg width="201" height="116" viewBox="0 0 201 116" fill="none" xmlns="http://www.w3.org/2000/svg">
<g clip-path="url(#clip0_81_2340)">
<path d="M56.3069 22.8434L52.9073 25.9428V25.6514L56.3069 22.4019L55.5652 17.5278L53.5343 16.9362L53.8256 16.6448L55.5917 17.0863L55.3003 15.1613L55.5917 14.7198L56.0332 17.2364L59.5652 18.2695L56.6071 13.6867L62.5144 16.3357L60.5894 13.6867H61.1811L62.6557 15.903L63.989 14.7198L64.2804 15.0112L62.6557 16.3445L64.2804 19.3026L62.5144 16.6536L60.5983 18.2607L64.4394 19.4439L64.5894 19.7353L68.872 21.0686L69.1634 21.6602L67.8301 24.3092L70.3378 28.4505L70.4879 29.3335L67.8389 25.051L65.8963 30.8258L70.0376 32.3004L69.1546 37.3247L65.6226 30.8258L64.1303 35.3997L63.6888 35.1083L65.0221 30.6933L57.7815 28.7684L58.223 31.5763L57.7815 31.2849L57.34 28.477L53.1987 26.5521L53.0486 26.2607L57.1899 28.0267L56.3069 22.8434ZM57.34 31.5587L60.1479 33.9251L69.4548 38.3401L70.7881 30.2165L70.0464 21.7927L67.2385 16.1768L62.9559 13.2187L56.1568 13.0686L52.7572 17.0598L51.2826 21.7927L53.2076 27.8501L57.3488 31.541L57.34 31.5587Z" fill="#0C1B54"/>
<path d="M26.4526 52.6977H26.3025L26.1523 49.8898L21.2782 50.3313L22.1612 52.0973L21.7197 51.9472L20.978 50.4726L18.329 50.6227L18.0376 50.3313L20.8455 50.1812L18.9206 47.6734L17.8875 50.0487L17.5961 49.8986L18.7793 47.5322L17.0133 45.1657L15.8301 45.3158V45.0244L16.7131 44.8743L16.1215 43.9913L16.2716 43.5498L17.1546 44.7331L19.3709 44.2916L16.563 42.8169L20.5541 42.6668L19.2208 41.7838H19.3709L20.7042 42.5256L20.9956 41.4924H21.287L20.9956 42.5256L22.9206 43.8589L25.4283 43.4174L25.7197 43.7088L25.8698 45.775L28.0861 47.1083L28.5276 47.6999L26.1612 46.3401L26.3113 49.7397L28.9603 49.5896L29.1104 52.1061L26.3025 50.0487L26.4526 52.6977ZM26.6027 43.8677L23.5122 41.3158L20.2627 40.8743L16.2716 42.6403L15.3885 45.4483L15.8301 48.5476L18.638 51.3556L24.2539 52.9803H30.5762L29.1016 47.8059L26.6027 43.8677ZM32.6601 35.1525V34.8611L33.9934 36.0443L33.2517 32.5123L35.9007 34.4372L35.7506 31.7882L34.1259 31.1966L34.4173 31.0465L35.8919 31.6381L36.042 30.3048L36.3334 30.1547L36.1833 31.7794L39.4327 32.9626L42.2407 31.0377L42.5321 31.3291L39.7241 33.0951L43.5652 34.7198L42.8234 31.4703L44.0067 31.9118L46.3731 36.0531L44.1568 35.1701L44.5983 40.786L46.5232 36.5035L46.6733 36.7948L46.2318 38.4196L47.8566 40.786L44.6071 41.2275L48.5983 44.9185L44.6071 44.6271L44.0155 41.2275L39.8742 41.8191L41.9404 44.1856L41.3488 44.0355L39.2826 41.8191L36.6336 42.1105L36.4835 41.9604L36.3334 38.8611L34.1082 36.7331L32.7749 37.6161V37.3247L33.9581 36.4417L32.6601 35.1525ZM37.2429 43.0995L42.5409 44.8655L49.1899 45.307L48.3069 40.5741L47.4239 37.6161L44.0243 31.5587L39.883 29.1922L36.042 29.3423L32.9426 31.4086L31.7594 36.4328L33.3841 40.1238L37.2429 43.0995ZM56.0067 17.4924L56.5983 21.775L59.5563 18.5255L56.0067 17.4924ZM67.3886 24.5564L64.872 20.0266L60.1391 18.6933L65.1634 30.2165L67.3886 24.5564Z" fill="#0C1B54"/>
<path d="M22.0199 48.7064L26.0111 46.1987L20.2451 44.5739L22.0199 48.7064ZM135.512 24.9183L132.863 29.2009L133.013 28.3179L135.521 24.1766L134.046 21.6689L134.338 21.0773L138.62 19.7439L140.545 16.3444L138.921 15.011L139.185 14.7285L140.519 15.9117L141.993 13.6954H142.585L140.951 16.1943L146.859 13.5453L143.901 18.128L147.433 17.0949L147.874 14.5872L148.166 15.0287L147.874 16.9536L149.64 16.5121L149.932 16.8035L147.865 17.3951L147.124 22.2693L150.523 25.5188V25.8101L147.185 22.6755L146.302 27.8499L150.444 26.0839L150.294 26.3753L146.011 28.4415L145.72 31.2494L145.278 31.5408L145.72 28.7329L138.479 30.6578L139.812 35.0729L139.371 35.3642L137.896 30.7815L134.205 37.2804L133.322 32.106L137.464 30.6314L135.512 24.9183ZM143.194 34.0839L146.002 31.7174L150.135 27.9735L152.06 21.9161L150.876 17.0419L147.344 13.0508L140.545 13.2009L136.263 16.1589L133.437 21.7925L132.554 30.3664L133.887 38.4901L143.194 34.0839ZM21.1369 50.181L26.0111 49.7395L19.6535 48.4062L21.1369 50.181ZM17.3312 45.0066L18.8058 47.2229L19.8389 44.5739L17.3312 45.0066ZM20.8632 42.7903L20.2716 44.415L22.638 43.9735L20.8632 42.7903ZM25.5961 43.8234L23.3797 44.1148L25.7197 45.6336L25.5961 43.8234ZM36.3863 38.5254L36.2362 35.4261L34.4702 36.6093C34.1789 36.6093 36.3952 38.5342 36.3952 38.5342L36.3863 38.5254ZM39.1943 33.2274L36.2362 32.0441L36.3863 35.0022L39.1943 33.2274ZM36.6866 38.8433L39.6446 41.6512L44.2274 41.0596L36.5453 35.2936L36.6866 38.8433Z" fill="#0C1B54"/>
<path d="M187.23 42.7905L183.239 41.0245L179.989 41.6161L177.773 43.3821L180.139 43.8236L182.064 42.4903L181.623 41.4571H181.914L182.356 42.4903L183.689 41.7485L183.98 41.8986L182.647 42.7816L186.638 42.9318L183.83 44.4064L186.046 44.8479L186.788 43.6646L186.938 44.1061L186.347 44.9892L187.23 45.1393L187.38 45.4307L186.197 45.2806L184.431 47.647L185.614 50.0134L185.322 50.1636L184.289 47.7971L182.364 50.1636L185.172 50.3137L184.881 50.6051L182.232 50.4549L181.49 51.9296L181.049 52.0797L182.082 50.4549L177.155 50.0488L177.005 52.6978H176.713L176.863 50.0488L174.055 52.115L174.205 49.5984L176.854 49.7485L177.005 46.349L174.638 47.6823V47.5322L174.347 48.1238L172.74 53.1393H179.238L184.854 51.5145L187.662 48.7066L188.104 45.6073L187.23 42.7905ZM158.859 44.5565L154.868 44.8479L158.859 41.1569L155.609 40.7154L157.234 38.349L156.793 36.7243L156.943 36.4329L158.868 40.7154L159.309 35.0995L157.093 35.9825L159.459 31.8413L160.642 31.3998L159.759 34.7993L163.601 33.1746L160.793 31.4086L161.084 31.1172L163.892 33.0421L167.291 31.7088L167.141 30.0841L167.433 30.2342L167.583 31.5675L169.057 30.9759L169.349 31.126L167.724 31.7176L167.574 34.3666L170.223 32.4417L169.481 35.9737L170.815 34.7905V35.0819L169.481 36.4152L170.665 37.2982V37.5896L169.331 36.7066L167.115 38.7728L166.965 41.8722L166.673 42.1636L164.024 41.8722L161.808 44.0885L161.216 44.2386L163.283 41.8722L159.141 41.2806L158.859 44.5565ZM165.923 43.0819L169.764 40.1238L171.389 36.4329L170.205 31.4086L166.956 29.4836L163.115 29.3335L158.974 31.7L155.574 37.7574L154.691 40.7154L153.949 45.2982L160.598 44.8567L165.896 43.0907L165.923 43.0819ZM140.801 16.5918L138.876 19.3998L142.718 18.2607L140.801 16.5918ZM147.3 17.4748L143.768 18.5079L146.726 21.7574L147.3 17.4748ZM143.159 18.658L138.461 20.0267L135.945 24.6095L138.161 30.2254L143.159 18.658Z" fill="#0C1B54"/>
<path d="M183.68 48.406L177.322 49.7393L182.197 50.1808L183.68 48.406ZM32.8102 66.1367C32.8102 66.1367 71.3798 58.7459 102.709 58.7459C134.779 58.7459 172.607 66.1367 172.607 66.1367L102.85 49.8806L32.8102 66.1367ZM186.046 45.0065L183.539 44.565L184.572 47.214L186.046 45.0065ZM183.088 44.565L177.322 46.1897L181.314 48.8387L183.088 44.565ZM177.79 43.8232L177.64 45.5892L180.007 44.1146L177.79 43.8232ZM87.4857 25.3243C89.9492 27.1616 92.7661 28.4694 95.7595 29.1654C97.1105 29.5553 98.4984 29.8039 99.9007 29.9071C101.124 30.0774 102.357 30.1747 103.592 30.1985C104.879 30.2542 106.168 30.1564 107.433 29.9071C110.391 29.3155 113.34 28.5738 116.263 27.8409C117.146 24.7416 117.887 21.7835 118.77 19.0109C118.179 19.6025 117.887 20.4855 117.146 20.9358C115.709 23.26 113.667 25.1495 111.238 26.4016C108.819 27.4914 106.209 28.0916 103.556 28.1676C102.518 28.1435 101.482 28.0462 100.457 27.8762C98.755 27.6591 97.135 27.0171 95.7462 26.0095C94.3574 25.0018 93.2445 23.6609 92.51 22.1102C91.7986 20.6623 91.3019 19.1185 91.0354 17.5274C90.6942 16.125 90.6431 14.6677 90.8853 13.2449C91.1728 11.3696 91.8269 9.56933 92.8102 7.94686C93.9236 5.76327 95.8134 4.07503 98.1082 3.21395C101.143 2.10957 104.441 1.95557 107.565 2.77245C109.232 3.1687 110.828 3.81789 112.298 4.69742C114.224 5.88328 115.845 7.5043 117.031 9.43029C117.472 10.172 117.914 11.055 118.506 12.0793V11.4877L116.289 3.54066C116.139 3.39055 115.998 3.09916 115.698 3.09916C113.631 2.50755 111.706 1.91594 109.64 1.47444C107.856 1.00083 106.02 0.75167 104.174 0.732718C102.942 0.709116 101.71 0.759254 100.483 0.88284L97.3842 1.32434C94.3511 1.87233 91.4447 2.97382 88.8102 4.57378C86.8563 5.73726 85.2684 7.4261 84.2275 9.44794C82.8817 12.1427 82.4657 15.2072 83.0442 18.1632C83.5932 21.0307 85.1615 23.6026 87.4592 25.4038L87.4857 25.3243ZM182.506 42.9049L180.74 43.938L183.106 44.3795L182.506 42.9049ZM174.974 47.0462L174.682 47.4877L175.124 47.0462H174.974ZM166.7 38.7725L166.85 35.2405L159.168 41.0065L163.751 41.5981L166.7 38.7725ZM166.991 38.4811C166.991 38.4811 169.208 36.7151 168.916 36.5561L167.15 35.3729L166.991 38.4811ZM167.141 31.9822L164.183 33.1654L166.991 34.9314L167.141 31.9822ZM177.631 43.3641L177.34 43.6555V43.8674L177.782 43.4259L177.631 43.3641ZM177.34 43.8056L176.899 44.097L175.133 47.055L177.199 45.7217L177.34 43.8056Z" fill="#0C1B54"/>
<path d="M115.185 112.344C115.185 113.784 116.625 114.208 117.905 114.208C119.185 114.208 120.201 113.695 120.201 112.768C120.201 112 119.609 111.753 118.585 111.497L116.722 111.161C115.706 110.993 114.179 110.649 114.179 108.954C114.179 107.258 115.45 106.411 117.578 106.411C119.274 106.411 121.057 107.002 121.11 109.06H119.839C119.751 108.468 119.327 107.444 117.296 107.444C116.36 107.444 115.256 107.868 115.256 108.804C115.256 109.316 115.592 109.74 116.616 109.996L118.735 110.331C119.327 110.42 121.278 110.755 121.278 112.45C121.278 114.57 119.415 115.17 117.631 115.17C115.848 115.17 113.729 114.578 113.729 112.203H115.088V112.371L115.185 112.344ZM109.004 106.826H110.276V115.232H109.004V106.826ZM97.4636 115.232H98.7351V111.7H101.958C102.974 111.7 103.574 112.124 103.653 113.74C103.664 114.282 103.72 114.823 103.821 115.355H105.181C104.846 115.02 104.846 114.587 104.757 113.06C104.799 112.66 104.693 112.26 104.458 111.934C104.224 111.608 103.878 111.38 103.486 111.294C103.931 111.157 104.316 110.872 104.577 110.487C104.839 110.102 104.962 109.639 104.925 109.174C104.94 108.873 104.89 108.572 104.779 108.291C104.668 108.01 104.498 107.757 104.28 107.548C104.062 107.338 103.802 107.178 103.518 107.078C103.233 106.978 102.93 106.94 102.629 106.967H97.3312C97.4195 106.879 97.4195 115.285 97.4195 115.285L97.4636 115.232ZM98.7351 110.481V107.832H102.267C103.283 107.832 103.706 108.344 103.706 109.192C103.706 109.784 103.371 110.552 102.091 110.552H98.6115L98.7351 110.481ZM93.2164 115.232H94.5762L90.7528 106.826H89.2958L85.4725 115.232H86.8323L87.8477 112.768H91.9184L93.2164 115.232ZM91.6005 111.7H88.3775L89.9934 108.053L91.6005 111.7ZM77.2517 115.232H78.5232V111.859H81.6667C82.0282 111.903 82.3951 111.865 82.7401 111.748C83.0852 111.632 83.3997 111.439 83.6606 111.185C83.9215 110.931 84.1221 110.622 84.2477 110.28C84.3733 109.938 84.4207 109.572 84.3864 109.21C84.3864 107.594 83.4504 106.746 81.5872 106.746H77.1722V115.152H77.2605L77.2517 115.232ZM78.5232 110.729V107.929H81.7462C81.9344 107.904 82.1259 107.921 82.3067 107.979C82.4875 108.037 82.6531 108.135 82.7911 108.265C82.9292 108.395 83.0362 108.555 83.1045 108.732C83.1727 108.91 83.2004 109.1 83.1855 109.289C83.1855 110.172 82.7616 110.729 81.4901 110.729H78.5232ZM175.468 81.0155H199.071L200.342 88.574C200.342 88.574 197.879 82.393 195.503 81.9515H189.817V98.084C189.839 98.4444 189.935 98.7965 190.099 99.1185C190.263 99.4405 190.49 99.7256 190.768 99.9563C191.046 100.187 191.368 100.358 191.715 100.46C192.062 100.562 192.425 100.592 192.784 100.548H181.746C181.746 100.548 184.713 99.7793 184.713 98.34V82.0398H179.283C179.283 82.0398 176.483 82.0398 174.355 88.574L175.468 81.0155ZM170.038 81.0155L171.653 87.4703C171.653 87.4703 169.446 82.2959 165.375 82.0398H158.612V89.9868H163.91C164.831 89.8571 165.669 89.3816 166.253 88.6567C166.837 87.9319 167.123 87.0121 167.053 86.0839V94.7462C167.053 94.7462 166.17 90.9228 163.91 90.9228H158.612V99.585H165.914C165.914 99.585 171.768 99.4967 172.978 94.287L171.618 100.468H150.426C150.426 100.468 153.393 99.8764 153.393 98.1723V83.4791C153.393 83.4791 152.969 80.936 150.673 80.936H170.099L170.038 81.0155ZM115.291 81.0155H123.097L131.503 95.0199L139.989 81.0155H147.132C147.132 81.0155 144.413 81.5276 144.413 83.3113V98.084C144.413 98.084 144.413 100.548 147.38 100.548H136.669C136.669 100.548 139.318 100.035 139.318 98.084V84.4151L129.305 101.139L119.539 84.4151V97.9956C119.586 98.678 119.896 99.3154 120.403 99.7746C120.91 100.234 121.575 100.479 122.258 100.459H115.124C115.124 100.459 118.267 100.124 118.267 97.9956V83.223C118.179 83.223 118.179 81.5277 115.3 81.0155M97.4725 81.0155H86.7528C86.7528 81.0155 89.5519 81.9515 89.5519 83.5586V93.5806C89.5519 93.5806 89.4636 101.139 100.422 101.139C111.38 101.139 110.868 94.4372 110.868 94.4372V83.6027C110.931 82.8748 111.277 82.2007 111.832 81.7251C112.386 81.2496 113.105 81.0107 113.834 81.0597H106.77C106.77 81.0597 109.57 81.2274 109.737 83.5232V94.4725C109.737 94.4725 109.826 99.903 102.099 99.903C94.3731 99.903 94.7175 94.552 94.7175 94.552V83.6027C94.6292 83.6027 94.6292 81.0597 97.4371 81.0597M66.9735 93.3157H76.2274L71.5563 83.9736L66.9735 93.3157ZM59.2473 100.38C60.1292 100.166 60.9593 99.7773 61.6888 99.2375C62.4182 98.6976 63.0322 98.0172 63.4945 97.2363C64.8543 94.6932 71.7329 81.0244 71.7329 81.0244H75.8036L84.4658 97.8014C84.4658 97.8014 86.2318 100.45 88.2892 100.45H75.6093C75.6093 100.45 79.1413 99.2584 78.5762 97.8014C78.0111 96.3445 76.9603 94.3224 76.9603 94.3224H66.7175L64.9515 97.5453C64.9515 97.5453 63.7594 100.512 68.351 100.512H59.4151V100.38H59.2473ZM29.1104 81.0244H39.8036C39.8036 81.0244 37.0045 81.616 37.0045 83.3201V89.8544H50.2495V83.6734C50.2495 83.6734 49.914 80.9537 47.5299 80.9537H58.0552C58.0552 80.9537 55.3356 81.9692 55.3356 83.6734V98.084C55.4374 98.7296 55.7683 99.3169 56.2677 99.7385C56.7671 100.16 57.4017 100.388 58.0552 100.38H47.5299C47.5299 100.38 50.2495 99.6115 50.2495 98.1723V90.7904H36.925V98.0928C36.9385 98.4342 37.0199 98.7696 37.1646 99.0791C37.3093 99.3887 37.5142 99.6663 37.7675 99.8957C38.0207 100.125 38.3172 100.302 38.6395 100.415C38.9618 100.529 39.3035 100.577 39.6446 100.556H29.1104C29.1104 100.556 31.8301 100.221 31.8301 98.3489V83.6027C31.8025 82.9063 31.5015 82.2488 30.9924 81.7728C30.4833 81.2968 29.8071 81.0405 29.1104 81.0597M24.7837 81.0597L25.7197 89.3775C25.7197 89.3775 23.1766 81.5718 14.7705 81.5718C6.36428 81.5718 5.94044 90.2341 5.94044 90.914C5.94044 91.5939 6.36428 100 14.8499 100C17.2399 100.02 19.5802 99.3177 21.564 97.9847C23.5478 96.6517 25.0825 94.7503 25.9669 92.5299L24.6071 101.272C24.6071 101.272 24.4393 99.1524 22.9912 99.5056C20.2996 100.372 17.4996 100.857 14.6733 100.945C10.8499 100.945 0.324532 99.5056 0.324532 90.8433C0.324532 82.1811 10.7705 80.5122 14.6822 80.5122C17.3426 80.5882 19.9754 81.0736 22.4879 81.9515C22.6952 82.0706 22.9269 82.1409 23.1654 82.1569C23.404 82.173 23.643 82.1345 23.8644 82.0442C24.0858 81.9539 24.2836 81.8144 24.4429 81.6361C24.6022 81.4579 24.7188 81.2456 24.7837 81.0155" fill="#0C1B54"/>
</g>
<defs>
<clipPath id="clip0_81_2340">
<rect width="200" height="114.64" fill="white" transform="translate(0.333374 0.679932)"/>
</clipPath>
</defs>
</svg>
