<svg width="200" height="32" viewBox="0 0 200 32" fill="none" xmlns="http://www.w3.org/2000/svg">
<path d="M200 25.4688H193.688V31.7811H200V25.4688Z" fill="#1C1C1C"/>
<path d="M0 0.204346V6.5167V12.8365V19.1488V25.4686L6.31235 31.781H12.6321H18.9445H25.2643H31.5766V25.4686H25.2643H18.9445H12.6321H6.31235L31.5766 12.8365V6.5167L6.31235 19.1488V12.8365V6.5167H12.6321H18.9445H25.2643H31.5766V0.204346H0Z" fill="#1C1C1C"/>
<path d="M143.159 0.204346H117.895V6.5167H141.223C141.223 6.5167 143.159 6.61313 143.159 8.61587V31.781H149.471V6.5167L143.159 0.204346Z" fill="#1C1C1C"/>
<path d="M117.902 25.4687V31.781H124.215V25.4687V12.8365L117.902 6.52417V12.8365V25.4687Z" fill="#1C1C1C"/>
<path d="M113.904 0.204346H106.279L82.1051 25.2461V0.204346H75.7927V31.781H82.1051H83.418L113.904 0.204346Z" fill="#1C1C1C"/>
<path d="M63.1606 0.204346H37.8964V6.5167H61.054C61.054 6.5167 61.0763 6.5167 61.0911 6.5167C62.2334 6.5167 63.1606 7.4439 63.1606 8.5862V31.781H69.473V6.5167L63.1606 0.204346Z" fill="#1C1C1C"/>
<path d="M37.8964 25.4687V31.781H44.2087V25.4687V12.8365L37.8964 6.52417V12.8365V25.4687Z" fill="#1C1C1C"/>
<path d="M162.111 12.8364L155.799 19.1562V25.476L162.111 31.7957H187.375V25.476H164.047C164.047 25.476 162.111 25.3795 162.111 23.3768V12.8438V12.8364Z" fill="#1C1C1C"/>
<path d="M174.743 12.8365H181.056H187.375V6.52412H181.056H174.743H168.423H162.111V0.204346H155.791V6.52412V12.8365H162.111H168.423H174.743Z" fill="#1C1C1C"/>
</svg>
