<svg width="201" height="42" viewBox="0 0 201 42" fill="none" xmlns="http://www.w3.org/2000/svg">
<g clip-path="url(#clip0_60_70)">
<path d="M100.496 38.1645C100.329 38.1674 100.166 38.1175 100.029 38.0221C90.8379 32.5326 81.4488 24.061 79.5346 14.1973C78.8781 10.4717 80.286 9.77561 82.6195 8.93715C86.8197 7.40262 96.4856 4.42847 100.496 4.42847C104.506 4.42847 114.172 7.40262 118.372 8.93715C120.745 9.77561 122.106 10.4717 121.457 14.1973C119.543 24.061 110.162 32.5247 100.963 38.0221C100.826 38.1175 100.663 38.1674 100.496 38.1645Z" fill="white"/>
<path d="M100.496 41.0991C100.691 41.0911 100.882 41.0426 101.057 40.9568C112.353 35.3249 117.629 30.1597 124.257 19.4575C126.733 15.3601 128.133 13.2719 134.153 12.386C143.581 11.0334 186.153 8.05927 194.553 6.8965C198.144 6.38236 199.125 5.82864 200.81 4.05681C201.087 3.77996 201.087 3.54266 200.573 3.59012C199.497 3.68504 157.02 5.49642 131.535 6.42979C125.278 6.7541 123.411 6.61966 118.182 4.89528C110.431 2.5223 103.43 0.892822 100.488 0.892822C97.5454 0.892822 90.5451 2.5223 82.7933 4.89528C77.5648 6.61966 75.6744 6.7541 69.4413 6.42979C43.9554 5.49642 1.47894 3.68504 0.403185 3.59012C-0.110963 3.54266 -0.110953 3.77996 0.165896 4.05681C1.85072 5.82864 2.82364 6.38236 6.42268 6.8965C14.8231 8.05927 57.3944 11.0334 66.8231 12.386C72.8426 13.2719 74.2427 15.368 76.7185 19.4575C83.347 30.1597 88.5834 35.3249 99.9184 40.9568C100.094 41.0424 100.285 41.0909 100.48 41.0991M86.8511 36.3532C87.3653 36.4481 87.3653 36.2108 87.0884 35.9814C80.4599 30.7213 78.2214 26.8612 73.1353 18.9513C71.5928 16.5308 69.7261 15.4155 65.6208 14.9014C63.3823 14.6245 15.3451 10.1554 5.91643 9.31695C5.40228 9.26949 5.40229 9.45933 5.67914 9.73618C7.2707 11.3254 8.9701 12.8028 10.7652 14.1578C15.7169 17.923 19.4029 18.8563 25.4224 19.0857C30.5085 19.2756 61.5551 20.7626 65.1937 21.0395C67.8119 21.2293 68.6029 21.6407 69.2989 22.4791C69.6233 22.8509 69.6707 23.1752 69.204 23.1752C66.1191 23.1752 47.0561 22.9853 31.2995 22.6136C31.1571 22.6136 31.1097 22.7085 31.252 22.7559C42.5 26.4736 51.5095 28.8071 60.6613 28.7596C65.2807 28.7122 69.8526 28.6647 71.6798 28.6647C73.6415 28.6647 74.4325 28.8466 75.184 29.78C75.4608 30.1518 75.4213 30.3811 74.7647 30.4286C72.0121 30.658 68.0887 30.9428 63.4693 31.2196C63.0501 31.2671 63.0501 31.362 63.4218 31.449C73.9263 33.9644 79.4791 35.1271 86.8511 36.3374M100.496 38.1725C100.329 38.1754 100.166 38.1256 100.029 38.0301C90.8299 32.5406 81.4486 24.069 79.5344 14.2053C78.8779 10.4876 80.2859 9.78364 82.6193 8.94518C86.8195 7.41065 96.4855 4.42858 100.496 4.42858C104.506 4.42858 114.172 7.41065 118.372 8.94518C120.745 9.78364 122.106 10.4797 121.449 14.2053C119.535 24.069 110.154 32.5327 100.955 38.0301C100.818 38.1256 100.655 38.1754 100.488 38.1725M114.117 36.3611C121.489 35.1509 127.05 33.9881 137.546 31.4727C137.918 31.3778 137.918 31.2829 137.499 31.2434C132.879 30.9665 128.956 30.6817 126.203 30.4524C125.547 30.4049 125.499 30.1755 125.784 29.8037C126.527 28.8704 127.326 28.6884 129.288 28.6884C131.107 28.6884 135.679 28.7359 140.307 28.7834C149.458 28.8308 158.5 26.5053 169.716 22.7797C169.858 22.7322 169.811 22.6373 169.668 22.6373C153.936 23.0091 134.865 23.1989 131.764 23.1989C131.297 23.1989 131.345 22.8746 131.669 22.5029C132.365 21.6644 133.164 21.2452 135.774 21.0632C139.413 20.7864 170.459 19.2993 175.546 19.1095C181.565 18.8801 185.251 17.9467 190.203 14.1816C191.998 12.8262 193.697 11.3488 195.289 9.7599C195.566 9.48306 195.566 9.29322 195.051 9.34068C185.623 10.1791 137.586 14.6403 135.347 14.9251C131.242 15.4393 129.375 16.5546 127.833 18.975C122.747 26.885 120.508 30.745 113.872 36.0051C113.595 36.2345 113.595 36.4718 114.109 36.3769" fill="black"/>
<path d="M86.8672 15.7239L87.3813 15.9375C87.4489 15.9559 87.5076 15.998 87.5468 16.0561C87.586 16.1141 87.603 16.1843 87.5949 16.2539V17.4325C87.3327 17.5736 87.0383 17.6445 86.7406 17.6381C86.491 17.6233 86.2469 17.5584 86.0228 17.4474C85.7987 17.3363 85.5992 17.1814 85.4362 16.9918C85.2731 16.8022 85.1498 16.5817 85.0736 16.3436C84.9974 16.1054 84.9698 15.8543 84.9925 15.6053C84.9925 14.3871 85.657 13.4933 86.8039 13.4933C87.3853 13.5023 87.9452 13.715 88.3859 14.0944L88.6232 13.2323C88.0503 12.9639 87.4284 12.8158 86.796 12.7972C86.4063 12.7505 86.0111 12.7896 85.6381 12.9118C85.2651 13.0341 84.9234 13.2365 84.6369 13.5048C84.3505 13.7732 84.1263 14.101 83.98 14.4652C83.8337 14.8294 83.7689 15.2212 83.7902 15.6132C83.7733 15.9842 83.8356 16.3546 83.9728 16.6997C84.1101 17.0448 84.3192 17.3568 84.5863 17.6149C84.8534 17.873 85.1723 18.0714 85.5219 18.1967C85.8715 18.3221 86.2438 18.3717 86.6141 18.3421C87.3216 18.3755 88.0232 18.1994 88.6311 17.8359V15.4629H86.9542L86.8672 15.7239ZM98.5581 16.5149L95.7105 12.9159H94.5873L94.4528 13.2323L94.6901 13.343C94.7588 13.3675 94.8172 13.4143 94.8559 13.476C94.8946 13.5378 94.9115 13.6107 94.9037 13.6831V18.2076H95.7501V14.7747L98.4711 18.2076H99.4045V12.908H98.566L98.5581 16.5149ZM104.53 13.5961L104.348 12.9238H100.575L100.449 13.2402L100.686 13.3509C100.755 13.3787 100.812 13.4292 100.848 13.494C100.884 13.5587 100.896 13.6339 100.884 13.7069V18.2156H104.53V17.5274H102.078V15.803H104.222V15.1465H102.078V13.5645L104.53 13.5961ZM110.067 13.2402L110.304 13.3509C110.375 13.3773 110.433 13.4273 110.471 13.4921C110.508 13.557 110.522 13.6329 110.51 13.7069V18.2156H111.681V12.9159H110.202L110.067 13.2402ZM107.876 15.1306C107.22 14.7905 106.531 14.6007 106.531 13.9995C106.531 13.7069 106.816 13.4617 107.37 13.4617C107.919 13.4876 108.457 13.6248 108.952 13.8651L109.102 13.0741C108.575 12.893 108.022 12.7995 107.465 12.7972C106.096 12.7972 105.384 13.4063 105.384 14.2447C105.384 15.0832 105.93 15.5024 106.745 15.8821C107.56 16.2618 108.058 16.4279 108.058 16.95C108.058 17.3455 107.749 17.5986 107.148 17.5986C106.581 17.5724 106.025 17.4353 105.511 17.1952L105.424 18.1127C106.003 18.2435 106.594 18.315 107.188 18.3263C108.287 18.3263 109.268 17.7963 109.268 16.8313C109.268 15.8663 108.572 15.4945 107.884 15.1306M93.646 13.5961L93.4641 12.9238H89.691L89.5724 13.2402L89.8097 13.3509C89.8783 13.3787 89.9354 13.4292 89.9714 13.494C90.0074 13.5587 90.0201 13.6339 90.0074 13.7069V18.2156H93.6539V17.5274H91.1781V15.803H93.3217V15.1465H91.1781V13.5645L93.646 13.5961ZM115.446 15.1306C114.789 14.7905 114.101 14.6007 114.101 13.9995C114.101 13.7069 114.386 13.4617 114.94 13.4617C115.489 13.4876 116.027 13.6248 116.522 13.8651L116.672 13.0741C116.145 12.8933 115.592 12.7998 115.035 12.7972C113.666 12.7972 112.915 13.4063 112.915 14.2447C112.915 15.0832 113.508 15.5024 114.323 15.8821C115.137 16.2618 115.636 16.4279 115.636 16.95C115.636 17.3455 115.327 17.5986 114.726 17.5986C114.159 17.5724 113.603 17.4353 113.089 17.1952L113.002 18.1127C113.581 18.2436 114.172 18.3151 114.766 18.3263C115.865 18.3263 116.846 17.7963 116.846 16.8313C116.846 15.8663 116.15 15.4945 115.462 15.1306" fill="black"/>
</g>
<defs>
<clipPath id="clip0_60_70">
<rect width="201" height="40.1984" fill="white" transform="translate(0 0.900879)"/>
</clipPath>
</defs>
</svg>
