<svg width="202" height="36" viewBox="0 0 202 36" fill="none" xmlns="http://www.w3.org/2000/svg">
<g clip-path="url(#clip0_60_133)">
<path d="M2.89776 12.3098L0.740723 35.2637H12.4191L13.7326 21.3255H24.6675L23.3511 35.2637H35.0274L38.3455 0.0957031H26.6664L25.518 12.3105H14.9706V12.3098H2.89776Z" fill="#008F78"/>
<path d="M14.7223 10.8445L15.7358 0.0949707H4.05671L3.04184 10.8445H14.7223Z" fill="#F08B00"/>
<path d="M40.8362 8.44265L38.4259 35.2636H48.9376L51.3458 8.44265H40.8362ZM51.6088 6.94167L52.2543 0.0949707H41.7433L41.0977 6.94167H51.6088ZM66.6087 14.4773C67.4606 14.4773 68.2803 14.7221 68.8741 15.2166C69.5211 15.6559 69.938 16.2979 69.9135 17.1393H79.4698C79.8202 10.5864 72.8007 9.05814 66.8521 9.05814C61.3343 9.05814 53.691 10.734 53.0804 17.189C52.6677 21.573 55.6829 23.9364 63.5788 25.2149C68.3873 26.0018 69.2483 26.448 69.1106 27.9238C68.97 29.4031 66.7479 29.8983 65.3679 29.8983C64.0922 29.8983 63.1137 29.6018 62.6262 29.1583C61.8876 28.519 61.5329 27.7776 61.5651 26.8943H51.5311C51.0674 33.4913 57.9505 35.905 64.4279 35.905C71.1179 35.905 78.6242 33.9886 79.29 26.8943C79.6852 22.704 76.7903 20.7848 73.3841 19.7503C69.9806 18.6648 66.0226 18.4703 64.3356 17.7737C63.7725 17.5352 63.1668 17.1897 63.2382 16.4497C63.3941 14.7739 65.1217 14.4773 66.6087 14.4773ZM90.4872 19.5999C91.2272 16.8386 93.1744 15.3131 96.3036 15.3131C99.0153 15.3131 100.746 17.2373 100.52 19.5999H90.4872ZM95.9406 9.05884C87.2334 9.05884 80.8225 15.1166 80.1245 22.555C79.3215 31.0789 85.5024 35.905 94.3089 35.905C100.576 35.905 106.605 33.343 109.25 27.8252H99.4266C98.4607 29.0569 96.5484 29.6465 94.8481 29.6465C91.558 29.6465 89.9486 27.5818 89.957 24.675H110.127C111.069 14.7242 106.875 9.05884 95.9406 9.05884ZM132.569 9.05884C128.377 9.05884 125.436 10.3871 123.23 12.9505H123.125L123.427 9.70092H113.291L110.88 35.2636H121.392L122.665 21.7689C123.048 17.6772 125.515 16.8386 127.32 16.8386C130.398 16.8386 130.574 18.9089 130.3 21.8654L129.033 35.2636H139.545L141.194 17.7304C141.749 11.8656 137.499 9.05884 132.569 9.05884ZM156.952 14.4773C157.798 14.4773 158.627 14.7221 159.218 15.2166C159.865 15.6559 160.284 16.2979 160.255 17.1393H169.814C170.163 10.5864 163.137 9.05814 157.195 9.05814C151.677 9.05814 144.031 10.734 143.423 17.189C143.011 21.573 146.026 23.9364 153.921 25.2149C158.732 26.0018 159.591 26.448 159.452 27.9238C159.312 29.4031 157.09 29.8983 155.71 29.8983C154.435 29.8983 153.456 29.6018 152.964 29.1583C152.231 28.519 151.875 27.7776 151.905 26.8943H141.871C141.41 33.4913 148.298 35.905 154.77 35.905C161.461 35.905 168.965 33.9886 169.635 26.8943C170.028 22.704 167.132 20.7848 163.727 19.7503C160.324 18.6648 156.362 18.4703 154.679 17.7737C154.115 17.5352 153.508 17.1897 153.579 16.4497C153.735 14.7739 155.463 14.4773 156.952 14.4773ZM180.831 19.5999C181.565 16.8386 183.52 15.3131 186.647 15.3131C189.356 15.3131 191.087 17.2373 190.861 19.5999H180.831ZM186.283 9.05884C177.577 9.05884 171.168 15.1166 170.47 22.555C169.665 31.0789 175.844 35.905 184.656 35.905C190.921 35.905 196.946 33.343 199.588 27.8252H189.772C188.802 29.0569 186.895 29.6465 185.194 29.6465C181.901 29.6465 180.29 27.5818 180.303 24.675H200.469C201.407 14.7242 197.221 9.05884 186.283 9.05884Z" fill="#008F78"/>
</g>
<defs>
<clipPath id="clip0_60_133">
<rect width="200.667" height="35.9595" fill="white" transform="translate(0.740723 0.0202637)"/>
</clipPath>
</defs>
</svg>
