<svg width="200" height="64" viewBox="0 0 200 64" fill="none" xmlns="http://www.w3.org/2000/svg">
<path d="M20.3161 11.5769H6.49105V0.0185547H0V29.6242H6.49105V17.3639H20.3161V29.6242H26.8043V0.0185547H20.3161V11.5769ZM161.27 1.70719C159.908 3.10046 159.853 5.13334 159.818 6.31836V29.6242H166.298V20.1781H180.066V29.6242H186.575V0.0185547H166.345C164.422 0.0362627 162.623 0.315341 161.27 1.70719ZM167.953 5.80341H180.067V14.3975H166.299V7.49417C166.326 7.15418 166.261 6.53794 166.547 6.17315C166.854 5.78853 167.343 5.8197 167.953 5.80341ZM115.36 0.0185547H95.092V29.6242H101.583V5.80341H113.753C114.358 5.8197 114.854 5.78853 115.155 6.17244C115.445 6.53723 115.388 7.15347 115.408 7.49346V29.6235H121.893V6.31836C121.857 5.13334 121.806 3.10046 120.45 1.70719C119.089 0.315341 117.293 0.0362627 115.36 0.0185547ZM82.8593 22.1458C82.836 22.4929 82.8948 23.0956 82.6086 23.4633C82.3012 23.8514 81.8075 23.8174 81.2054 23.8337H69.0379V0.0185547H62.544V29.6242H82.8161C84.7442 29.6094 86.5419 29.3225 87.8983 27.9306C89.2604 26.5395 89.3121 24.5094 89.349 23.3202V0.0185547H82.8608V22.1458H82.8593ZM154.435 6.31836C154.403 5.13334 154.349 3.10046 152.994 1.70719C151.637 0.315341 149.837 0.0362627 147.912 0.0185547H127.648V29.6242H147.912C149.837 29.6094 151.637 29.3225 152.994 27.9306C154.349 26.5395 154.403 24.5094 154.435 23.3202V6.31836ZM147.97 22.1458C147.947 22.4929 148.006 23.0956 147.722 23.4633C147.418 23.8514 146.918 23.8174 146.316 23.8337H134.133V5.80341H146.316C146.919 5.8197 147.419 5.78853 147.722 6.17244C148.006 6.53723 147.946 7.15347 147.97 7.49346V22.1458ZM44.6802 12.9716L36.8072 0.0185547H29.0971L41.2129 18.6835V29.6242H48.1431V18.6835L60.2568 0.0185547H52.5439L44.6802 12.9716ZM193.079 0.0185547H200V29.6242H193.079V0.0185547ZM0 37.3697H200V41.8293H0V37.3697ZM130.052 59.5146C130.69 59.441 131.267 59.2497 131.733 58.7667C132.364 58.1228 132.394 57.185 132.406 56.6346V53.1185C132.394 52.571 132.363 51.6296 131.733 50.9851C131.109 50.3412 130.276 50.2109 129.386 50.2024H119.964V63.9799H123.01V59.5479H126.86L129.827 63.9799H133.041L130.052 59.5146ZM129.543 56.1119C129.529 56.2535 129.514 56.4016 129.431 56.5107C129.29 56.6892 129.059 56.6771 128.781 56.6771H123.011V53.0725H128.781C129.059 53.0803 129.29 53.0654 129.431 53.2453C129.514 53.353 129.53 53.5067 129.543 53.6413V56.1119ZM93.2008 59.5146C93.8404 59.441 94.4163 59.2497 94.8852 58.7667C95.5142 58.1228 95.5454 57.185 95.5574 56.6346V53.1185C95.5454 52.571 95.5142 51.6296 94.8852 50.9851C94.2598 50.3412 93.4254 50.2109 92.5329 50.2024H83.1151V63.9799H86.158V59.5479H90.0098L92.9763 63.9799H96.1878L93.2008 59.5146ZM92.6894 56.1119C92.6788 56.2535 92.6625 56.4016 92.5803 56.5107C92.4401 56.6892 92.2099 56.6771 91.9301 56.6771H86.1587V53.0725H91.9301C92.2099 53.0803 92.4401 53.0654 92.5803 53.2453C92.6632 53.353 92.6795 53.5067 92.6894 53.6413V56.1119ZM53.8069 50.2031V53.2198H58.5137V63.9806H61.5318V53.2198H66.2429V50.2031H53.8069ZM22.3532 50.2031V63.9806H25.3685V55.264L28.3201 63.9806H30.9855L33.9342 55.264V63.9806H36.9488V50.2031H32.9504L29.651 59.9056L26.3524 50.2031H22.3532ZM165.229 63.9806H168.243V60.0317H174.622C175.518 60.0275 176.349 59.8943 176.971 59.2504C177.604 58.6009 177.633 57.6652 177.648 57.1205V53.1213C177.633 52.5717 177.603 51.6353 176.971 50.9879C176.348 50.3469 175.517 50.2123 174.622 50.2038H165.229V63.9806ZM174.772 56.5907C174.766 56.7267 174.752 56.8804 174.669 56.9895C174.527 57.1651 174.297 57.1609 174.016 57.1609H168.243V53.0718H174.016C174.296 53.0774 174.527 53.0661 174.669 53.2474C174.752 53.3537 174.767 53.5031 174.772 53.642V56.5907ZM107.998 53.3884C108.132 53.2141 108.362 53.2233 108.639 53.217H117.311V50.2031H107.891C106.998 50.2116 106.168 50.3461 105.536 50.9872C104.905 51.6346 104.883 52.571 104.869 53.1185V61.0652C104.884 61.6134 104.906 62.5548 105.536 63.1986C106.169 63.8397 106.998 63.9742 107.891 63.9806H114.286C115.18 63.9749 116.01 63.8404 116.639 63.1986C117.266 62.5548 117.295 61.6134 117.31 61.0652V55.723H110.81V58.4132H114.29V60.393C114.285 60.5332 114.269 60.6869 114.181 60.7918C114.042 60.9688 113.812 60.9589 113.534 60.9632H108.638C108.36 60.9589 108.131 60.9688 107.997 60.7903C107.911 60.6869 107.891 60.5332 107.885 60.393V53.7879C107.891 53.6512 107.912 53.4989 107.998 53.3884ZM159.572 60.5084C159.561 60.6685 159.587 60.949 159.458 61.1218C159.311 61.3003 159.085 61.2869 158.802 61.2932H153.152V50.2031H150.139V63.9806H159.553C160.447 63.9764 161.28 63.8418 161.914 63.1986C162.543 62.5498 162.567 61.6077 162.582 61.0581V50.2031H159.571V60.5084H159.572ZM146.903 50.9879C146.278 50.3469 145.442 50.2123 144.551 50.2038H138.156C137.265 50.2123 136.433 50.3469 135.804 50.9879C135.175 51.6353 135.15 52.5717 135.133 53.1213V61.0659C135.15 61.6141 135.176 62.5555 135.804 63.1993C136.434 63.8404 137.265 63.9749 138.156 63.9813H144.551C145.442 63.9757 146.278 63.8411 146.903 63.1993C147.537 62.5555 147.564 61.6141 147.576 61.0659V53.1206C147.563 52.571 147.536 51.6346 146.903 50.9879ZM144.556 60.3937C144.551 60.5339 144.534 60.6876 144.452 60.7925C144.31 60.9695 144.083 60.9596 143.803 60.9639H138.909C138.63 60.9596 138.399 60.9695 138.262 60.7925C138.175 60.6876 138.156 60.5339 138.147 60.3937V53.7886C138.156 53.6512 138.175 53.4989 138.262 53.3905C138.399 53.2134 138.63 53.2269 138.909 53.2163H143.803C144.083 53.2269 144.31 53.2134 144.452 53.3905C144.534 53.4982 144.551 53.6505 144.556 53.7886V60.3937ZM79.8561 50.9879C79.2313 50.3469 78.3948 50.2123 77.5059 50.2038H71.1076C70.2187 50.2123 69.3864 50.3469 68.7574 50.9879C68.1277 51.6353 68.1029 52.5717 68.0866 53.1213V61.0659C68.1022 61.6141 68.1277 62.5555 68.7574 63.1993C69.3864 63.8404 70.2187 63.9749 71.1076 63.9813H77.5059C78.3955 63.9757 79.2313 63.8411 79.8561 63.1993C80.49 62.5555 80.5148 61.6141 80.5268 61.0659V53.1206C80.5148 52.571 80.49 51.6346 79.8561 50.9879ZM77.5087 60.3937C77.5059 60.5339 77.486 60.6876 77.4024 60.7925C77.2636 60.9695 77.0348 60.9596 76.7529 60.9639H71.8598C71.5822 60.9596 71.3534 60.9695 71.2153 60.7925C71.1296 60.6876 71.1076 60.5339 71.1005 60.3937V53.7886C71.1076 53.6512 71.1296 53.4989 71.2153 53.3905C71.3527 53.2134 71.5822 53.2269 71.8598 53.2163H76.7529C77.0348 53.2269 77.2643 53.2134 77.4024 53.3905C77.4867 53.4982 77.5059 53.6505 77.5087 53.7886V60.3937ZM51.2867 50.9879C50.6633 50.3469 49.8268 50.2123 48.9365 50.2038H42.541C41.6485 50.2123 40.8156 50.3469 40.1908 50.9879C39.5597 51.6353 39.5335 52.5717 39.5158 53.1213V61.0659C39.5335 61.6141 39.5604 62.5555 40.1908 63.1993C40.8156 63.8404 41.6493 63.9749 42.541 63.9813H48.9365C49.8275 63.9757 50.6633 63.8411 51.2867 63.1993C51.922 62.5555 51.9454 61.6141 51.9603 61.0659V53.1206C51.9454 52.571 51.922 51.6346 51.2867 50.9879ZM48.9407 60.3937C48.9365 60.5339 48.9216 60.6876 48.8345 60.7925C48.6956 60.9695 48.4654 60.9596 48.1856 60.9639H43.2926C43.0135 60.9596 42.7826 60.9695 42.6473 60.7925C42.5616 60.6876 42.541 60.5339 42.5332 60.3937V53.7886C42.541 53.6512 42.5616 53.4989 42.6473 53.3905C42.7826 53.2134 43.0135 53.2269 43.2926 53.2163H48.1856C48.4647 53.2269 48.6956 53.2134 48.8345 53.3905C48.9216 53.4982 48.9365 53.6505 48.9407 53.7886V60.3937Z" fill="#003C83"/>
</svg>
