<svg width="201" height="98" viewBox="0 0 201 98" fill="none" xmlns="http://www.w3.org/2000/svg">
<g clip-path="url(#clip0_60_137)">
<path d="M55.045 27.715C55.045 25.672 54.8609 24.2912 54.4926 23.5726C54.1244 22.854 53.4919 22.4947 52.5951 22.4947C52.0862 22.4861 51.5837 22.61 51.1371 22.8541C50.6904 23.0983 50.3149 23.4543 50.0473 23.8874C49.4198 24.8158 49.106 26.0917 49.106 27.715V36.7659C49.9969 36.7659 50.57 36.8698 50.8669 37.0807C51.1639 37.2915 51.3064 37.6746 51.3064 38.2685C51.3425 38.6972 51.2105 39.1231 50.9382 39.4563C50.7872 39.5965 50.6085 39.7039 50.4138 39.7713C50.219 39.8388 50.0123 39.865 49.8068 39.8482H47.4313C46.8077 39.8482 46.383 39.7027 46.1573 39.4117C45.9317 39.1207 45.8198 38.4971 45.8218 37.541V26.0194C45.8218 24.9326 45.5753 24.0715 45.0824 23.4419C44.8456 23.1332 44.5379 22.886 44.1854 22.7211C43.833 22.5562 43.446 22.4786 43.0572 22.4947C42.4176 22.4951 41.7943 22.6966 41.2756 23.0708C40.7321 23.4568 39.874 24.1576 39.874 25.1939V36.7748H40.1204C40.9816 36.7748 41.5666 36.8817 41.8694 37.1015C42.1723 37.3212 42.3208 37.7102 42.3208 38.2893C42.3208 38.8683 42.1991 39.2929 41.9526 39.5186C41.7061 39.7443 41.2369 39.8571 40.5421 39.8571H35.8652C35.4147 39.8952 34.9669 39.758 34.615 39.4741C34.4698 39.3145 34.3592 39.1266 34.2902 38.9222C34.2212 38.7177 34.1953 38.5012 34.2142 38.2863C34.2142 37.7063 34.3834 37.3103 34.7219 37.0985C35.0605 36.8877 35.5861 36.7837 36.566 36.7837V22.8273C35.5564 22.8273 34.8704 22.7115 34.5022 22.4798C34.134 22.2482 33.9529 21.8473 33.9529 21.2713C33.9373 21.0619 33.9681 20.8518 34.0431 20.6557C34.118 20.4597 34.2352 20.2825 34.3864 20.1369C34.7623 19.8581 35.2263 19.7242 35.693 19.7598H38.6298C39.1108 19.7598 39.4256 19.8429 39.577 20.0063C39.7285 20.1696 39.8205 20.523 39.8502 21.0545C40.3878 20.4616 41.0391 19.9829 41.7655 19.647C42.4951 19.3347 43.2823 19.1799 44.0758 19.1926C44.9625 19.1565 45.8396 19.3872 46.5939 19.8548C47.2904 20.3411 47.807 21.0435 48.0637 21.8533C48.5943 21.0221 49.3188 20.3322 50.175 19.843C51.0201 19.3982 51.964 19.1745 52.9188 19.1926C54.7896 19.1926 56.1575 19.8024 57.0226 21.0218C57.8877 22.2413 58.3242 24.2041 58.3322 26.9103V36.7659C59.223 36.7659 59.8169 36.8728 60.1138 37.0926C60.4108 37.3123 60.5652 37.7013 60.5652 38.2803C60.5831 38.4945 60.5576 38.7101 60.4903 38.9142C60.4229 39.1183 60.3151 39.3067 60.1732 39.4681C60.0173 39.6074 59.8349 39.7139 59.637 39.7812C59.439 39.8485 59.2296 39.8754 59.0211 39.8601H56.7376C56.4978 39.8791 56.2569 39.8418 56.0341 39.751C55.8114 39.6603 55.6129 39.5187 55.4547 39.3375C55.1776 38.991 55.04 38.4397 55.042 37.6835L55.045 27.715Z" fill="#231F20"/>
<path d="M75.2581 30.7379C75.3749 32.8343 76.0816 34.4537 77.3783 35.5959C78.6759 36.7392 80.1993 37.3093 82.4471 37.3093C86.7321 37.3093 88.7899 35.3584 90.2568 34.028C90.551 33.7252 90.9499 33.5464 91.3717 33.5282C91.7935 33.51 92.2063 33.6538 92.5255 33.9301C92.6668 34.0594 92.7788 34.2175 92.8541 34.3936C92.9294 34.5698 92.9662 34.76 92.962 34.9515C92.9433 35.3761 92.7822 35.7819 92.5047 36.1037C91.5367 37.3806 88.3475 40.3768 82.3907 40.3768C79.0867 40.3768 76.4399 39.4226 74.4504 37.5142C72.4608 35.6058 71.471 33.0788 71.4809 29.9332C71.4809 26.7281 72.5321 24.1328 74.6345 22.1472C76.7369 20.1616 79.4777 19.1718 82.8569 19.1778C85.9174 19.1778 88.4554 20.1062 90.4706 21.9631C92.4859 23.82 93.4935 26.0679 93.4935 28.7068C93.4935 29.5204 93.3233 30.0638 92.9828 30.337C92.6443 30.6132 91.7178 30.7498 90.2093 30.7498H75.2581V30.7379ZM75.365 27.8902H89.5263C89.365 26.278 88.5899 24.7895 87.3616 23.7329C86.1028 22.6691 84.4954 22.1076 82.848 22.1561C80.9218 22.1561 79.2975 22.6639 77.9751 23.6795C76.6376 24.7314 75.716 26.2232 75.3739 27.8902H75.365Z" fill="#231F20"/>
<path d="M164.378 67.7079C164.492 69.8003 165.199 71.4187 166.498 72.5629C167.795 73.7062 169.319 74.2763 171.567 74.2763C175.852 74.2763 177.909 72.3283 179.376 71.0099C179.67 70.7067 180.069 70.5273 180.491 70.5086C180.912 70.4898 181.325 70.633 181.645 70.9089C181.786 71.0387 181.897 71.1969 181.972 71.373C182.047 71.5491 182.083 71.7391 182.079 71.9304C182.054 72.3441 181.894 72.7383 181.624 73.0529C180.656 74.3298 177.467 77.326 171.51 77.326C168.204 77.326 165.558 76.3728 163.573 74.4664C161.587 72.56 160.597 70.0329 160.603 66.8853C160.596 63.6724 161.644 61.0761 163.748 59.0964C165.852 57.1168 168.593 56.127 171.971 56.127C175.029 56.127 177.567 57.0544 179.584 58.9093C181.602 60.7643 182.609 63.0122 182.607 65.653C182.607 66.4666 182.437 67.01 182.096 67.2832C181.756 67.5564 180.831 67.695 179.323 67.6989H164.378V67.7079ZM164.485 64.8572H178.646C178.485 63.245 177.709 61.7565 176.481 60.6999C175.222 59.6366 173.615 59.0751 171.968 59.1231C170.041 59.1231 168.417 59.6309 167.095 60.6465C165.757 61.6938 164.833 63.1798 164.485 64.8423V64.8572Z" fill="#231F20"/>
<path d="M123.265 37.0688C122.128 38.1118 120.813 38.9443 119.384 39.5275C118.013 40.0912 116.546 40.3837 115.064 40.3886C112.906 40.3886 111.162 39.7868 109.832 38.5832C108.501 37.3796 107.838 35.8127 107.842 33.8825C107.842 31.5921 108.723 29.8164 110.485 28.5553C112.247 27.2943 114.721 26.6628 117.908 26.6608C118.759 26.6624 119.609 26.717 120.453 26.8241C121.34 26.9394 122.219 27.11 123.084 27.3349V27.1834C123.084 25.5166 122.688 24.2842 121.896 23.4864C121.105 22.6887 119.864 22.2927 118.176 22.2987C116.864 22.3396 115.575 22.651 114.39 23.2133C113.004 23.821 112.083 24.1249 111.628 24.1249C111.426 24.1279 111.226 24.0832 111.044 23.9945C110.863 23.9057 110.705 23.7754 110.583 23.6141C110.295 23.2375 110.149 22.772 110.17 22.2987C110.17 21.4435 110.972 20.7179 112.575 20.122C114.179 19.5262 116.227 19.2292 118.719 19.2312C121.273 19.2312 123.202 19.8805 124.507 21.1792C125.811 22.4778 126.464 24.3951 126.464 26.931V36.7659C127.491 36.7659 128.138 36.8728 128.486 37.0925C128.833 37.3123 129.008 37.7013 129.008 38.2803C129.026 38.4979 128.997 38.7168 128.922 38.9218C128.847 39.1269 128.729 39.3133 128.575 39.4681C128.203 39.7562 127.737 39.8959 127.268 39.8601H124.961C124.591 39.8738 124.231 39.7403 123.96 39.4889C123.676 39.1991 123.492 38.8252 123.438 38.4229L123.265 37.0688ZM123.09 30.2182C122.334 29.9663 121.56 29.7737 120.774 29.6421C120.037 29.5181 119.291 29.4555 118.544 29.4551C116.311 29.4551 114.549 29.8322 113.258 30.5864C111.968 31.3407 111.323 32.3562 111.325 33.6331C111.318 34.1056 111.423 34.5731 111.633 34.9966C111.843 35.4201 112.151 35.7874 112.531 36.0681C113.416 36.733 114.504 37.0718 115.61 37.0272C117.42 37.0356 119.195 36.5333 120.732 35.5781C122.302 34.616 123.088 33.6123 123.09 32.5671V30.2182Z" fill="#231F20"/>
<path d="M159.846 20.9507C160.555 20.9507 161.073 21.0744 161.399 21.3219C161.569 21.4635 161.703 21.6441 161.788 21.8483C161.873 22.0525 161.908 22.2743 161.889 22.4948C161.905 22.7076 161.872 22.9212 161.793 23.1193C161.714 23.3175 161.59 23.4949 161.432 23.638C161.033 23.9198 160.55 24.0541 160.063 24.0181H151.253V31.2844C151.253 33.66 151.561 35.2259 152.179 35.9821C152.797 36.7383 153.851 37.1184 155.341 37.1224C156.66 37.1224 158.244 36.7383 160.093 35.9702C161.942 35.2021 163.081 34.8171 163.51 34.8151C163.703 34.8121 163.894 34.8494 164.072 34.9246C164.249 34.9997 164.409 35.1111 164.541 35.2516C164.68 35.3915 164.789 35.558 164.862 35.7412C164.935 35.9244 164.97 36.1205 164.966 36.3177C164.966 36.5512 164.92 36.7825 164.828 36.9975C164.737 37.2124 164.603 37.4065 164.434 37.5678C163.902 38.0278 163.284 38.3789 162.617 38.6012C161.37 39.1115 160.087 39.5265 158.777 39.8424C157.726 40.0907 156.65 40.2212 155.57 40.2314C154.096 40.2774 152.629 39.9965 151.276 39.4089C150.171 38.9096 149.264 38.0558 148.699 36.9828C148.39 36.421 148.18 35.8103 148.078 35.1774C147.931 34.1111 147.869 33.0346 147.894 31.9585V24.0181H144.206C143.735 24.0597 143.264 23.9323 142.879 23.6588C142.729 23.5067 142.615 23.3237 142.543 23.1226C142.472 22.9215 142.446 22.7072 142.466 22.4948C142.466 21.9009 142.654 21.4951 143.03 21.2773C143.406 21.0596 144.211 20.9507 145.444 20.9507H147.903V15.3384C147.864 14.8452 148.008 14.3549 148.307 13.9606C148.472 13.8015 148.669 13.6795 148.885 13.6026C149.101 13.5258 149.331 13.496 149.56 13.5151C150.195 13.5151 150.641 13.6963 150.884 14.0586C151.128 14.4208 151.256 15.2463 151.256 16.5381V20.9536L159.846 20.9507Z" fill="#231F20"/>
<path d="M20.9733 73.6735V51.4025C19.9835 51.4025 19.3055 51.2867 18.9393 51.0551C18.571 50.8234 18.3869 50.4166 18.3869 49.8376C18.3688 49.619 18.3994 49.3991 18.4764 49.1937C18.5534 48.9883 18.675 48.8026 18.8324 48.6498C19.2012 48.3648 19.662 48.2253 20.127 48.2578H23.0104C23.3331 48.2385 23.6535 48.3228 23.925 48.4983C24.0293 48.5716 24.1138 48.6697 24.1708 48.7837C24.2278 48.8978 24.2556 49.0242 24.2516 49.1516V59.0043C25.1751 58.1109 26.237 57.3729 27.3963 56.8188C28.4113 56.3566 29.5147 56.1205 30.63 56.1269C32.8215 56.1269 34.5438 56.8079 35.7969 58.1699C37.05 59.5319 37.6776 61.4125 37.6795 63.8119V73.6645H37.8429C38.5733 73.6645 39.0989 73.7863 39.4226 74.0239C39.5894 74.1612 39.7204 74.337 39.8042 74.5361C39.888 74.7353 39.9221 74.9518 39.9037 75.1671C39.9219 75.3849 39.8922 75.6041 39.8168 75.8093C39.7414 76.0145 39.6221 76.2007 39.4672 76.3549C39.094 76.6401 38.6291 76.7786 38.1606 76.7439H33.8638C33.1808 76.7439 32.7205 76.631 32.48 76.4083C32.2395 76.1856 32.1207 75.7729 32.1207 75.179C32.1207 74.5851 32.2692 74.205 32.5691 73.9912C32.869 73.7774 33.4362 73.6735 34.2676 73.6735H34.3953V64.6255C34.3953 62.9289 34.0103 61.6352 33.2402 60.7444C32.4701 59.8536 31.3506 59.4032 29.8817 59.3933C28.4278 59.3779 27.022 59.9137 25.9472 60.8929C25.4084 61.3499 24.9775 61.9206 24.6854 62.5639C24.3933 63.2072 24.2472 63.9072 24.2576 64.6136V73.6616H24.4179C25.289 73.6616 25.8769 73.7705 26.1818 73.9882C26.4787 74.208 26.6391 74.5821 26.6391 75.176C26.6391 75.7699 26.5173 76.1797 26.2798 76.4054C26.0422 76.631 25.579 76.7409 24.896 76.7409H20.1745C19.7171 76.7752 19.2635 76.6363 18.9036 76.3519C18.7523 76.1956 18.6361 76.0088 18.5629 75.8039C18.4896 75.5991 18.461 75.3809 18.479 75.1641C18.479 74.5851 18.6482 74.1901 18.9897 73.9763C19.3312 73.7625 19.9934 73.6586 20.9793 73.6586L20.9733 73.6735Z" fill="#231F20"/>
<path d="M76.2172 66.7131C76.2172 69.8172 75.1581 72.355 73.0399 74.3268C70.9217 76.2985 68.1739 77.2883 64.7967 77.2962C61.4313 77.2962 58.6905 76.3064 56.5742 74.3268C54.458 72.3471 53.3989 69.8092 53.3969 66.7131C53.3969 63.611 54.456 61.077 56.5742 59.1112C58.6924 57.1454 61.4333 56.1636 64.7967 56.1655C68.1621 56.1655 70.9068 57.1554 73.031 59.135C75.1552 61.1146 76.2172 63.6407 76.2172 66.7131ZM64.7967 74.2199C67.0297 74.2199 68.8609 73.5131 70.2902 72.0997C71.7195 70.6862 72.4332 68.8877 72.4312 66.7042C72.4312 64.5166 71.7136 62.7102 70.2783 61.2849C68.8431 59.8595 67.0159 59.1459 64.7967 59.1439C62.5795 59.1439 60.7562 59.8576 59.3269 61.2849C57.8976 62.7122 57.183 64.5186 57.183 66.7042C57.183 68.9035 57.8937 70.706 59.3151 72.1116C60.7364 73.5171 62.5636 74.2199 64.7967 74.2199Z" fill="#231F20"/>
<path d="M95.0228 68.7144C95.0228 70.5417 95.4079 71.8759 96.178 72.7173C96.9441 73.5606 98.1645 73.9793 99.8304 73.9793C101.324 74.0112 102.774 73.4741 103.887 72.4768C104.428 72.012 104.861 71.4331 105.152 70.7816C105.444 70.1301 105.588 69.4221 105.573 68.7085V59.7081H104.683C104.243 59.7457 103.805 59.6187 103.453 59.3517C103.316 59.2031 103.212 59.0276 103.146 58.8364C103.081 58.6452 103.056 58.4425 103.073 58.2411C103.055 58.0221 103.082 57.8017 103.153 57.5937C103.224 57.3858 103.337 57.1947 103.486 57.0326C103.762 56.7713 104.204 56.6436 104.813 56.6436H107.364C107.916 56.6436 108.302 56.7624 108.528 56.9999C108.754 57.2375 108.864 57.8254 108.864 58.7519V73.6735C109.576 73.6735 109.98 73.7922 110.292 74.0238C110.457 74.1638 110.586 74.3416 110.668 74.5423C110.75 74.7429 110.782 74.9604 110.761 75.176C110.779 75.3946 110.749 75.6145 110.672 75.8198C110.595 76.0252 110.473 76.211 110.316 76.3638C109.945 76.646 109.485 76.7842 109.021 76.7528H106.821C106.498 76.773 106.178 76.6897 105.906 76.5152C105.802 76.4419 105.717 76.3439 105.66 76.2298C105.603 76.1158 105.575 75.9894 105.579 75.8619V74.3772C104.483 75.2668 103.274 76.0068 101.983 76.5776C100.984 76.9769 99.9174 77.1786 98.8416 77.1715C96.4482 77.1715 94.6536 76.536 93.4579 75.2651C92.2622 73.9942 91.6634 72.0739 91.6614 69.5043V59.7051H91.6377C90.6518 59.7051 89.9777 59.5923 89.6155 59.3606C89.2532 59.129 89.0691 58.7281 89.0691 58.1521C89.0557 57.9422 89.0884 57.7319 89.1648 57.536C89.2412 57.34 89.3596 57.1631 89.5115 57.0177C89.8905 56.7359 90.3592 56.6018 90.83 56.6406H93.6688C94.1766 56.6406 94.5299 56.7416 94.7229 56.9375C94.9159 57.1335 95.0199 57.5908 95.0199 58.2857L95.0228 68.7144Z" fill="#231F20"/>
<path d="M126.6 75.1761V71.3158C126.6 70.6773 126.719 70.22 126.959 69.9468C127.111 69.797 127.294 69.6822 127.495 69.6104C127.697 69.5386 127.911 69.5115 128.123 69.5311C128.717 69.5311 129.188 69.9379 129.537 70.7516C129.71 71.1412 129.922 71.5123 130.169 71.8592C130.883 72.7177 131.814 73.3681 132.866 73.7418C134.121 74.2258 135.458 74.4657 136.803 74.4485C138.337 74.4485 139.57 74.1367 140.5 73.5132C140.927 73.2604 141.279 72.9005 141.524 72.4692C141.768 72.0379 141.895 71.5501 141.893 71.0545C141.893 70.024 141.519 69.2936 140.773 68.857C140.028 68.4205 138.745 68.2038 136.934 68.2038H135.746C132.788 68.2038 130.534 67.689 128.982 66.6596C127.43 65.6302 126.654 64.1366 126.654 62.1787C126.654 60.2664 127.411 58.7817 128.925 57.7245C130.44 56.6674 132.565 56.1349 135.301 56.127C136.454 56.1316 137.603 56.2883 138.716 56.5932C139.878 56.9059 140.487 57.0623 140.545 57.0623C140.876 56.9885 141.187 56.8436 141.456 56.6377C141.85 56.3732 142.31 56.2259 142.784 56.2131C142.998 56.199 143.213 56.2418 143.406 56.3372C143.599 56.4327 143.763 56.5773 143.882 56.7565C144.155 57.2556 144.28 57.8222 144.242 58.3897V60.9345C144.242 61.7036 144.126 62.2559 143.894 62.5974C143.769 62.7709 143.601 62.9091 143.406 62.9986C143.211 63.0881 142.997 63.1258 142.784 63.1082C142.35 63.1082 141.814 62.739 141.174 62.0006C140.825 61.5965 140.456 61.2109 140.067 60.8454C139.359 60.1738 138.523 59.6525 137.608 59.3132C136.62 58.9821 135.582 58.8234 134.54 58.844C133.176 58.844 132.078 59.141 131.244 59.7349C130.861 59.9823 130.545 60.3221 130.327 60.7232C130.108 61.1242 129.994 61.5736 129.994 62.0302C129.977 62.4499 130.091 62.8645 130.321 63.2159C130.551 63.5674 130.885 63.838 131.277 63.9901C132.132 64.386 133.974 64.6107 136.803 64.6642C139.816 64.7354 142.021 65.261 143.416 66.2409C144.812 67.2209 145.505 68.7323 145.495 70.7753C145.521 71.6873 145.324 72.5919 144.922 73.4109C144.52 74.2299 143.925 74.9387 143.188 75.476C141.653 76.6499 139.58 77.2369 136.966 77.2369C136.042 77.2284 135.119 77.1519 134.205 77.0082C133.189 76.8578 131.913 76.6004 130.377 76.2361C129.96 76.5165 129.523 76.7676 129.071 76.9874C128.786 77.1333 128.475 77.2183 128.156 77.2369C127.933 77.2492 127.711 77.207 127.508 77.1138C127.305 77.0207 127.128 76.8794 126.992 76.7024C126.701 76.249 126.563 75.7137 126.6 75.1761Z" fill="#231F20"/>
<path d="M38.8851 94.0024C38.8851 94.0767 38.8851 94.1746 38.8851 94.2994C38.9072 95.0866 38.6155 95.8503 38.0745 96.4225C37.8085 96.7044 37.4856 96.9264 37.1272 97.0738C36.7688 97.2213 36.3832 97.2908 35.9959 97.2777C35.5959 97.2915 35.1973 97.2247 34.8236 97.0815C34.45 96.9382 34.1089 96.7213 33.8207 96.4436C33.5325 96.166 33.303 95.8333 33.1459 95.4652C32.9887 95.0972 32.9071 94.7013 32.9059 94.3011C32.9047 93.901 32.984 93.5046 33.1389 93.1356C33.2938 92.7667 33.5213 92.4326 33.8079 92.1532C34.0944 91.8739 34.4342 91.6549 34.807 91.5094C35.1798 91.3639 35.578 91.2948 35.978 91.3061C36.5678 91.293 37.1492 91.4464 37.6558 91.7486C38.1274 92.028 38.4913 92.4579 38.6892 92.969L38.0953 93.1858C37.9137 92.7973 37.6173 92.4739 37.246 92.2593C36.8645 92.0425 36.4316 91.9327 35.9929 91.9416C35.6888 91.9353 35.3867 91.9925 35.106 92.1096C34.8253 92.2267 34.5721 92.4011 34.3626 92.6216C34.1472 92.8419 33.9778 93.1029 33.8646 93.3895C33.7514 93.6761 33.6966 93.9824 33.7034 94.2905C33.696 94.5999 33.752 94.9076 33.8679 95.1946C33.9838 95.4816 34.1572 95.7418 34.3775 95.9593C34.5907 96.1808 34.8475 96.3558 35.1316 96.4734C35.4157 96.5909 35.7211 96.6484 36.0285 96.6423C36.585 96.6592 37.1257 96.4565 37.534 96.0781C37.9388 95.6964 38.1902 95.18 38.2408 94.626H35.7019V94.0084L38.8851 94.0024Z" fill="#231F20"/>
<path d="M48.3547 92.1673C48.8501 92.6565 49.1601 93.3026 49.232 93.995C49.3039 94.6875 49.1331 95.3834 48.7489 95.964C48.3646 96.5445 47.7907 96.9736 47.1252 97.178C46.4597 97.3824 45.7438 97.3494 45.1 97.0846C44.4561 96.8198 43.9242 96.3396 43.595 95.7261C43.2658 95.1127 43.1599 94.404 43.2952 93.7211C43.4306 93.0382 43.7988 92.4234 44.3371 91.9819C44.8754 91.5404 45.5502 91.2994 46.2464 91.3002C46.6384 91.2935 47.0276 91.367 47.3901 91.5161C47.7527 91.6652 48.0809 91.8868 48.3547 92.1673ZM47.8707 95.9534C48.0878 95.7342 48.2584 95.4734 48.3722 95.1866C48.486 94.8998 48.5407 94.593 48.5329 94.2845C48.5397 93.9765 48.4849 93.6702 48.3717 93.3836C48.2585 93.097 48.0892 92.8359 47.8737 92.6157C47.6608 92.3984 47.4067 92.2258 47.1263 92.1079C46.8458 91.9901 46.5447 91.9294 46.2405 91.9294C45.9363 91.9294 45.6352 91.9901 45.3547 92.1079C45.0743 92.2258 44.8202 92.3984 44.6073 92.6157C44.3918 92.8359 44.2225 93.097 44.1093 93.3836C43.9961 93.6702 43.9413 93.9765 43.9481 94.2845C43.9399 94.5928 43.9941 94.8995 44.1074 95.1862C44.2207 95.473 44.3907 95.7339 44.6073 95.9534C44.8212 96.1688 45.0756 96.3399 45.3559 96.4566C45.6362 96.5733 45.9369 96.6334 46.2405 96.6334C46.5441 96.6334 46.8447 96.5733 47.125 96.4566C47.4053 96.3399 47.6598 96.1688 47.8737 95.9534H47.8707Z" fill="#231F20"/>
<path d="M58.6291 94.6468C58.6617 95.341 58.4268 96.0212 57.9728 96.5473C57.7539 96.7877 57.4848 96.9772 57.1847 97.1024C56.8846 97.2276 56.5606 97.2854 56.2357 97.2718C55.9082 97.2854 55.5816 97.2276 55.2786 97.1025C54.9755 96.9774 54.7033 96.788 54.4808 96.5473C54.0228 96.023 53.7845 95.3423 53.8156 94.6468V91.4131H54.4718V94.6468C54.4463 95.167 54.6169 95.6777 54.9499 96.0781C55.1072 96.2567 55.3024 96.398 55.5213 96.4915C55.7401 96.585 55.9771 96.6284 56.2149 96.6185C56.4496 96.6278 56.6833 96.584 56.8988 96.4904C57.1142 96.3969 57.3057 96.2559 57.4591 96.0781C57.7885 95.676 57.9567 95.1659 57.9313 94.6468V91.4131H58.6291V94.6468Z" fill="#231F20"/>
<path d="M67.4247 97.1591L65.2273 94.6974H64.1731V97.1591H63.4961V91.4132H66.1538C66.6469 91.3895 67.1314 91.5492 67.5138 91.8616C67.6767 92.0136 67.8066 92.1974 67.8955 92.4018C67.9843 92.6061 68.0301 92.8266 68.0301 93.0494C68.0301 93.2722 67.9843 93.4926 67.8955 93.6969C67.8066 93.9013 67.6767 94.0852 67.5138 94.2372C67.1328 94.5526 66.6478 94.7146 66.1538 94.6915H66.0528L68.274 97.1531L67.4247 97.1591ZM66.1538 94.0798C66.4694 94.0949 66.7797 93.9946 67.0268 93.7977C67.1294 93.7031 67.2112 93.5883 67.2672 93.4606C67.3232 93.3328 67.3521 93.1948 67.3521 93.0553C67.3521 92.9158 67.3232 92.7778 67.2672 92.65C67.2112 92.5223 67.1294 92.4075 67.0268 92.3129C66.7824 92.1097 66.4714 92.0039 66.1538 92.016H64.1731V94.0768L66.1538 94.0798Z" fill="#231F20"/>
<path d="M78.8719 97.159H78.2275V92.9483L76.0064 97.1679H75.555L73.3279 92.9483V97.1679H72.6776V91.4131H73.2715L75.7777 96.1464L78.284 91.4131H78.8779L78.8719 97.159Z" fill="#231F20"/>
<path d="M88.009 97.159H83.8131V91.4131H88.0001V92.007H84.4901V93.9579H87.7566V94.5518H84.4901V96.5146H88.009V97.159Z" fill="#231F20"/>
<path d="M94.9931 92.0187V97.1588H94.3072V92.0187H92.184V91.4248H97.1341V92.0187H94.9931Z" fill="#231F20"/>
<path d="M110.5 94.2341C110.819 94.2666 111.115 94.4182 111.328 94.6587C111.554 94.9191 111.672 95.2557 111.658 95.6C111.666 95.8113 111.628 96.0218 111.547 96.2171C111.466 96.4124 111.344 96.5879 111.189 96.7314C110.822 97.0381 110.35 97.1913 109.873 97.159H107.12V91.4131H109.763C110.217 91.3873 110.663 91.5336 111.013 91.8229C111.165 91.9616 111.284 92.1319 111.363 92.3218C111.441 92.5116 111.477 92.7163 111.468 92.9215C111.477 93.2443 111.372 93.56 111.171 93.8124C111.09 93.922 110.987 94.0145 110.87 94.0843C110.753 94.1542 110.623 94.2 110.488 94.2192L110.5 94.2341ZM107.797 93.9846H109.754C109.897 93.9886 110.038 93.9645 110.171 93.9135C110.305 93.8625 110.426 93.7858 110.529 93.6877C110.628 93.5909 110.705 93.4746 110.756 93.3463C110.807 93.2179 110.831 93.0804 110.826 92.9423C110.832 92.8108 110.808 92.6798 110.756 92.5586C110.705 92.4375 110.628 92.3292 110.529 92.2415C110.297 92.0569 110.006 91.9639 109.71 91.9802H107.806L107.797 93.9846ZM109.814 96.5769C110.123 96.5881 110.425 96.482 110.66 96.28C110.761 96.1825 110.84 96.0644 110.891 95.9338C110.942 95.8031 110.965 95.6629 110.957 95.5228C110.963 95.3847 110.937 95.2471 110.881 95.1209C110.825 94.9946 110.74 94.8831 110.633 94.7953C110.401 94.6049 110.108 94.5066 109.808 94.5191H107.783V96.5621L109.814 96.5769Z" fill="#231F20"/>
<path d="M121.026 94.6468C121.059 95.3404 120.825 96.0201 120.373 96.5473C120.153 96.7875 119.884 96.9767 119.583 97.1019C119.283 97.227 118.958 97.285 118.633 97.2718C118.306 97.2848 117.979 97.2268 117.676 97.1017C117.373 96.9766 117.101 96.7875 116.878 96.5473C116.42 96.023 116.182 95.3423 116.213 94.6468V91.4131H116.893V94.6468C116.867 95.1666 117.036 95.6773 117.368 96.0781C117.525 96.2567 117.721 96.398 117.939 96.4915C118.158 96.585 118.395 96.6284 118.633 96.6185C118.868 96.628 119.102 96.5843 119.317 96.4908C119.532 96.3972 119.724 96.2561 119.877 96.0781C120.207 95.676 120.375 95.1659 120.349 94.6468V91.4131H121.026V94.6468Z" fill="#231F20"/>
<path d="M128.186 92.0187V97.1588H127.497V92.0187H125.362V91.4248H130.312V92.0187H128.186Z" fill="#231F20"/>
<path d="M138.469 96.2561C138.843 95.9923 139.117 95.609 139.244 95.1693L139.897 95.3237C139.737 95.9001 139.382 96.4035 138.894 96.749C138.385 97.1016 137.778 97.2845 137.16 97.2717C136.76 97.2843 136.361 97.2164 135.988 97.072C135.615 96.9276 135.274 96.7097 134.987 96.4312C134.699 96.1527 134.471 95.8193 134.315 95.4508C134.159 95.0822 134.078 94.6861 134.078 94.2859C134.078 93.8856 134.159 93.4895 134.315 93.121C134.471 92.7524 134.699 92.419 134.987 92.1405C135.274 91.862 135.615 91.6441 135.988 91.4997C136.361 91.3553 136.76 91.2875 137.16 91.3001C137.776 91.2866 138.381 91.4685 138.888 91.8197C139.373 92.1515 139.73 92.6401 139.897 93.2035L139.244 93.3935C139.118 92.9581 138.845 92.5795 138.472 92.3216C138.086 92.0589 137.627 91.9239 137.16 91.9355C136.855 91.929 136.553 91.9857 136.272 92.1023C135.991 92.2189 135.737 92.3926 135.526 92.6126C135.099 93.0637 134.861 93.6615 134.861 94.2829C134.861 94.9043 135.099 95.5021 135.526 95.9532C135.736 96.1744 135.99 96.3494 136.271 96.467C136.552 96.5846 136.855 96.6422 137.16 96.6362C137.625 96.6474 138.082 96.5146 138.469 96.2561Z" fill="#231F20"/>
<path d="M149.364 97.159H148.684V94.5696H145.236V97.159H144.556V91.4131H145.236V93.9609H148.684V91.4131H149.364V97.159Z" fill="#231F20"/>
<path d="M158.501 97.159H154.305V91.4131H158.489V92.007H154.982V93.9579H158.249V94.5518H154.982V96.5146H158.501V97.159Z" fill="#231F20"/>
<path d="M167.133 97.159L164.936 94.6973H163.879V97.159H163.202V91.4131H165.874C166.368 91.3898 166.853 91.5495 167.237 91.8615C167.4 92.0135 167.53 92.1974 167.619 92.4017C167.708 92.606 167.754 92.8265 167.754 93.0493C167.754 93.2721 167.708 93.4925 167.619 93.6969C167.53 93.9012 167.4 94.0851 167.237 94.2371C166.855 94.5522 166.369 94.7142 165.874 94.6914H165.773L167.994 97.1531L167.133 97.159ZM165.859 94.0797C166.175 94.0948 166.485 93.9945 166.732 93.7976C166.836 93.7035 166.918 93.5889 166.975 93.4611C167.031 93.3332 167.061 93.195 167.061 93.0552C167.061 92.9154 167.031 92.7772 166.975 92.6494C166.918 92.5215 166.836 92.4069 166.732 92.3129C166.488 92.1096 166.177 92.0038 165.859 92.0159H163.879V94.0767L165.859 94.0797Z" fill="#231F20"/>
<path d="M0 0.728516V95.1485H22.8975V93.4084H1.74604V2.46862H199.26V93.4084H178.082V95.1485H201V0.728516H0Z" fill="#231F20"/>
</g>
<defs>
<clipPath id="clip0_60_137">
<rect width="201" height="96.5432" fill="white" transform="translate(0 0.728516)"/>
</clipPath>
</defs>
</svg>
