<svg width="200" height="106" viewBox="0 0 200 106" fill="none" xmlns="http://www.w3.org/2000/svg">
<g clip-path="url(#clip0_60_43)">
<g opacity="0.41">
<path d="M-6.46535 -307.443L-157.277 -132.479L17.7073 18.3498L168.519 -156.614L-6.46535 -307.443Z" fill="url(#paint0_linear_60_43)"/>
</g>
<path d="M44.6611 98.4109V89.5798C44.6611 88.4421 44.1825 87.1869 42.0786 87.1869C41.2707 87.1539 40.4664 87.3117 39.7309 87.6475V98.4832H37.7443V86.7445C39.1613 86.105 40.7052 85.7962 42.2592 85.8415C45.6815 85.8415 46.6838 87.7378 46.6838 89.4534V98.3297H44.6611V98.4109Z" fill="black"/>
<path d="M53.8173 98.6365C50.4582 98.6365 49.0045 95.8734 49.0045 92.2705C49.0045 88.6676 50.4853 85.8413 53.7902 85.8413C57.0951 85.8413 58.6031 88.5502 58.6031 92.2344C58.6031 95.9185 57.1493 98.6365 53.8173 98.6365ZM53.8173 87.1506C51.4696 87.1506 51.0091 89.7783 51.0091 92.2615C51.0091 94.7446 51.5057 97.2369 53.8173 97.2369C56.1289 97.2369 56.5985 94.7266 56.5985 92.2615C56.5985 89.7963 56.165 87.1597 53.8173 87.1597V87.1506Z" fill="black"/>
<path d="M65.6192 98.4111H63.8132L59.7318 86.1035H61.8809L64.4634 94.9166C64.6121 95.4091 64.7179 95.9137 64.7794 96.4245C64.829 95.9133 64.9288 95.4082 65.0774 94.9166L67.7231 86.1035H69.5923L65.6192 98.4111Z" fill="black"/>
<path d="M75.4797 98.6365C72.1206 98.6365 70.6668 95.8734 70.6668 92.2705C70.6668 88.6676 72.1477 85.8413 75.4616 85.8413C78.7755 85.8413 80.2745 88.5502 80.2745 92.2344C80.2745 95.9185 78.8116 98.6365 75.4797 98.6365ZM75.4797 87.1506C73.1319 87.1506 72.6714 89.7783 72.6714 92.2615C72.6714 94.7446 73.1771 97.2369 75.4797 97.2369C77.7822 97.2369 78.2608 94.7266 78.2608 92.2615C78.2608 89.7963 77.8364 87.1597 75.4797 87.1597V87.1506Z" fill="black"/>
<path d="M90.7309 98.6366C88.1484 98.6366 86.2161 96.1444 86.2161 92.2706C86.2161 88.3968 88.022 85.8775 90.7851 85.8775C91.7019 85.8268 92.607 86.1019 93.3405 86.6541L92.9974 87.4306C92.4137 86.9902 91.6964 86.7639 90.9657 86.7895C88.4103 86.7895 87.4712 89.1192 87.4712 92.2074C87.4712 95.4039 88.636 97.7065 90.8935 97.7065C91.6393 97.7202 92.369 97.4887 92.9703 97.0473L93.3315 97.8871C92.5732 98.4215 91.6573 98.6855 90.7309 98.6366Z" fill="black"/>
<path d="M96.3926 83.4845C96.2301 83.4845 96.0712 83.4363 95.9361 83.346C95.8009 83.2557 95.6956 83.1274 95.6334 82.9772C95.5712 82.8271 95.5549 82.6619 95.5867 82.5025C95.6184 82.3431 95.6966 82.1967 95.8115 82.0817C95.9265 81.9668 96.0729 81.8886 96.2323 81.8569C96.3917 81.8251 96.5569 81.8414 96.707 81.9036C96.8572 81.9658 96.9855 82.0711 97.0758 82.2063C97.1661 82.3414 97.2143 82.5003 97.2143 82.6628C97.2143 82.8807 97.1277 83.0897 96.9736 83.2438C96.8195 83.3979 96.6105 83.4845 96.3926 83.4845ZM95.7785 98.4107V86.1031H97.0066V98.4107H95.7785Z" fill="black"/>
<path d="M107.165 98.4107V89.4532C107.165 88.1709 106.659 86.7442 104.221 86.7442C103.291 86.7012 102.364 86.8743 101.512 87.2499V98.4378H100.23V86.7442C101.516 86.0977 102.945 85.7871 104.384 85.8413C107.562 85.8413 108.375 87.8459 108.375 89.3538V98.3836H107.147L107.165 98.4107Z" fill="black"/>
<path d="M112.141 92.7942C112.321 96.063 113.829 97.6793 116.276 97.6793C117.305 97.706 118.323 97.4532 119.22 96.9479L119.608 97.8509C118.579 98.4011 117.425 98.6749 116.258 98.6455C113.287 98.6455 110.985 96.8396 110.985 92.2344C110.985 87.9001 113.062 85.9136 115.644 85.9136C118.227 85.9136 120.051 87.5841 120.051 91.6655L112.141 92.7942ZM115.581 86.7895C113.621 86.7895 112.086 88.2974 112.086 92.0357L118.795 91.0064C118.832 87.9362 117.595 86.7895 115.581 86.7895Z" fill="black"/>
<path d="M136.476 98.4111V89.4536C136.519 89.0874 136.479 88.716 136.358 88.3675C136.238 88.019 136.039 87.7025 135.779 87.4417C135.518 87.1809 135.201 86.9827 134.853 86.8619C134.504 86.7412 134.133 86.7011 133.767 86.7447C133.2 86.7318 132.637 86.8459 132.12 87.0787C131.603 87.3115 131.144 87.6571 130.778 88.0901V98.4111H129.55V89.3272C129.55 87.7741 128.502 86.7266 126.426 86.7266C125.536 86.6781 124.649 86.8519 123.843 87.2323V98.4201H122.606V86.7447C123.798 86.0894 125.148 85.7769 126.507 85.8417C127.209 85.7752 127.916 85.8868 128.563 86.1661C129.21 86.4455 129.776 86.8836 130.209 87.44C130.677 86.9259 131.249 86.5174 131.888 86.2418C132.526 85.9662 133.216 85.8298 133.911 85.8417C136.855 85.8417 137.704 87.8734 137.704 89.3543V98.384H136.476V98.4111Z" fill="black"/>
<path d="M144.476 98.6365C141.46 98.6365 140.16 97.2007 140.16 95.1239C140.16 91.8371 143.176 90.8348 147.031 90.4465V89.5977C147.031 87.3854 145.731 86.7714 144.043 86.7714C143.039 86.7879 142.057 87.0615 141.189 87.566L140.864 86.7443C141.884 86.175 143.028 85.865 144.196 85.8413C146.246 85.8413 148.214 86.7443 148.214 89.5887V97.7154C147.07 98.3439 145.781 98.6615 144.476 98.6365ZM147.031 91.1689C143.42 91.6474 141.37 92.3608 141.37 95.1149C141.37 97.0743 142.598 97.878 144.639 97.878C145.464 97.894 146.283 97.721 147.031 97.3723V91.1598V91.1689Z" fill="black"/>
<path d="M153.434 98.5915C152.391 98.6302 151.362 98.343 150.49 97.7698L150.86 96.8669C151.593 97.3824 152.476 97.6397 153.37 97.5983C153.717 97.6271 154.065 97.5835 154.394 97.4702C154.722 97.357 155.023 97.1765 155.278 96.9403C155.533 96.7041 155.736 96.4174 155.874 96.0985C156.012 95.7796 156.082 95.4354 156.079 95.088C156.079 93.6071 155.276 92.9841 153.795 92.4423C151.33 91.5393 150.869 90.248 150.869 88.9929C150.879 88.5596 150.977 88.1328 151.155 87.7379C151.333 87.343 151.59 86.9879 151.908 86.694C152.226 86.4 152.601 86.173 153.009 86.0266C153.416 85.8801 153.85 85.8172 154.282 85.8415C155.209 85.8349 156.113 86.1226 156.865 86.6632L156.495 87.4579C155.876 86.9894 155.122 86.7329 154.346 86.7264C154.035 86.7019 153.723 86.7435 153.43 86.8484C153.137 86.9533 152.869 87.1192 152.645 87.335C152.42 87.5509 152.244 87.8119 152.128 88.1007C152.012 88.3896 151.958 88.6999 151.971 89.011C151.971 90.3835 152.955 90.9975 154.255 91.4761C156.675 92.3791 157.271 93.6703 157.271 95.088C157.222 96.0597 156.791 96.9729 156.073 97.6289C155.354 98.2849 154.406 98.6308 153.434 98.5915Z" fill="black"/>
<path d="M4.76765 70.9876C4.51481 75.0059 9.49021 74.1029 11.5851 72.8478C13.9327 71.4314 15.7383 69.2698 16.714 66.7075C17.4533 64.2193 17.8274 61.637 17.8247 59.0413C17.9691 55.2307 17.9601 47.7812 17.9059 43.9706C20.5517 47.3839 22.0777 54.0839 22.0777 54.0839C22.159 54.3819 22.2402 54.6709 22.3215 54.9869C23.3148 58.4634 25.6173 61.6328 29.6446 60.7208C36.0196 59.2941 36.2725 50.8423 37.3199 45.7495C37.7251 43.666 38.2681 41.6118 38.9453 39.6002C39.4224 38.2234 39.9863 36.8783 40.6338 35.573C41.1657 34.4925 41.769 33.4488 42.4398 32.4487C46.2774 26.7599 52.1739 22.0554 59.0816 21.2337C64.1654 20.6287 69.1137 21.2337 73.3215 24.3038C74.3806 25.0816 75.3578 25.965 76.2381 26.9405C77.5356 28.4502 78.507 30.2117 79.0915 32.1146C77.6317 32.0709 76.177 31.92 74.7392 31.6631C69.9354 30.8414 67.091 28.295 63.145 25.8208C59.0636 23.3105 53.2755 28.0512 50.3047 30.6337C50.3047 30.6337 43.2795 37.2435 42.6565 47.1852C42.1922 53.31 43.8537 59.4076 47.361 64.4501C49.8915 67.9384 53.3257 70.6701 57.2937 72.3511C60.4874 73.6619 63.9009 74.3545 67.3529 74.3919C78.938 74.3919 92.6362 63.8993 93.1689 41.5145C93.1689 41.5145 95.9411 40.44 98.5868 39.0675C98.2888 40.8012 98.0721 42.6794 97.8915 44.395C97.2594 50.4179 96.4919 57.4069 96.2029 63.4388C95.9398 65.9911 96.0279 68.5676 96.4648 71.096C96.596 71.7092 96.8612 72.2858 97.2413 72.7846C97.6188 73.1909 98.0847 73.505 98.603 73.7023C99.1213 73.8996 99.6781 73.9749 100.23 73.9223C100.23 73.9223 105.332 74.5363 115.075 59.4747C117.197 56.1969 120.141 52.1335 122.434 48.9821C123.085 48.0792 123.708 47.1762 124.394 46.2732C125.297 45.1264 126.128 43.9797 127.012 42.8509C129.071 40.2233 131.184 37.6227 133.442 35.1486C133.848 34.6971 134.263 34.2456 134.688 33.8122L134.823 33.6677C135.663 32.8279 136.539 32.0062 137.424 31.2026C138.309 30.3989 139.23 29.6494 140.133 28.9C140.557 28.5568 140.981 28.2318 141.406 27.8977L142.219 27.3288C143.122 26.6786 144.124 26.0827 145.108 25.5228C145.587 25.2339 146.083 24.963 146.58 24.6921L147.347 24.3038C149.254 23.4221 151.229 22.6973 153.253 22.1367C157.779 20.9409 162.526 20.848 167.096 21.8658C176.36 23.9065 182.6 33.8212 181.435 43.2482C180.987 46.5123 179.809 49.6336 177.99 52.3802C176.17 55.1269 173.755 57.4283 170.924 59.1135C165.867 62.003 157.036 63.0324 152.946 56.4046C148.855 49.7768 154.689 41.8938 154.689 41.8938C155.321 40.9095 156.016 39.9614 156.72 39.0313C158.454 36.7107 160.757 33.9024 159.339 30.8052C157.533 26.8051 152.35 30.1822 150.309 31.9701C148.864 33.2538 147.535 34.6618 146.336 36.1779C144.965 37.8864 143.784 39.7394 142.815 41.7042C141.154 45.0573 140.157 48.7 139.88 52.4315C139.731 54.5192 139.804 56.6167 140.097 58.6891C140.651 63.1303 142.643 67.2684 145.767 70.4729C149.19 73.8501 154.147 74.6808 158.752 74.3557C164.216 73.8664 169.474 72.0331 174.057 69.0192C179.515 65.5595 184.257 61.0839 188.026 55.8357C189.072 54.3529 190.007 52.7956 190.826 51.1764C193.466 46.1012 194.908 40.4886 195.043 34.7693C195.043 26.0285 191.268 16.7098 183.665 11.8247C177.245 7.70714 169.66 6.80416 162.183 7.64393C160.148 7.88157 158.13 8.25259 156.142 8.75459C134.471 14.1724 116.791 37.3428 111.265 45.307C110.813 45.9301 110.596 46.2913 110.064 46.21C109.868 46.13 109.707 45.9842 109.608 45.7978C109.509 45.6114 109.479 45.3962 109.522 45.1896C110.109 35.275 114.678 25.3422 114.678 25.3422C114.84 24.9359 114.913 24.7914 115.093 24.4393L115.211 24.1774C115.581 23.3828 115.978 22.6062 116.357 21.8116C117.259 19.9537 117.868 17.9679 118.163 15.9242C118.488 13.4681 117.567 11.0752 114.633 11.2829C110.118 11.617 107.824 16.457 105.422 20.0508C102.406 24.5657 97.0156 29.0806 92.3924 30.426C86.3153 6.66872 65.0683 7.53557 65.0683 7.53557C37.0761 7.53557 29.1028 38.8869 29.1028 38.8869C25.9304 29.2377 20.6356 20.4223 13.6078 13.0889C12.983 12.3864 12.1736 11.8735 11.2716 11.6085C10.3697 11.3435 9.41141 11.3371 8.50597 11.5899C5.79704 12.3845 3.51251 14.7142 2.03163 17.089C0.388218 19.7438 -0.740502 21.8748 0.577842 25.0984C0.577842 25.0984 6.51942 37.9839 4.76765 70.9876ZM80.753 46.9504C80.4469 49.6179 79.6477 52.2052 78.3963 54.5806C78.0587 55.1805 77.6592 55.7435 77.2043 56.2601C75.7845 57.8309 73.9251 58.9383 71.8677 59.4386C71.2897 59.5778 70.7005 59.6654 70.1069 59.7005C68.8262 59.7923 67.5396 59.6422 66.3144 59.258C64.2842 58.5795 62.4326 57.453 60.8966 55.9621C59.5312 54.6766 58.3817 53.1796 57.4924 51.5285C56.7188 49.9755 56.1337 48.3354 55.7496 46.6434C55.3225 44.8284 55.1823 42.9576 55.3343 41.0992C55.3343 41.0269 55.3343 40.9547 55.3343 40.8915C61.944 46.3093 72.2741 46.5622 80.8343 45.2619C80.8394 45.8258 80.8123 46.3896 80.753 46.9504Z" fill="#FFDD00"/>
<path style="mix-blend-mode:multiply" d="M79.0915 32.1414C83.5972 32.3424 88.103 31.7463 92.4014 30.3806C86.3063 6.66842 65.0683 7.53527 65.0683 7.53527C37.0761 7.53527 29.1028 38.8866 29.1028 38.8866C25.9304 29.2374 20.6356 20.4221 13.6078 13.0886C12.983 12.3861 12.1736 11.8732 11.2716 11.6082C10.3697 11.3432 9.41141 11.3368 8.50597 11.5896C5.79704 12.3843 3.51251 14.7139 2.03163 17.0888C0.388218 19.7435 -0.740502 21.8745 0.577842 25.0981C0.577842 25.0981 6.51942 37.9836 4.76765 70.9874C4.51481 75.0056 9.49021 74.1026 11.5851 72.8475C13.9327 71.4312 15.7383 69.2695 16.714 66.7072C17.4533 64.219 17.8274 61.6367 17.8247 59.041C17.9691 55.2304 17.9601 47.7809 17.9059 43.9703C20.5517 47.3836 22.0777 54.0837 22.0777 54.0837C22.159 54.3816 22.2402 54.6706 22.3215 54.9866C23.3148 58.4631 25.6173 61.6325 29.6446 60.7205C36.0196 59.2938 36.2725 50.842 37.3199 45.7492C37.7251 43.6658 38.2681 41.6115 38.9453 39.5999C39.4224 38.2231 39.9863 36.878 40.6338 35.5727C41.1657 34.4922 41.769 33.4485 42.4398 32.4484C46.2774 26.7596 52.1739 22.0551 59.0816 21.2334C64.1654 20.6284 69.1137 21.2334 73.3215 24.3035C74.3806 25.0813 75.3578 25.9647 76.2381 26.9402C77.5356 28.4499 78.507 30.2114 79.0915 32.1143V32.1414Z" fill="url(#paint1_linear_60_43)"/>
<g style="mix-blend-mode:multiply">
<path d="M96.2752 63.4297C96.012 65.9821 96.1001 68.5585 96.5371 71.087C96.6683 71.7002 96.9334 72.2768 97.3136 72.7755C97.691 73.1819 98.1569 73.4959 98.6753 73.6932C99.1936 73.8905 99.7504 73.9658 100.302 73.9133C100.302 73.9133 105.404 74.5273 115.147 59.4657C117.269 56.1879 120.213 52.1245 122.507 48.9731C123.157 48.0701 123.78 47.1672 124.466 46.2642C125.369 45.1174 126.2 43.9706 127.085 42.8419C129.144 40.2142 131.256 37.6137 133.514 35.1395C133.92 34.688 134.336 34.2365 134.76 33.8031L134.895 33.6586C135.735 32.8189 136.611 31.9972 137.496 31.1935C138.381 30.3899 139.302 29.6404 140.205 28.8909C140.629 28.5478 141.054 28.2227 141.478 27.8886L142.291 27.3198C143.194 26.6696 144.196 26.0737 145.18 25.5138C145.659 25.2249 146.156 24.954 146.652 24.6831L147.42 24.2948C149.326 23.4131 151.301 22.6883 153.325 22.1277C157.851 20.9318 162.598 20.8389 167.168 21.8568C176.432 23.8975 182.672 33.8122 181.507 43.2392C181.059 46.5033 179.882 49.6246 178.062 52.3712C176.242 55.1178 173.827 57.4192 170.996 59.1045C165.94 61.994 157.109 63.0234 153.018 56.3956C148.928 49.7677 154.761 41.8848 154.761 41.8848C155.393 40.9005 156.088 39.9524 156.793 39.0223C158.526 36.7017 160.829 33.8934 159.411 30.7962C157.605 26.796 152.422 30.1732 150.381 31.9611C148.911 33.2445 147.557 34.6556 146.336 36.1779C144.965 37.8864 143.784 39.7394 142.815 41.7042C141.154 45.0573 140.157 48.7 139.88 52.4315C139.731 54.5192 139.804 56.6167 140.097 58.6891C140.651 63.1303 142.643 67.2684 145.767 70.4729C149.19 73.8501 154.147 74.6808 158.752 74.3557C164.216 73.8664 169.474 72.0331 174.057 69.0192C179.515 65.5595 184.257 61.0839 188.027 55.8357C189.072 54.3529 190.007 52.7956 190.826 51.1764C193.466 46.1012 194.908 40.4886 195.043 34.7693C195.043 26.0285 191.268 16.7098 183.665 11.8247C177.245 7.70714 169.66 6.80416 162.183 7.64393C160.148 7.88157 158.13 8.25259 156.142 8.75459C134.471 14.1724 116.791 37.3428 111.265 45.307C110.813 45.9301 110.596 46.2913 110.064 46.21C109.868 46.13 109.707 45.9842 109.608 45.7978C109.509 45.6114 109.479 45.3962 109.522 45.1896C110.109 35.275 114.678 25.3422 114.678 25.3422C114.84 24.9359 114.913 24.7914 115.093 24.4393L115.211 24.1774C115.581 23.3828 115.554 23.4911 115.924 22.6965C115.996 22.534 116.05 22.4437 116.123 22.2812C111.608 31.8527 98.6681 39.0765 98.6681 39.0765C98.3701 40.8102 98.1534 42.6884 97.9728 44.4041C97.3226 50.3998 96.5551 57.3888 96.2752 63.4297Z" fill="url(#paint2_linear_60_43)"/>
</g>
<path style="mix-blend-mode:multiply" d="M77.2043 56.269C77.6592 55.7523 78.0587 55.1894 78.3963 54.5895C79.6477 52.214 80.4469 49.6267 80.753 46.9593C80.8208 46.3779 80.854 45.7929 80.8524 45.2076C85.0784 44.3374 89.2162 43.0831 93.2141 41.4602C93.1913 47.4474 91.9019 53.362 89.4306 58.8154L77.2043 56.269Z" fill="url(#paint3_linear_60_43)"/>
<path d="M194.23 9.08862V12.7005H193.417V9.08862H192.27V8.43848H195.413L195.332 9.07959H194.23V9.08862Z" fill="black"/>
<path d="M199.214 12.7005L199.079 10.5785C199.079 10.0638 199.079 9.49496 199.079 9.26921L198.293 12.2581H197.517L196.695 9.26921C196.722 9.72933 196.722 10.1907 196.695 10.6508L196.496 12.7005H195.711L196.045 8.4746H197.083L197.851 11.4273L198.655 8.43848H199.702L200 12.7005H199.214Z" fill="black"/>
</g>
<defs>
<linearGradient id="paint0_linear_60_43" x1="23.8265" y1="-128.225" x2="-10.7408" y2="-158.021" gradientUnits="userSpaceOnUse">
<stop stop-color="#E63C2F"/>
<stop offset="0.15" stop-color="#EA5520"/>
<stop offset="0.33" stop-color="#EE6D12"/>
<stop offset="0.52" stop-color="#F17E08"/>
<stop offset="0.74" stop-color="#F28802"/>
<stop offset="1" stop-color="#F38B00"/>
</linearGradient>
<linearGradient id="paint1_linear_60_43" x1="61.1314" y1="58.2735" x2="27.4052" y2="29.1977" gradientUnits="userSpaceOnUse">
<stop stop-color="#CD9700"/>
<stop offset="0.08" stop-color="#D6A400" stop-opacity="0.81"/>
<stop offset="0.19" stop-color="#E1B300" stop-opacity="0.6"/>
<stop offset="0.31" stop-color="#EAC000" stop-opacity="0.41"/>
<stop offset="0.43" stop-color="#F2CB00" stop-opacity="0.26"/>
<stop offset="0.55" stop-color="#F8D300" stop-opacity="0.15"/>
<stop offset="0.68" stop-color="#FCD800" stop-opacity="0.06"/>
<stop offset="0.82" stop-color="#FEDC00" stop-opacity="0.02"/>
<stop offset="1" stop-color="#FFDD00" stop-opacity="0"/>
</linearGradient>
<linearGradient id="paint2_linear_60_43" x1="123.807" y1="20.3307" x2="139.365" y2="39.9524" gradientUnits="userSpaceOnUse">
<stop stop-color="#CD9700"/>
<stop offset="0.08" stop-color="#D6A400" stop-opacity="0.81"/>
<stop offset="0.19" stop-color="#E1B300" stop-opacity="0.6"/>
<stop offset="0.31" stop-color="#EAC000" stop-opacity="0.41"/>
<stop offset="0.43" stop-color="#F2CB00" stop-opacity="0.26"/>
<stop offset="0.55" stop-color="#F8D300" stop-opacity="0.15"/>
<stop offset="0.68" stop-color="#FCD800" stop-opacity="0.06"/>
<stop offset="0.82" stop-color="#FEDC00" stop-opacity="0.02"/>
<stop offset="1" stop-color="#FFDD00" stop-opacity="0"/>
</linearGradient>
<linearGradient id="paint3_linear_60_43" x1="82.9202" y1="43.4377" x2="88.7805" y2="57.3526" gradientUnits="userSpaceOnUse">
<stop stop-color="#CD9700"/>
<stop offset="0.11" stop-color="#DAA900" stop-opacity="0.74"/>
<stop offset="0.21" stop-color="#E5B900" stop-opacity="0.51"/>
<stop offset="0.32" stop-color="#EFC600" stop-opacity="0.33"/>
<stop offset="0.43" stop-color="#F6D000" stop-opacity="0.18"/>
<stop offset="0.53" stop-color="#FBD700" stop-opacity="0.08"/>
<stop offset="0.63" stop-color="#FEDC00" stop-opacity="0.02"/>
<stop offset="0.73" stop-color="#FFDD00" stop-opacity="0"/>
</linearGradient>
<clipPath id="clip0_60_43">
<rect width="200" height="105.883" fill="white" transform="translate(0 0.0585938)"/>
</clipPath>
</defs>
</svg>
