<svg width="120" height="23" viewBox="0 0 120 23" fill="none" xmlns="http://www.w3.org/2000/svg">
<path fill-rule="evenodd" clip-rule="evenodd" d="M0 0.547607V22.4241H4.86567V15.277L6.2914 15.2935L7.71665 15.3102L9.80936 18.8672L11.9019 22.4243H17.4867L15.0538 18.3825C13.7156 16.1595 12.6293 14.3372 12.6391 14.3326C13.4627 13.9734 14.3115 13.4063 14.904 12.8194C15.82 11.912 16.3657 10.8794 16.6699 9.47689C16.8251 8.76267 16.8255 6.91376 16.6711 6.14166C16.0598 3.08724 14.0095 1.29793 10.4393 0.70373C9.91276 0.615968 9.11643 0.597629 4.91184 0.574461L0 0.547607ZM4.86567 4.80836H6.86219C8.97693 4.80836 9.40772 4.84888 10.1163 5.1152C10.5793 5.28917 11.1288 5.71087 11.3805 6.0855C11.7301 6.60569 11.8405 6.98024 11.8737 7.75725C11.9224 8.90217 11.7057 9.54992 11.0567 10.1984C10.6162 10.6387 10.2191 10.8628 9.56678 11.0397C9.13305 11.1572 8.87795 11.1731 7.0215 11.1982C5.88657 11.2136 4.9373 11.205 4.91184 11.1792C4.88646 11.1533 4.86567 9.70923 4.86567 7.97027V4.80836Z" fill="#DC1C2E"/>
<path fill-rule="evenodd" clip-rule="evenodd" d="M36.3583 22.3477C36.3759 22.3051 38.9661 17.3917 42.1147 11.4297L47.8398 0.589203L50.8124 0.573321C53.1833 0.560631 53.7785 0.573074 53.7531 0.634885C53.7351 0.677374 51.1439 5.59077 47.9945 11.5528L42.2686 22.3934L39.2976 22.4093C36.9276 22.422 36.3329 22.4095 36.3583 22.3477Z" fill="#003DA5"/>
<path fill-rule="evenodd" clip-rule="evenodd" d="M86.0616 0.435059L85.9944 0.604607C85.9568 0.697692 85.0415 3.1435 83.96 6.04016C82.8777 8.93649 81.0619 13.7954 79.9239 16.8377C78.786 19.8796 77.8551 22.3811 77.8551 22.3963C77.8551 22.4117 78.9562 22.4239 80.303 22.4237L82.7516 22.4232L83.0079 21.7C83.1487 21.3022 83.5204 20.2493 83.8331 19.3599L84.4013 17.7431H88.2728C90.4022 17.7431 92.1444 17.7503 92.1444 17.759C92.1444 17.8027 93.7965 22.3716 93.821 22.3965C93.8374 22.4124 94.9746 22.4183 96.3491 22.4093L98.8486 22.3932L97.1907 17.9584C96.2779 15.5192 94.4309 10.5787 93.085 6.97935L90.6372 0.435059H86.0616ZM88.2614 6.94857C88.2957 6.90829 90.611 13.4479 90.6061 13.5702C90.6052 13.5955 89.5508 13.6163 88.2638 13.6163C86.976 13.6163 85.9224 13.5955 85.9224 13.5702C85.9199 13.5007 88.2163 7.00211 88.2614 6.94857Z" fill="#DC1C2E"/>
<path fill-rule="evenodd" clip-rule="evenodd" d="M101.284 21.5778C107.523 11.3625 107.548 11.3221 107.452 11.1772C107.243 10.8587 101.075 0.616725 101.075 0.58889C101.075 0.572025 102.316 0.558108 103.833 0.558108H106.592L108.478 3.9901C109.516 5.87757 110.389 7.42988 110.417 7.43962C110.445 7.4492 111.325 5.92547 112.371 4.05388C113.415 2.18221 114.291 0.62966 114.313 0.60379C114.337 0.57792 115.566 0.564248 117.045 0.573008L119.732 0.589135L117.883 3.60721C116.864 5.26725 115.42 7.62317 114.671 8.84259C113.924 10.0621 113.284 11.1047 113.251 11.1592C113.188 11.2618 113.306 11.4702 114.995 14.232C115.358 14.8247 116.591 16.8481 117.736 18.7283C118.881 20.6084 119.858 22.2094 119.908 22.2861L120 22.4253L117.208 22.4095L114.417 22.3933L112.403 18.792C111.294 16.8114 110.363 15.183 110.335 15.1729C110.304 15.1631 110.108 15.4671 109.897 15.8485C109.685 16.2299 108.769 17.8584 107.86 19.4676L106.206 22.3933L103.486 22.4095L100.766 22.4253L101.284 21.5778ZM74.0359 22.4239H69.2933V15.6486C69.2933 11.9222 69.272 8.87436 69.2466 8.87559C69.2213 8.87706 68.0374 10.4024 66.6162 12.2657C64.7521 14.7084 64.0022 15.6486 63.9252 15.6357C63.8663 15.6257 62.6595 14.1081 61.2432 12.2631L58.6685 8.90858L58.6529 15.6662L58.6365 22.4239H53.8947V10.1012L56.3974 5.36033C57.7736 2.75299 58.919 0.619427 58.9419 0.619427C58.9656 0.619427 59.235 0.97277 59.542 1.40471C60.0651 2.14267 62.6644 5.81552 63.5511 7.07137C63.7729 7.38468 63.9702 7.63995 63.9907 7.6388C64.0103 7.63733 65.1352 6.04401 66.491 4.09784L68.9544 0.559335L74.0359 0.557861V22.4236V22.4239ZM36.8947 4.80813H26.9165V9.30441H35.6628V13.5544H26.9165V18.2354H30.1811C31.9765 18.2354 33.4457 18.2486 33.4457 18.265C33.4457 18.2926 31.9814 21.0856 31.4834 22.0077L31.2591 22.4231L26.655 22.4236L22.051 22.4241V0.558353H36.8952V4.80837L36.8947 4.80813Z" fill="#DC1C2E"/>
</svg>
