<svg width="251" height="46" viewBox="0 0 251 46" fill="none" xmlns="http://www.w3.org/2000/svg">
<g clip-path="url(#clip0_60_35)">
<path d="M165.817 32.5987C162.737 32.5987 161.268 32.4554 161.268 29.2677C161.268 25.5428 167.393 26.5457 170.33 24.9697C170.33 27.5844 170.867 32.5987 165.817 32.5987ZM212.522 32.1331C204.463 32.1331 204.857 16.8752 211.841 16.8752C216.641 16.8752 218.145 20.5285 218.002 24.4683C217.894 27.8709 216.712 32.1331 212.522 32.1331ZM154.857 27.1546H150.094C149.592 28.2291 149.7 29.805 147.945 31.166C147.622 31.3809 147.336 31.56 147.049 31.6675C137.988 35.5715 136.698 16.911 144.649 16.911C147.407 16.911 149.592 18.1288 149.664 20.9583L155.681 20.9941C156.899 20.9583 156.433 21.0299 156.361 20.0271H162.092C162.092 16.0156 165.531 16.4812 167.572 16.4812C170.473 16.4812 170.437 18.5586 170.437 20.0271C170.437 22.8566 161.483 21.7463 157.579 24.1101C156.039 24.8981 155.645 25.6503 154.857 27.1546ZM126.025 3.76631V35.9296C126.025 36.4669 126.168 36.6101 126.741 36.6101H132.937V28.5514C133.26 29.0528 133.546 30.6288 134.513 31.9898C138.883 38.3652 147.694 38.8666 152.995 34.5686C153.926 33.7806 154.284 33.3867 154.857 32.5987C155.896 37.0041 162.307 38.2577 167.357 36.5027C169.112 35.8938 169.47 35.2133 170.831 34.497C170.831 35.464 170.867 36.646 171.798 36.646H184.657V23.0715C184.657 17.9855 187.021 17.1259 190.387 17.1259C191.963 17.1259 193.074 18.5944 193.432 19.8122C193.933 21.3523 193.754 31.6316 193.718 34.3179C193.682 37.2907 192.751 36.6818 200.631 36.6818V29.9841L202.135 32.7778C203.281 34.497 204.893 35.9655 206.863 36.646C211.34 38.2577 215.029 37.2548 218.038 33.8165V36.6818H224.449V18.5586L229.356 31.4884C230.144 33.5657 232.651 38.6875 228.675 39.4397C227.78 39.6187 225.774 39.2606 224.413 39.2606C224.413 45.3852 223.41 45.7792 230.18 45.0271C236.627 44.2749 236.77 40.4783 239.492 33.1001C240.029 31.6675 246.978 13.4368 247.085 12.3265H240.172L234.692 28.3007C234.621 27.2262 231.326 17.8422 230.717 16.0514C230.466 15.2634 230.323 14.8695 230.072 14.0815C229.392 11.8609 230.287 12.2907 224.413 12.2907V3.04998H217.751V14.9769C216.247 13.974 215.137 11.646 210.337 11.646C202.637 11.646 201.276 18.3437 200.344 19.0242C200.344 12.0041 192.572 10.1417 187.379 12.7563C185.767 13.5442 185.624 14.368 184.406 15.1918V12.3265H177.744L177.529 35.2133C177.529 33.6732 177.278 33.0643 177.278 31.3809L177.314 18.4869C177.243 8.88809 157.472 10.0342 155.824 17.0543C155.43 16.8394 155.323 16.6245 154.857 16.123C151.419 10.6431 137.665 8.17175 133.367 19.6331L132.937 3.01416H126.741C126.168 3.04998 126.025 3.22906 126.025 3.76631Z" fill="black"/>
<path d="M47.3715 11.8608C47.3715 17.699 50.201 19.9196 55.8959 21.6746C60.6236 23.1431 67.1423 23.2863 67.1423 27.8351C67.1423 32.3838 53.5678 33.8522 53.5678 25.4712H46.1537C46.1537 33.2792 52.6007 37.3981 59.5133 37.3981C65.638 37.3981 70.6881 36.431 73.5534 30.9511L73.8042 36.6818H80.7168V28.5514C80.7168 27.8709 82.5792 26.2949 83.0807 25.9368L87.9875 33.8881C88.489 34.7477 89.3128 35.7863 89.5277 36.6459H97.8729C96.9059 34.8551 87.9875 22.2118 87.8801 20.9225C88.883 20.6717 94.1838 15.0485 95.2583 14.0098C95.2583 19.1674 94.936 25.0055 95.4732 29.7692C96.0463 34.9267 99.1623 37.3623 104.069 37.3623C107.579 37.3623 109.657 35.6431 111.698 33.315V36.6459H118.145V12.3265H111.233V26.6173C111.233 33.1717 102.171 34.3179 102.171 26.6173V12.3265H89.2769C88.0592 12.3265 82.1136 19.7405 80.7168 20.6717V3.04996H73.8042V22.8207C73.3027 22.2477 73.052 21.5313 72.2999 20.7434C70.2583 18.5944 68.0735 17.8422 65.1007 16.9826C62.8443 16.3379 54.7139 14.9053 54.7139 12.8279C54.7139 11.2161 54.499 10.0342 56.1466 8.99552C57.7583 8.02847 64.3128 7.27632 65.6738 11.3952C66.4618 13.7591 64.2769 13.2935 73.3385 13.2935C73.3385 -2.00019 47.3715 -0.280988 47.3715 11.8608Z" fill="black"/>
<path d="M32.83 20.2422C31.3257 16.2307 26.6337 15.6576 26.6337 12.5774C26.6337 9.42553 30.6451 3.51579 24.8428 1.51006C23.5534 1.11608 22.1208 0.793729 20.5807 0.686279H16.999C14.4918 0.901179 12.0205 1.54588 10.1222 2.76364C6.4331 5.05591 4.24829 9.21064 3.20961 13.4728C2.49327 16.2665 0.666626 17.4843 0.666626 19.9556C0.666626 21.5674 1.23969 23.2507 2.35001 22.6061C3.85431 21.7465 1.41878 19.49 3.99757 19.49C6.07494 19.49 8.25975 22.5702 9.19098 24.0745C10.0864 25.5788 10.2297 25.7937 9.15516 27.2264C7.32852 29.5903 5.68095 30.1275 3.49614 27.6562C2.45746 26.5101 2.99471 25.5072 2.35001 24.2536C-0.407873 24.4685 1.95602 29.447 3.46032 30.7722L5.5735 32.4914C8.00903 34.3539 10.0148 39.0101 10.3729 39.3682C11.1967 40.192 11.8056 40.1204 13.2741 40.2636C15.1365 40.4427 14.4202 41.1949 15.2082 42.3768C16.6408 42.2336 16.7483 41.6247 16.8557 40.2278C18.754 40.7293 16.2469 42.1261 19.4704 42.1261C20.5448 42.1261 20.7956 40.8009 20.903 39.7264C21.1179 37.3625 23.3385 37.649 27.3858 34.0674C31.7196 30.3424 35.1222 26.4026 32.83 20.2422ZM14.4918 34.0316C13.2383 33.6018 11.5549 33.9599 9.94313 34.0674C9.79986 33.3869 9.72823 33.5659 9.72823 33.1003C9.72823 31.5602 11.0534 28.9456 11.6265 27.8353L14.5635 31.0946C15.4589 32.1691 16.7483 33.2436 17.1065 34.7121C14.9575 35.2493 16.3543 34.6763 14.4918 34.0316ZM23.3027 30.235C17.9302 30.235 15.6022 23.8238 18.8257 20.0631C22.0491 16.3023 28.9976 18.0573 29.1408 24.0745C29.2483 27.3338 26.6337 30.235 23.3027 30.235Z" fill="black"/>
<path d="M118.611 3.76638V35.9297C118.611 36.467 118.79 36.6102 119.327 36.6102H125.523V3.05005H119.327C118.79 3.05005 118.611 3.22913 118.611 3.76638Z" fill="black"/>
<path d="M244.936 34.9985C247.407 34.9985 249.413 37.0043 249.413 39.4756C249.413 41.947 247.443 43.9527 244.936 43.9527C242.465 43.9527 240.459 41.9828 240.459 39.4756C240.495 37.0043 242.465 34.9985 244.936 34.9985ZM244.936 35.679C247.049 35.679 248.768 37.3982 248.768 39.5114C248.768 41.6246 247.049 43.3438 244.936 43.3438C242.823 43.3438 241.104 41.6246 241.104 39.5114C241.139 37.3624 242.823 35.679 244.936 35.679Z" fill="black" stroke="black" stroke-width="2.48743"/>
<path d="M243.096 40.8037V36.709H244.836C245.274 36.709 245.591 36.7463 245.788 36.8208C245.988 36.8934 246.147 37.0237 246.266 37.2118C246.385 37.3999 246.445 37.6149 246.445 37.857C246.445 38.1642 246.354 38.4184 246.174 38.6195C245.993 38.8188 245.723 38.9444 245.364 38.9966C245.543 39.1009 245.69 39.2154 245.805 39.3401C245.922 39.4649 246.08 39.6865 246.277 40.0049L246.777 40.8037H245.788L245.191 39.9127C244.978 39.5943 244.833 39.3941 244.755 39.3122C244.677 39.2284 244.594 39.1716 244.506 39.1418C244.419 39.1102 244.28 39.0943 244.09 39.0943H243.923V40.8037H243.096ZM243.923 38.4408H244.534C244.931 38.4408 245.179 38.424 245.277 38.3905C245.376 38.357 245.453 38.2992 245.509 38.2173C245.565 38.1354 245.593 38.033 245.593 37.9101C245.593 37.7723 245.556 37.6615 245.481 37.5777C245.409 37.492 245.305 37.438 245.171 37.4157C245.104 37.4064 244.903 37.4017 244.568 37.4017H243.923V38.4408Z" fill="black"/>
</g>
<defs>
<clipPath id="clip0_60_35">
<rect width="250" height="44.6275" fill="white" transform="translate(0.666626 0.686279)"/>
</clipPath>
</defs>
</svg>
