<svg width="201" height="86" viewBox="0 0 201 86" fill="none" xmlns="http://www.w3.org/2000/svg">
<path d="M52.5767 9.55054L31.6648 23.7132L49.7893 23.4167L47.6779 34.1989H12.4728L15.9363 23.6065L38.3547 9.33701L20.5742 9.39634L22.9465 2.3624C23.1126 1.87607 23.4447 1.4728 23.9666 1.12882C24.4767 0.796693 24.9393 0.630615 25.3188 0.630615H25.3545L54.3205 0.713655L52.5767 9.55054Z" fill="#64CAED"/>
<path d="M75.529 8.2933L75.1374 11.9823H92.2892L91.981 20.3803L74.2478 20.3447L73.7615 24.8402H91.886L91.4827 34.199H60.6901L65.7549 0.701904H92.6926L92.4198 8.23401L75.529 8.2933Z" fill="#64CAED"/>
<path d="M128.598 20.0241C128.598 20.0241 131.136 17.9246 132.061 16.1217C135.169 10.0248 130.744 4.04661 128.206 2.57578C126.154 1.37776 123.9 0.689785 120.283 0.5H104.388L104.874 34.2106H115.894L115.324 23.5707H118.148L126.747 34.2106H140.175L128.598 20.0241ZM123.224 11.8634C123.07 12.9191 122.596 13.7019 121.801 14.1764C119.357 15.6354 114.352 15.41 114.352 15.41L113.889 7.07129L117.958 6.91712C119.547 6.91712 120.793 7.23736 121.694 7.90161C122.145 8.23374 122.501 8.63702 122.762 9.11148C122.785 9.14706 122.809 9.19453 122.821 9.24197C123.046 9.69271 123.177 10.2146 123.236 10.7958C123.284 11.1873 123.272 11.5431 123.224 11.8634Z" fill="#64CAED"/>
<path d="M145.465 16.4065C144.895 13.2869 145.216 10.4638 146.39 7.93728C147.541 5.45822 149.332 3.52477 151.763 2.11325C154.159 0.713582 156.935 0.0256348 160.126 0.0256348C163.316 0.0256348 166.448 0.713582 169.591 2.11325C172.77 3.52477 175.569 5.45822 178.001 7.93728C180.492 10.4638 182.271 13.2869 183.327 16.4065C184.406 19.6091 184.56 22.6456 183.742 25.5043C182.912 28.4222 181.227 30.7945 178.677 32.5856C176.091 34.4005 172.96 35.3138 169.283 35.3138C165.606 35.3138 162.012 34.4005 158.501 32.5856C155.049 30.7945 152.143 28.4341 149.782 25.5043C147.469 22.6456 146.046 19.6091 145.465 16.4065ZM172.296 15.9794C171.892 14.6153 171.157 13.3817 170.089 12.2668C169.034 11.1636 167.8 10.2859 166.389 9.63348C164.989 8.98109 163.601 8.66086 162.201 8.66086C160.731 8.66086 159.473 8.98109 158.406 9.63348C157.338 10.2859 156.579 11.1636 156.128 12.2668C155.666 13.3817 155.594 14.6272 155.903 15.9794C156.211 17.3554 156.864 18.6483 157.872 19.8344C158.88 21.0443 160.126 22.0051 161.585 22.7287C163.055 23.4522 164.574 23.82 166.127 23.82C167.622 23.82 168.915 23.4522 170.006 22.7287C171.097 22.0051 171.845 21.0443 172.272 19.8344C172.687 18.6364 172.699 17.3554 172.296 15.9794Z" fill="#64CAED"/>
<path d="M28.5333 79.854C12.8167 77.0428 3.82573 74.3146 3.46988 74.2078C3.45802 74.2078 3.45801 74.2078 3.45801 74.2078C3.45801 74.2078 2.56826 73.935 2.14125 73.8045C1.56003 73.6503 1.14494 73.2945 0.872123 72.737C0.599307 72.1795 0.587387 71.5627 0.812757 70.8866C3.79001 62.2632 11.5475 39.7737 11.5475 39.7737H22.4601L14.9281 64.2678L31.8546 66.5808L28.5333 79.854Z" fill="#64CAED"/>
<path d="M106.76 51.73C106.76 51.73 98.8131 51.7419 96.3222 51.73C96.2036 58.8233 95.7766 85.9744 95.7766 85.9744C91.4353 85.927 87.2244 85.8202 83.1321 85.6541L85.5638 51.6589C82.9898 51.6352 74.8884 51.6589 74.8884 51.6589L76.1102 39.7617H106.559L106.76 51.73Z" fill="#64CAED"/>
<path d="M63.0979 39.7617L56.408 83.7444C51.8887 83.2818 47.6186 82.7599 43.6213 82.2143L51.9363 39.7617H63.0979Z" fill="#64CAED"/>
<path d="M147.173 63.6509C148.466 62.3461 149.438 60.9702 150.091 59.5349C151.111 57.5185 151.135 53.6753 150.458 51.0776C149.474 46.9854 147.315 44.3759 144.563 42.5254C142.464 41.1258 139.688 40.2006 136.236 39.8922C135.489 39.821 134.422 39.7736 133.603 39.7617H119.168L122.56 85.9744L134.979 85.6541C134.979 85.6541 133.235 68.953 133.235 68.8463C133.271 68.8344 135.584 68.5498 136.509 68.3007L146.615 83.5665C151.016 83.092 155.179 82.5701 159.082 82.0245L147.173 63.6509ZM138.229 57.1745C136.403 59.0605 130.804 59.0605 130.768 59.0605C130.768 59.0605 129.57 48.4206 129.546 48.2309C132.156 48.3139 135.703 47.5785 137.719 49.3577C139.866 50.8523 140.056 55.2885 138.229 57.1745Z" fill="#64CAED"/>
<path d="M200.443 72.7249C200.182 73.318 199.767 73.6976 199.198 73.8518C198.747 73.9704 198.296 74.0891 197.845 74.1958C197.845 74.1958 187.716 77.2205 171.904 79.9961L162.154 40.0582L190.04 40.0107L192.626 47.6496L175.439 48.5392C175.83 49.9033 176.222 51.2792 176.613 52.667C180.99 52.3586 193.801 51.1369 193.801 51.1369L196.707 59.7128L179.282 62.0139C179.757 63.6627 180.231 65.3352 180.717 67.0314L198.201 64.1016L200.491 70.8627C200.728 71.5151 200.704 72.1319 200.443 72.7249Z" fill="#64CAED"/>
</svg>
