<svg width="40" height="48" viewBox="0 0 40 48" fill="none" xmlns="http://www.w3.org/2000/svg">
<g clip-path="url(#clip0_269_669)">
<path d="M2 6H38C38.5304 6 39.0391 6.21071 39.4142 6.58579C39.7893 6.96086 40 7.46957 40 8V40C40 40.5304 39.7893 41.0391 39.4142 41.4142C39.0391 41.7893 38.5304 42 38 42H2C1.46957 42 0.960859 41.7893 0.585786 41.4142C0.210714 41.0391 0 40.5304 0 40V8C0 7.46957 0.210714 6.96086 0.585786 6.58579C0.960859 6.21071 1.46957 6 2 6ZM36 14.476L20.144 28.676L4 14.432V38H36V14.476ZM5.022 10L20.122 23.324L35.004 10H5.022Z" fill="#1C1C1C"/>
</g>
<defs>
<clipPath id="clip0_269_669">
<rect width="40" height="48" fill="white"/>
</clipPath>
</defs>
</svg>
