<svg width="24" height="24" viewBox="0 0 24 24" fill="none" xmlns="http://www.w3.org/2000/svg">
<path d="M12 2.46878C15.204 2.46878 15.5834 2.4804 16.8491 2.53631C17.6102 2.54534 18.3639 2.68071 19.0777 2.93655C19.5953 3.12994 20.0654 3.42619 20.4577 3.80623C20.85 4.18627 21.1558 4.64167 21.3554 5.14313C21.6195 5.83462 21.7593 6.56486 21.7686 7.3021C21.8257 8.52828 21.8383 8.89586 21.8383 11.9998C21.8383 15.1037 21.8263 15.4713 21.7686 16.6975C21.7593 17.4347 21.6195 18.165 21.3554 18.8565C21.1558 19.3579 20.85 19.8133 20.4577 20.1934C20.0654 20.5734 19.5953 20.8696 19.0777 21.063C18.3639 21.3189 17.6102 21.4543 16.8491 21.4633C15.584 21.5186 15.2046 21.5308 12 21.5308C8.79543 21.5308 8.416 21.5192 7.15086 21.4633C6.38985 21.4543 5.63607 21.3189 4.92229 21.063C4.40466 20.8696 3.93458 20.5734 3.54229 20.1934C3.15 19.8133 2.8442 19.3579 2.64457 18.8565C2.38048 18.165 2.24074 17.4347 2.23143 16.6975C2.17429 15.4713 2.16171 15.1037 2.16171 11.9998C2.16171 8.89586 2.17371 8.52828 2.23143 7.3021C2.24074 6.56486 2.38048 5.83462 2.64457 5.14313C2.8442 4.64167 3.15 4.18627 3.54229 3.80623C3.93458 3.42619 4.40466 3.12994 4.92229 2.93655C5.63607 2.68071 6.38985 2.54534 7.15086 2.53631C8.41657 2.48096 8.796 2.46878 12 2.46878ZM12 0.374023C8.74286 0.374023 8.33257 0.387309 7.05257 0.443775C6.0566 0.462966 5.0712 0.645655 4.13829 0.984071C3.338 1.27618 2.61314 1.73393 2.01429 2.3254C1.4032 2.90576 0.930282 3.60838 0.628571 4.38417C0.279246 5.28795 0.0906674 6.24257 0.0708572 7.20744C0.0137143 8.44635 0 8.84382 0 11.9992C0 15.1547 0.0137142 15.5521 0.072 16.7922C0.0918102 17.757 0.280389 18.7116 0.629714 19.6154C0.93109 20.3911 1.40361 21.0937 2.01429 21.6742C2.61347 22.2658 3.33873 22.7236 4.13943 23.0155C5.07234 23.3539 6.05774 23.5366 7.05371 23.5558C8.33371 23.6112 8.74229 23.6256 12.0011 23.6256C15.26 23.6256 15.6686 23.6123 16.9486 23.5558C17.9445 23.5366 18.9299 23.3539 19.8629 23.0155C20.6598 22.7163 21.3834 22.2592 21.9876 21.6735C22.5917 21.0879 23.0631 20.3865 23.3714 19.6143C23.7208 18.7105 23.9093 17.7559 23.9291 16.791C23.9863 15.5521 24 15.1547 24 11.9992C24 8.84382 23.9863 8.44635 23.928 7.20633C23.9082 6.24146 23.7196 5.28684 23.3703 4.38306C23.0689 3.60737 22.5964 2.90476 21.9857 2.32429C21.3865 1.73269 20.6613 1.27493 19.8606 0.982963C18.9277 0.644548 17.9423 0.461859 16.9463 0.442668C15.6674 0.387309 15.2571 0.374023 12 0.374023Z" fill="#1C1C1C"/>
<path d="M11.9978 6.02979C10.779 6.02979 9.5876 6.37991 8.57422 7.03588C7.56083 7.69186 6.771 8.62421 6.30459 9.71506C5.83818 10.8059 5.71615 12.0062 5.95392 13.1643C6.19169 14.3223 6.77859 15.386 7.64041 16.2209C8.50222 17.0558 9.60023 17.6244 10.7956 17.8547C11.991 18.0851 13.23 17.9669 14.356 17.515C15.482 17.0632 16.4444 16.298 17.1216 15.3163C17.7987 14.3345 18.1601 13.1803 18.1601 11.9996C18.1601 10.4163 17.5108 8.89787 16.3552 7.77831C15.1995 6.65875 13.6321 6.02979 11.9978 6.02979ZM11.9978 15.8747C11.2067 15.8747 10.4333 15.6474 9.77552 15.2216C9.11772 14.7958 8.60503 14.1906 8.30228 13.4825C7.99953 12.7745 7.92032 11.9953 8.07466 11.2436C8.229 10.4919 8.60996 9.80146 9.16937 9.25952C9.72878 8.71758 10.4415 8.34852 11.2174 8.199C11.9934 8.04948 12.7976 8.12622 13.5285 8.41951C14.2594 8.71281 14.8842 9.20948 15.3237 9.84674C15.7632 10.484 15.9978 11.2332 15.9978 11.9996C15.9978 13.0273 15.5764 14.013 14.8262 14.7397C14.0761 15.4664 13.0587 15.8747 11.9978 15.8747Z" fill="#1C1C1C"/>
<path d="M18.4044 7.18849C19.1997 7.18849 19.8444 6.56392 19.8444 5.79346C19.8444 5.02301 19.1997 4.39844 18.4044 4.39844C17.6091 4.39844 16.9644 5.02301 16.9644 5.79346C16.9644 6.56392 17.6091 7.18849 18.4044 7.18849Z" fill="#1C1C1C"/>
</svg>
