<svg width="36" height="48" viewBox="0 0 36 48" fill="none" xmlns="http://www.w3.org/2000/svg">
<g clip-path="url(#clip0_269_1728)">
<path d="M18 47.4561L5.27201 34.7281C2.75469 32.2107 1.04037 29.0034 0.345857 25.5118C-0.348659 22.0201 0.00781369 18.4009 1.3702 15.1119C2.73258 11.8228 5.03969 9.01163 7.99977 7.03378C10.9598 5.05592 14.44 4.00024 18 4.00024C21.5601 4.00024 25.0402 5.05592 28.0002 7.03378C30.9603 9.01163 33.2674 11.8228 34.6298 15.1119C35.9922 18.4009 36.3487 22.0201 35.6542 25.5118C34.9596 29.0034 33.2453 32.2107 30.728 34.7281L18 47.4561ZM27.9 31.9001C29.8578 29.9421 31.191 27.4475 31.7311 24.7318C32.2712 22.0161 31.9939 19.2013 30.9342 16.6432C29.8745 14.0851 28.0801 11.8987 25.7778 10.3604C23.4756 8.82215 20.7689 8.0011 18 8.0011C15.2311 8.0011 12.5244 8.82215 10.2222 10.3604C7.91992 11.8987 6.1255 14.0851 5.06583 16.6432C4.00616 19.2013 3.72883 22.0161 4.26891 24.7318C4.80899 27.4475 6.14222 29.9421 8.10001 31.9001L18 41.8001L27.9 31.9001ZM18 26.0001C16.9391 26.0001 15.9217 25.5787 15.1716 24.8285C14.4214 24.0784 14 23.061 14 22.0001C14 20.9392 14.4214 19.9218 15.1716 19.1717C15.9217 18.4215 16.9391 18.0001 18 18.0001C19.0609 18.0001 20.0783 18.4215 20.8284 19.1717C21.5786 19.9218 22 20.9392 22 22.0001C22 23.061 21.5786 24.0784 20.8284 24.8285C20.0783 25.5787 19.0609 26.0001 18 26.0001Z" fill="#1C1C1C"/>
</g>
<defs>
<clipPath id="clip0_269_1728">
<rect width="36" height="48" fill="white"/>
</clipPath>
</defs>
</svg>
