<svg width="21" height="20" viewBox="0 0 21 20" fill="none" xmlns="http://www.w3.org/2000/svg">
<path d="M10.4465 20C4.92349 20 0.446487 15.523 0.446487 10C0.446487 4.477 4.92349 0 10.4465 0C15.9695 0 20.4465 4.477 20.4465 10C20.4465 15.523 15.9695 20 10.4465 20ZM8.15649 17.667C7.1699 15.5743 6.59836 13.3102 6.47349 11H2.50849C2.70307 12.5389 3.34041 13.9882 4.34306 15.1717C5.3457 16.3552 6.6705 17.2221 8.15649 17.667ZM8.47649 11C8.62749 13.439 9.32449 15.73 10.4465 17.752C11.5988 15.6766 12.2719 13.3695 12.4165 11H8.47649ZM18.3845 11H14.4195C14.2946 13.3102 13.7231 15.5743 12.7365 17.667C14.2225 17.2221 15.5473 16.3552 16.5499 15.1717C17.5526 13.9882 18.1899 12.5389 18.3845 11ZM2.50849 9H6.47349C6.59836 6.68979 7.1699 4.42569 8.15649 2.333C6.6705 2.77788 5.3457 3.64475 4.34306 4.8283C3.34041 6.01184 2.70307 7.4611 2.50849 9ZM8.47749 9H12.4155C12.2712 6.6306 11.5985 4.32353 10.4465 2.248C9.29417 4.32345 8.62104 6.63052 8.47649 9H8.47749ZM12.7365 2.333C13.7231 4.42569 14.2946 6.68979 14.4195 9H18.3845C18.1899 7.4611 17.5526 6.01184 16.5499 4.8283C15.5473 3.64475 14.2225 2.77788 12.7365 2.333Z" fill="white"/>
</svg>
