<svg width="48" height="28" viewBox="0 0 48 28" fill="none" xmlns="http://www.w3.org/2000/svg">
<g clip-path="url(#clip0_115_2400)">
<mask id="mask0_115_2400" style="mask-type:alpha" maskUnits="userSpaceOnUse" x="0" y="0" width="48" height="28">
<path d="M48 0.270508H0V27.6991H48V0.270508Z" fill="white"/>
</mask>
<g mask="url(#mask0_115_2400)">
<path d="M39.9755 7.52074C41.4182 5.60585 43.4239 5.59686 43.4239 5.59686C43.4239 5.59686 43.7208 7.39117 42.2887 9.12963C40.7589 10.9807 39.0206 10.6777 39.0206 10.6777C39.0206 10.6777 38.6928 9.2223 39.9755 7.52074ZM39.203 11.9387C39.9456 11.9387 41.3222 10.9119 43.1157 10.9119C46.2028 10.9119 47.4168 13.1229 47.4168 13.1229C46.6889 13.5476 46.0859 14.1587 45.6683 14.894C45.2507 15.6293 45.034 16.4627 45.0401 17.3095C45.0401 20.6549 47.9983 21.8072 47.9983 21.8072C47.9983 21.8072 45.9295 27.6655 43.1366 27.6655C41.8492 27.6655 40.8587 26.7953 39.504 26.7953C38.1264 26.7953 36.7595 27.6974 35.8694 27.6974C33.3181 27.6974 30.0964 22.1401 30.0964 17.6734C30.0964 13.2774 32.8239 10.9717 35.3822 10.9717C37.0447 10.9717 38.3363 11.9377 39.2009 11.9377L39.203 11.9387Z" fill="black"/>
<path d="M8.18602 16.6473C8.6294 16.6473 9.05461 16.8246 9.36812 17.1401C9.68163 17.4557 9.85776 17.8837 9.85776 18.3299V25.5499C9.85776 25.9962 9.68163 26.4242 9.36812 26.7397C9.05461 27.0553 8.6294 27.2325 8.18602 27.2325C7.74264 27.2325 7.31743 27.0553 7.00392 26.7397C6.69041 26.4242 6.51428 25.9962 6.51428 25.5499V18.3299C6.51428 17.8837 6.69041 17.4557 7.00392 17.1401C7.31743 16.8246 7.74264 16.6473 8.18602 16.6473Z" fill="black"/>
<path d="M4.36972 7.96701C4.36379 8.03081 4.35882 8.09561 4.35882 8.16638V19.0995C4.35594 19.3766 4.40754 19.6515 4.5106 19.9085C4.61363 20.1654 4.76617 20.3993 4.95933 20.5967C5.15253 20.7942 5.38259 20.9512 5.63627 21.0588C5.88998 21.1664 6.16232 21.2224 6.4376 21.2238H17.4841C17.759 21.2218 18.0308 21.1653 18.2839 21.0574C18.5371 20.9495 18.7665 20.7923 18.9592 20.595C19.1518 20.3976 19.3039 20.1639 19.4066 19.9073C19.5094 19.6507 19.5608 19.3762 19.5579 19.0995V8.16141C19.5579 8.09561 19.558 8.03081 19.55 7.96204L4.36972 7.96701Z" fill="black"/>
<path d="M15.7302 16.6473C16.1736 16.6473 16.5988 16.8246 16.9123 17.1401C17.2258 17.4557 17.4019 17.8837 17.4019 18.3299V25.5499C17.4019 25.9962 17.2258 26.4242 16.9123 26.7397C16.5988 27.0553 16.1736 27.2325 15.7302 27.2325C15.2868 27.2325 14.8616 27.0553 14.5481 26.7397C14.2346 26.4242 14.0585 25.9962 14.0585 25.5499V18.3299C14.0585 17.8837 14.2346 17.4557 14.5481 17.1401C14.8616 16.8246 15.2868 16.6473 15.7302 16.6473Z" fill="black"/>
<path d="M1.67173 8.94238C2.1152 8.94235 2.54051 9.11961 2.85418 9.43514C3.16785 9.75067 3.3442 10.1787 3.34446 10.625V17.844C3.33384 18.2833 3.15299 18.701 2.84055 19.0079C2.5281 19.3148 2.10882 19.4866 1.67223 19.4866C1.23564 19.4866 0.81636 19.3148 0.503911 19.0079C0.191466 18.701 0.0106224 18.2833 0 17.844V10.624C0.000262559 10.1779 0.176507 9.75019 0.489991 9.43486C0.803472 9.1195 1.22854 8.94235 1.67173 8.94238Z" fill="black"/>
<path d="M22.2448 8.94238C22.6882 8.94238 23.1134 9.11964 23.4269 9.43521C23.7404 9.75077 23.9165 10.1787 23.9165 10.625V17.844C23.9059 18.2833 23.7251 18.701 23.4126 19.0079C23.1002 19.3148 22.6809 19.4866 22.2443 19.4866C21.8077 19.4866 21.3884 19.3148 21.076 19.0079C20.7635 18.701 20.5827 18.2833 20.5721 17.844V10.624C20.5726 10.1778 20.7491 9.75009 21.0627 9.43479C21.3763 9.11947 21.8015 8.94235 22.2448 8.94238Z" fill="black"/>
<path d="M4.4183 7.24808C4.46486 3.8898 7.3785 1.13457 11.1181 0.768738H12.8017C16.5394 1.13557 19.452 3.8898 19.4986 7.24808H4.4183Z" fill="black"/>
<path d="M6.76325 3.70003C6.73232 3.69999 6.70195 3.6918 6.67517 3.67623C6.64839 3.66063 6.62618 3.63828 6.61071 3.61133L4.84688 0.536116C4.82909 0.496128 4.82662 0.450931 4.83996 0.409229C4.8533 0.367526 4.88151 0.332265 4.91912 0.310236C4.95677 0.288207 5.00114 0.280967 5.04375 0.289911C5.08637 0.298855 5.12419 0.32335 5.14994 0.35868L6.91575 3.43388C6.9391 3.4746 6.94541 3.52298 6.93334 3.5684C6.92127 3.6138 6.89179 3.65254 6.85136 3.67609C6.82455 3.69166 6.79418 3.69989 6.76325 3.70003ZM17.1532 3.70003C17.1222 3.69989 17.0918 3.69166 17.065 3.67609C17.0246 3.65254 16.9951 3.6138 16.983 3.5684C16.971 3.52298 16.9773 3.4746 17.0006 3.43388L18.7645 0.35868C18.7888 0.319874 18.8271 0.292053 18.8713 0.281054C18.9156 0.270056 18.9623 0.276734 19.0018 0.299689C19.0413 0.322644 19.0703 0.36009 19.083 0.404171C19.0956 0.448252 19.0908 0.49554 19.0695 0.536116L17.3057 3.61133C17.2902 3.63828 17.268 3.66063 17.2412 3.67623C17.2144 3.6918 17.1841 3.69999 17.1532 3.70003Z" fill="black"/>
<path d="M9.71164 4.23811C9.70406 4.46391 9.60957 4.67796 9.44818 4.83502C9.28677 4.99205 9.07104 5.07985 8.84657 5.07985C8.62207 5.07985 8.40634 4.99205 8.24493 4.83502C8.08354 4.67796 7.98905 4.46391 7.98148 4.23811C7.9884 4.01223 8.08224 3.79788 8.24321 3.64037C8.40418 3.48281 8.61964 3.39439 8.84417 3.39374C9.06868 3.39309 9.28464 3.48028 9.4465 3.63687C9.60837 3.79349 9.70344 4.00729 9.71164 4.2331V4.23811ZM16.1698 4.23811C16.1622 4.46391 16.0678 4.67796 15.9063 4.83502C15.7449 4.99205 15.5292 5.07985 15.3047 5.07985C15.0802 5.07985 14.8645 4.99205 14.7031 4.83502C14.5417 4.67796 14.4472 4.46391 14.4396 4.23811C14.4466 4.01223 14.5404 3.79788 14.7014 3.64037C14.8623 3.48281 15.0778 3.39439 15.3023 3.39374C15.5268 3.39309 15.7428 3.48028 15.9047 3.63687C16.0665 3.79349 16.1616 4.00729 16.1698 4.2331V4.23811Z" fill="black"/>
</g>
</g>
<defs>
<clipPath id="clip0_115_2400">
<rect width="48" height="27.7714" fill="white" transform="translate(0 0.167419)"/>
</clipPath>
</defs>
</svg>
