<svg width="48" height="31" viewBox="0 0 48 31" fill="none" xmlns="http://www.w3.org/2000/svg">
<g clip-path="url(#clip0_115_2420)">
<mask id="mask0_115_2420" style="mask-type:alpha" maskUnits="userSpaceOnUse" x="0" y="1" width="48" height="30">
<path d="M47.8375 1.22614H0.423164V30.1142H47.8375V1.22614Z" fill="white"/>
</mask>
<g mask="url(#mask0_115_2420)">
<path d="M40.2059 23.4514H0.423164V1.22614H47.8375V23.4514V30.1142L40.2059 23.4514Z" fill="black"/>
<path d="M7.87828 10.0247C9.23294 10.0247 10.3311 8.92646 10.3311 7.57181C10.3311 6.21715 9.23294 5.11896 7.87828 5.11896C6.52362 5.11896 5.42543 6.21715 5.42543 7.57181C5.42543 8.92646 6.52362 10.0247 7.87828 10.0247Z" fill="white"/>
<path d="M17.1131 10.0247C18.4677 10.0247 19.5659 8.92646 19.5659 7.57181C19.5659 6.21715 18.4677 5.11896 17.1131 5.11896C15.7584 5.11896 14.6602 6.21715 14.6602 7.57181C14.6602 8.92646 15.7584 10.0247 17.1131 10.0247Z" fill="white"/>
<path d="M19.5657 13.4601H5.42113V16.6087H19.5657V13.4601Z" fill="white"/>
</g>
</g>
<defs>
<clipPath id="clip0_115_2420">
<rect width="48" height="29.5046" fill="white" transform="translate(0 0.938843)"/>
</clipPath>
</defs>
</svg>
