<svg width="48" height="49" viewBox="0 0 48 49" fill="none" xmlns="http://www.w3.org/2000/svg">
<mask id="mask0_115_2453" style="mask-type:alpha" maskUnits="userSpaceOnUse" x="0" y="1" width="48" height="47">
<path d="M47.7715 1.01794H0.146484V47.8929H47.7715V1.01794Z" fill="white"/>
</mask>
<g mask="url(#mask0_115_2453)">
<path d="M35.0496 12.573C33.5867 12.573 32.4306 11.304 31.3631 9.91664C30.2611 11.3231 29.0775 12.573 27.4756 12.573C25.2922 12.573 23.7546 11.0445 23.7546 8.84024C23.7546 6.63602 25.2899 5.10632 27.4756 5.10632C29.0441 5.10632 30.245 6.42194 31.3459 7.8667C32.4134 6.47815 33.5292 5.15894 35.0162 5.10632H35.0334C37.1019 5.10632 38.7705 6.77354 38.7705 8.84024C38.7705 10.9751 36.8043 12.573 35.0496 12.573ZM32.1307 8.89169C33.0811 10.1248 34.0464 11.304 35.0496 11.304C36.4515 11.304 37.5525 9.98841 37.5525 8.83784C37.5525 7.5007 36.4182 6.38961 35.0668 6.37289C34.0326 6.4255 33.1144 7.58924 32.1307 8.89169ZM27.4756 6.38005C25.9575 6.37409 24.9681 7.34642 24.9681 8.84024C24.9681 10.3161 25.9736 11.304 27.4756 11.304C28.6098 11.304 29.6107 10.1582 30.5783 8.89049C29.5946 7.60716 28.5764 6.37409 27.4756 6.37409V6.38005Z" fill="black"/>
<path d="M39.792 1.97449H23.5891V34.2666H39.792V1.97449Z" fill="black"/>
<path d="M39.6773 2.0946H23.7041V34.1475H39.6773V2.0946Z" stroke="#C5C5C5" stroke-width="0.75"/>
<path d="M17.2686 18.1215H1.06567V34.2675H17.2686V18.1215Z" fill="black"/>
<path d="M17.1537 18.2416H1.18066V34.1484H17.1537V18.2416Z" stroke="#C5C5C5" stroke-width="0.75"/>
<path d="M17.2686 2.93103H1.06567V12.7383H17.2686V2.93103Z" fill="black"/>
<path d="M17.1537 3.05115H1.18066V12.6192H17.1537V3.05115Z" stroke="#C5C5C5" stroke-width="0.75"/>
<path d="M23.7617 3.05115C24.3011 3.05115 24.7384 2.596 24.7384 2.03455C24.7384 1.47309 24.3011 1.01794 23.7617 1.01794C23.2222 1.01794 22.7849 1.47309 22.7849 2.03455C22.7849 2.596 23.2222 3.05115 23.7617 3.05115Z" fill="white"/>
<path d="M23.7618 2.93207C24.2378 2.93207 24.6236 2.53047 24.6236 2.03507C24.6236 1.53966 24.2378 1.13806 23.7618 1.13806C23.2858 1.13806 22.8999 1.53966 22.8999 2.03507C22.8999 2.53047 23.2858 2.93207 23.7618 2.93207Z" stroke="#C5C5C5" stroke-width="0.75"/>
<path d="M1.23825 27.3295C1.7777 27.3295 2.21502 26.8743 2.21502 26.3129C2.21502 25.7514 1.7777 25.2963 1.23825 25.2963C0.69879 25.2963 0.261475 25.7514 0.261475 26.3129C0.261475 26.8743 0.69879 27.3295 1.23825 27.3295Z" fill="white"/>
<path d="M1.23832 27.2104C1.71431 27.2104 2.10017 26.8088 2.10017 26.3134C2.10017 25.818 1.71431 25.4164 1.23832 25.4164C0.762329 25.4164 0.376465 25.818 0.376465 26.3134C0.376465 26.8088 0.762329 27.2104 1.23832 27.2104Z" stroke="#C5C5C5" stroke-width="0.75"/>
<path d="M1.23825 8.912C1.7777 8.912 2.21502 8.45686 2.21502 7.89541C2.21502 7.33396 1.7777 6.87878 1.23825 6.87878C0.69879 6.87878 0.261475 7.33396 0.261475 7.89541C0.261475 8.45686 0.69879 8.912 1.23825 8.912Z" fill="white"/>
<path d="M1.23832 8.7929C1.71431 8.7929 2.10017 8.39128 2.10017 7.8959C2.10017 7.40049 1.71431 6.9989 1.23832 6.9989C0.762329 6.9989 0.376465 7.40049 0.376465 7.8959C0.376465 8.39128 0.762329 8.7929 1.23832 8.7929Z" stroke="#C5C5C5" stroke-width="0.75"/>
<path d="M31.6902 3.05115C32.2296 3.05115 32.6669 2.596 32.6669 2.03455C32.6669 1.47309 32.2296 1.01794 31.6902 1.01794C31.1507 1.01794 30.7134 1.47309 30.7134 2.03455C30.7134 2.596 31.1507 3.05115 31.6902 3.05115Z" fill="white"/>
<path d="M31.6902 2.93207C32.1662 2.93207 32.5521 2.53047 32.5521 2.03507C32.5521 1.53966 32.1662 1.13806 31.6902 1.13806C31.2142 1.13806 30.8284 1.53966 30.8284 2.03507C30.8284 2.53047 31.2142 2.93207 31.6902 2.93207Z" stroke="#C5C5C5" stroke-width="0.75"/>
<path d="M9.16744 19.1967C9.70691 19.1967 10.1442 18.7415 10.1442 18.1801C10.1442 17.6186 9.70691 17.1635 9.16744 17.1635C8.628 17.1635 8.19067 17.6186 8.19067 18.1801C8.19067 18.7415 8.628 19.1967 9.16744 19.1967Z" fill="white"/>
<path d="M9.16753 19.0776C9.64351 19.0776 10.0294 18.676 10.0294 18.1806C10.0294 17.6852 9.64351 17.2836 9.16753 17.2836C8.69154 17.2836 8.30566 17.6852 8.30566 18.1806C8.30566 18.676 8.69154 19.0776 9.16753 19.0776Z" stroke="#C5C5C5" stroke-width="0.75"/>
<path d="M9.16744 4.0077C9.70691 4.0077 10.1442 3.55254 10.1442 2.99109C10.1442 2.42964 9.70691 1.97449 9.16744 1.97449C8.628 1.97449 8.19067 2.42964 8.19067 2.99109C8.19067 3.55254 8.628 4.0077 9.16744 4.0077Z" fill="white"/>
<path d="M9.16753 3.88861C9.64351 3.88861 10.0294 3.48701 10.0294 2.99161C10.0294 2.49621 9.64351 2.0946 9.16753 2.0946C8.69154 2.0946 8.30566 2.49621 8.30566 2.99161C8.30566 3.48701 8.69154 3.88861 9.16753 3.88861Z" stroke="#C5C5C5" stroke-width="0.75"/>
<path d="M31.6902 35.3436C32.2296 35.3436 32.6669 34.8885 32.6669 34.327C32.6669 33.7656 32.2296 33.3104 31.6902 33.3104C31.1507 33.3104 30.7134 33.7656 30.7134 34.327C30.7134 34.8885 31.1507 35.3436 31.6902 35.3436Z" fill="white"/>
<path d="M31.6902 35.2245C32.1662 35.2245 32.5521 34.823 32.5521 34.3275C32.5521 33.8322 32.1662 33.4305 31.6902 33.4305C31.2142 33.4305 30.8284 33.8322 30.8284 34.3275C30.8284 34.823 31.2142 35.2245 31.6902 35.2245Z" stroke="#C5C5C5" stroke-width="0.75"/>
<path d="M9.16744 35.3436C9.70691 35.3436 10.1442 34.8885 10.1442 34.327C10.1442 33.7656 9.70691 33.3104 9.16744 33.3104C8.628 33.3104 8.19067 33.7656 8.19067 34.327C8.19067 34.8885 8.628 35.3436 9.16744 35.3436Z" fill="white"/>
<path d="M9.16753 35.2245C9.64351 35.2245 10.0294 34.823 10.0294 34.3275C10.0294 33.8322 9.64351 33.4305 9.16753 33.4305C8.69154 33.4305 8.30566 33.8322 8.30566 34.3275C8.30566 34.823 8.69154 35.2245 9.16753 35.2245Z" stroke="#C5C5C5" stroke-width="0.75"/>
<path d="M9.16744 13.8148C9.70691 13.8148 10.1442 13.3597 10.1442 12.7982C10.1442 12.2368 9.70691 11.7816 9.16744 11.7816C8.628 11.7816 8.19067 12.2368 8.19067 12.7982C8.19067 13.3597 8.628 13.8148 9.16744 13.8148Z" fill="white"/>
<path d="M9.16753 13.6957C9.64351 13.6957 10.0294 13.2941 10.0294 12.7987C10.0294 12.3033 9.64351 11.9017 9.16753 11.9017C8.69154 11.9017 8.30566 12.3033 8.30566 12.7987C8.30566 13.2941 8.69154 13.6957 9.16753 13.6957Z" stroke="#C5C5C5" stroke-width="0.75"/>
<path d="M39.8494 3.05115C40.3886 3.05115 40.8263 2.596 40.8263 2.03455C40.8263 1.47309 40.3886 1.01794 39.8494 1.01794C39.3098 1.01794 38.8725 1.47309 38.8725 2.03455C38.8725 2.596 39.3098 3.05115 39.8494 3.05115Z" fill="white"/>
<path d="M39.8494 2.93207C40.3253 2.93207 40.7111 2.53047 40.7111 2.03507C40.7111 1.53966 40.3253 1.13806 39.8494 1.13806C39.3735 1.13806 38.9876 1.53966 38.9876 2.03507C38.9876 2.53047 39.3735 2.93207 39.8494 2.93207Z" stroke="#C5C5C5" stroke-width="0.75"/>
<path d="M17.3259 27.3295C17.8653 27.3295 18.3026 26.8743 18.3026 26.3129C18.3026 25.7514 17.8653 25.2963 17.3259 25.2963C16.7864 25.2963 16.3491 25.7514 16.3491 26.3129C16.3491 26.8743 16.7864 27.3295 17.3259 27.3295Z" fill="white"/>
<path d="M17.326 27.2104C17.802 27.2104 18.1878 26.8088 18.1878 26.3134C18.1878 25.818 17.802 25.4164 17.326 25.4164C16.85 25.4164 16.4641 25.818 16.4641 26.3134C16.4641 26.8088 16.85 27.2104 17.326 27.2104Z" stroke="#C5C5C5" stroke-width="0.75"/>
<path d="M17.3259 8.912C17.8653 8.912 18.3026 8.45686 18.3026 7.89541C18.3026 7.33396 17.8653 6.87878 17.3259 6.87878C16.7864 6.87878 16.3491 7.33396 16.3491 7.89541C16.3491 8.45686 16.7864 8.912 17.3259 8.912Z" fill="white"/>
<path d="M17.326 8.7929C17.802 8.7929 18.1878 8.39128 18.1878 7.8959C18.1878 7.40049 17.802 6.9989 17.326 6.9989C16.85 6.9989 16.4641 7.40049 16.4641 7.8959C16.4641 8.39128 16.85 8.7929 17.326 8.7929Z" stroke="#C5C5C5" stroke-width="0.75"/>
<path d="M39.8494 35.1034C40.3886 35.1034 40.8263 34.6483 40.8263 34.0868C40.8263 33.5253 40.3886 33.0702 39.8494 33.0702C39.3098 33.0702 38.8725 33.5253 38.8725 34.0868C38.8725 34.6483 39.3098 35.1034 39.8494 35.1034Z" fill="white"/>
<path d="M39.8494 34.9843C40.3253 34.9843 40.7111 34.5827 40.7111 34.0873C40.7111 33.5919 40.3253 33.1903 39.8494 33.1903C39.3735 33.1903 38.9876 33.5919 38.9876 34.0873C38.9876 34.5827 39.3735 34.9843 39.8494 34.9843Z" stroke="#C5C5C5" stroke-width="0.75"/>
<path d="M17.3259 35.1034C17.8653 35.1034 18.3026 34.6483 18.3026 34.0868C18.3026 33.5253 17.8653 33.0702 17.3259 33.0702C16.7864 33.0702 16.3491 33.5253 16.3491 34.0868C16.3491 34.6483 16.7864 35.1034 17.3259 35.1034Z" fill="white"/>
<path d="M17.326 34.9843C17.802 34.9843 18.1878 34.5827 18.1878 34.0873C18.1878 33.5919 17.802 33.1903 17.326 33.1903C16.85 33.1903 16.4641 33.5919 16.4641 34.0873C16.4641 34.5827 16.85 34.9843 17.326 34.9843Z" stroke="#C5C5C5" stroke-width="0.75"/>
<path d="M17.3259 13.5761C17.8653 13.5761 18.3026 13.1209 18.3026 12.5595C18.3026 11.998 17.8653 11.5428 17.3259 11.5428C16.7864 11.5428 16.3491 11.998 16.3491 12.5595C16.3491 13.1209 16.7864 13.5761 17.3259 13.5761Z" fill="white"/>
<path d="M17.326 13.457C17.802 13.457 18.1878 13.0553 18.1878 12.56C18.1878 12.0646 17.802 11.663 17.326 11.663C16.85 11.663 16.4641 12.0646 16.4641 12.56C16.4641 13.0553 16.85 13.457 17.326 13.457Z" stroke="#C5C5C5" stroke-width="0.75"/>
<path d="M39.8494 19.1967C40.3886 19.1967 40.8263 18.7415 40.8263 18.1801C40.8263 17.6186 40.3886 17.1635 39.8494 17.1635C39.3098 17.1635 38.8725 17.6186 38.8725 18.1801C38.8725 18.7415 39.3098 19.1967 39.8494 19.1967Z" fill="white"/>
<path d="M39.8494 19.0776C40.3253 19.0776 40.7111 18.676 40.7111 18.1806C40.7111 17.6852 40.3253 17.2836 39.8494 17.2836C39.3735 17.2836 38.9876 17.6852 38.9876 18.1806C38.9876 18.676 39.3735 19.0776 39.8494 19.0776Z" stroke="#C5C5C5" stroke-width="0.75"/>
<path d="M17.3259 19.1967C17.8653 19.1967 18.3026 18.7415 18.3026 18.1801C18.3026 17.6186 17.8653 17.1635 17.3259 17.1635C16.7864 17.1635 16.3491 17.6186 16.3491 18.1801C16.3491 18.7415 16.7864 19.1967 17.3259 19.1967Z" fill="white"/>
<path d="M17.326 19.0776C17.802 19.0776 18.1878 18.676 18.1878 18.1806C18.1878 17.6852 17.802 17.2836 17.326 17.2836C16.85 17.2836 16.4641 17.6852 16.4641 18.1806C16.4641 18.676 16.85 19.0776 17.326 19.0776Z" stroke="#C5C5C5" stroke-width="0.75"/>
<path d="M17.3259 4.0077C17.8653 4.0077 18.3026 3.55254 18.3026 2.99109C18.3026 2.42964 17.8653 1.97449 17.3259 1.97449C16.7864 1.97449 16.3491 2.42964 16.3491 2.99109C16.3491 3.55254 16.7864 4.0077 17.3259 4.0077Z" fill="white"/>
<path d="M17.326 3.88861C17.802 3.88861 18.1878 3.48701 18.1878 2.99161C18.1878 2.49621 17.802 2.0946 17.326 2.0946C16.85 2.0946 16.4641 2.49621 16.4641 2.99161C16.4641 3.48701 16.85 3.88861 17.326 3.88861Z" stroke="#C5C5C5" stroke-width="0.75"/>
<path d="M23.7617 19.1967C24.3011 19.1967 24.7384 18.7415 24.7384 18.1801C24.7384 17.6186 24.3011 17.1635 23.7617 17.1635C23.2222 17.1635 22.7849 17.6186 22.7849 18.1801C22.7849 18.7415 23.2222 19.1967 23.7617 19.1967Z" fill="white"/>
<path d="M23.7618 19.0776C24.2378 19.0776 24.6236 18.676 24.6236 18.1806C24.6236 17.6852 24.2378 17.2836 23.7618 17.2836C23.2858 17.2836 22.8999 17.6852 22.8999 18.1806C22.8999 18.676 23.2858 19.0776 23.7618 19.0776Z" stroke="#C5C5C5" stroke-width="0.75"/>
<path d="M1.23825 19.1967C1.7777 19.1967 2.21502 18.7415 2.21502 18.1801C2.21502 17.6186 1.7777 17.1635 1.23825 17.1635C0.69879 17.1635 0.261475 17.6186 0.261475 18.1801C0.261475 18.7415 0.69879 19.1967 1.23825 19.1967Z" fill="white"/>
<path d="M1.23832 19.0776C1.71431 19.0776 2.10017 18.676 2.10017 18.1806C2.10017 17.6852 1.71431 17.2836 1.23832 17.2836C0.762329 17.2836 0.376465 17.6852 0.376465 18.1806C0.376465 18.676 0.762329 19.0776 1.23832 19.0776Z" stroke="#C5C5C5" stroke-width="0.75"/>
<path d="M1.23825 4.0077C1.7777 4.0077 2.21502 3.55254 2.21502 2.99109C2.21502 2.42964 1.7777 1.97449 1.23825 1.97449C0.69879 1.97449 0.261475 2.42964 0.261475 2.99109C0.261475 3.55254 0.69879 4.0077 1.23825 4.0077Z" fill="white"/>
<path d="M1.23832 3.88861C1.71431 3.88861 2.10017 3.48701 2.10017 2.99161C2.10017 2.49621 1.71431 2.0946 1.23832 2.0946C0.762329 2.0946 0.376465 2.49621 0.376465 2.99161C0.376465 3.48701 0.762329 3.88861 1.23832 3.88861Z" stroke="#C5C5C5" stroke-width="0.75"/>
<path d="M23.6467 35.1034C24.1862 35.1034 24.6235 34.6483 24.6235 34.0868C24.6235 33.5253 24.1862 33.0702 23.6467 33.0702C23.1072 33.0702 22.6699 33.5253 22.6699 34.0868C22.6699 34.6483 23.1072 35.1034 23.6467 35.1034Z" fill="white"/>
<path d="M23.6467 34.9843C24.1228 34.9843 24.5086 34.5827 24.5086 34.0873C24.5086 33.5919 24.1228 33.1903 23.6467 33.1903C23.1707 33.1903 22.7849 33.5919 22.7849 34.0873C22.7849 34.5827 23.1707 34.9843 23.6467 34.9843Z" stroke="#C5C5C5" stroke-width="0.75"/>
<path d="M1.12325 35.1034C1.66271 35.1034 2.10002 34.6483 2.10002 34.0868C2.10002 33.5253 1.66271 33.0702 1.12325 33.0702C0.5838 33.0702 0.146484 33.5253 0.146484 34.0868C0.146484 34.6483 0.5838 35.1034 1.12325 35.1034Z" fill="white"/>
<path d="M1.12333 34.9843C1.59932 34.9843 1.98519 34.5827 1.98519 34.0873C1.98519 33.5919 1.59932 33.1903 1.12333 33.1903C0.64734 33.1903 0.261475 33.5919 0.261475 34.0873C0.261475 34.5827 0.64734 34.9843 1.12333 34.9843Z" stroke="#C5C5C5" stroke-width="0.75"/>
<path d="M1.12325 13.5761C1.66271 13.5761 2.10002 13.1209 2.10002 12.5595C2.10002 11.998 1.66271 11.5428 1.12325 11.5428C0.5838 11.5428 0.146484 11.998 0.146484 12.5595C0.146484 13.1209 0.5838 13.5761 1.12325 13.5761Z" fill="white"/>
<path d="M1.12333 13.457C1.59932 13.457 1.98519 13.0553 1.98519 12.56C1.98519 12.0646 1.59932 11.663 1.12333 11.663C0.64734 11.663 0.261475 12.0646 0.261475 12.56C0.261475 13.0553 0.64734 13.457 1.12333 13.457Z" stroke="#C5C5C5" stroke-width="0.75"/>
<path d="M39.7916 34.0531L47.7712 41.8018L43.9147 42.1487L46.1119 47.2018L44.649 47.8933L42.5209 42.7731L39.7916 45.4712V34.0531Z" fill="black"/>
</g>
</svg>
