<svg width="48" height="34" viewBox="0 0 48 34" fill="none" xmlns="http://www.w3.org/2000/svg">
<g clip-path="url(#clip0_115_2393)">
<mask id="mask0_115_2393" style="mask-type:alpha" maskUnits="userSpaceOnUse" x="0" y="0" width="48" height="34">
<path d="M48 0.188843H0V33.4196H48V0.188843Z" fill="white"/>
</mask>
<g mask="url(#mask0_115_2393)">
<path d="M6.59987 33.3123C5.51443 33.3091 4.44631 33.0411 3.48893 32.5317C2.53157 32.0223 1.71413 31.2871 1.10809 30.3904C0.381157 29.3131 -0.00479846 28.0435 4.50339e-05 26.7456L0.00895371 23.8315C0.00941948 23.7486 0.0179977 23.666 0.0345667 23.5848L3.16883 8.37208C3.65048 6.0515 4.92618 3.96937 6.77804 2.48118C8.63768 0.990904 10.9546 0.181238 13.3417 0.187475L34.8161 0.254561C37.2034 0.263331 39.5151 1.08746 41.3656 2.5893C43.2084 4.08934 44.4712 6.17999 44.9377 8.50403L47.9762 23.7355C47.9923 23.8168 48 23.8994 48 23.9823L47.9906 26.8925C47.9876 28.1907 47.5935 29.458 46.8591 30.5307C46.3083 31.3335 45.5866 32.0056 44.7454 32.4995C43.9042 32.9934 42.964 33.2969 41.9919 33.3884C41.0199 33.4799 40.0394 33.3573 39.12 33.0292C38.2006 32.7011 37.3655 32.1756 36.673 31.4899L30.3086 25.1738L17.6926 25.1344L11.2893 31.4134C10.0384 32.6368 8.35321 33.3192 6.59987 33.3123ZM2.51291 23.9651L2.504 26.7528C2.50104 27.5539 2.73941 28.3374 3.18831 29.0021C3.63991 29.6734 4.28157 30.196 5.03191 30.5036C5.7847 30.8146 6.61276 30.8982 7.41295 30.744C8.21314 30.5898 8.95009 30.2046 9.53199 29.6364L16.3033 22.9998C16.5384 22.7693 16.8554 22.6403 17.1853 22.6411L30.8315 22.6838C31.1614 22.6851 31.4775 22.8157 31.7113 23.0475L38.441 29.724C38.8719 30.1515 39.3926 30.4792 39.9652 30.684C40.5378 30.8887 41.1488 30.9655 41.7546 30.9087C42.3605 30.852 42.9462 30.6632 43.4705 30.3558C43.9949 30.0483 44.4446 29.6297 44.7884 29.1297C45.2418 28.4679 45.4852 27.6858 45.4872 26.8847L45.4959 24.0993L42.4817 8.98916C42.1282 7.2332 41.1736 5.65377 39.7809 4.5204C38.3758 3.38069 36.6206 2.75542 34.8081 2.74898L13.3339 2.68189C11.5216 2.67696 9.7626 3.29128 8.35046 4.42228C6.95074 5.54699 5.98644 7.12055 5.62211 8.8744L2.51291 23.9651Z" fill="black"/>
<path d="M28.3572 7.55044L19.2656 7.52214C19.0331 7.52144 18.8055 7.45628 18.6081 7.33397C18.4107 7.21165 18.2514 7.03704 18.1481 6.82967L15.8891 2.29547C15.7415 1.99932 15.718 1.65689 15.8239 1.3435C15.9298 1.03011 16.1563 0.771439 16.4538 0.624395C16.7512 0.477349 17.0951 0.453971 17.4098 0.559404C17.7245 0.664836 17.9843 0.890443 18.132 1.1866L20.0485 5.03108L27.5927 5.05491L29.532 1.22319C29.6851 0.934317 29.946 0.71681 30.2585 0.61743C30.5709 0.518048 30.9101 0.544728 31.2031 0.691736C31.496 0.838744 31.7193 1.09434 31.825 1.40357C31.9306 1.71279 31.9102 2.05097 31.7681 2.34537L29.4791 6.86625C29.3743 7.07272 29.2138 7.24606 29.0156 7.36686C28.8175 7.4877 28.5895 7.55124 28.3572 7.55044Z" fill="black"/>
</g>
</g>
<defs>
<clipPath id="clip0_115_2393">
<rect width="48" height="33.2308" fill="white" transform="translate(0 0.188843)"/>
</clipPath>
</defs>
</svg>
