<svg width="48" height="35" viewBox="0 0 48 35" fill="none" xmlns="http://www.w3.org/2000/svg">
<g clip-path="url(#clip0_115_2414)">
<mask id="mask0_115_2414" style="mask-type:alpha" maskUnits="userSpaceOnUse" x="0" y="0" width="48" height="35">
<path d="M47.6814 0.188843H0.0292053V34.6236H47.6814V0.188843Z" fill="white"/>
</mask>
<g mask="url(#mask0_115_2414)">
<path d="M41.1141 34.6246H32.7655C31.6331 34.6249 30.5199 34.3344 29.5338 33.7814C28.5478 33.2285 27.7222 32.4317 27.1373 31.4685L23.774 25.9083L20.5708 31.466C19.9855 32.4294 19.1596 33.2264 18.1734 33.7798C17.187 34.3331 16.0736 34.6242 14.9409 34.6246H6.60932C5.9737 34.6339 5.34024 34.5483 4.73015 34.3709C1.92032 33.5165 0.0292165 31.0033 0.0292165 28.1178V13.1535C0.0274701 12.2147 0.231178 11.2867 0.626226 10.4339C1.02127 9.58095 1.59822 8.8236 2.3171 8.21424C2.38058 8.00958 2.4738 7.81522 2.59383 7.6373L4.35464 5.01497C5.35043 3.52994 6.69999 2.31224 8.28344 1.47004C9.86688 0.627841 11.6352 0.187219 13.4313 0.187317H34.4684C36.265 0.187482 38.0337 0.628189 39.6174 1.47034C41.2014 2.31249 42.5516 3.53005 43.5485 5.01497L45.3092 7.6373C45.4741 7.88207 45.5885 8.15695 45.6456 8.446C46.2894 9.05205 46.8017 9.78235 47.1513 10.5921C47.5012 11.4019 47.6807 12.2741 47.6789 13.1552V28.0941C47.687 28.7289 47.5979 29.3612 47.4156 29.9695C46.5523 32.7535 44.0184 34.6246 41.1141 34.6246ZM23.8549 21.4825C24.6144 21.482 25.3611 21.6764 26.0227 22.0469C26.6843 22.4174 27.2383 22.9515 27.6311 23.5972L30.9995 29.1591C31.1835 29.4609 31.4426 29.7104 31.752 29.8836C32.0613 30.0568 32.4104 30.1479 32.7655 30.1481H41.1099C42.0414 30.1481 42.8254 29.561 43.1089 28.6491C43.1562 28.468 43.177 28.2811 43.1711 28.0941V13.1535C43.1711 12.234 42.5753 11.4575 41.6522 11.1783C41.4699 11.1324 41.2824 11.1116 41.0946 11.1166H6.61018C6.42052 11.1116 6.23109 11.133 6.04737 11.18C5.12949 11.4575 4.53345 12.234 4.53345 13.1535V28.1136C4.53345 29.0314 5.12949 29.8054 6.05078 30.0871C6.23283 30.1336 6.42062 30.1541 6.60848 30.1481H14.9401C15.2962 30.1484 15.6465 30.0573 15.9568 29.8836C16.2671 29.7099 16.5269 29.4595 16.7111 29.1566L20.0786 23.6006C20.4716 22.9545 21.0261 22.4202 21.6882 22.0497C22.3503 21.6791 23.0975 21.4849 23.8574 21.4858L23.8549 21.4825ZM8.79418 6.64081H39.1064C38.5078 6.01709 37.7882 5.52043 36.991 5.18092C36.1941 4.84141 35.3356 4.6661 34.4684 4.66561H13.4313C12.5641 4.66621 11.706 4.84158 10.909 5.18109C10.1119 5.52061 9.39252 6.0172 8.79418 6.64081Z" fill="black"/>
</g>
</g>
<defs>
<clipPath id="clip0_115_2414">
<rect width="48" height="34.4348" fill="white" transform="translate(0 0.188843)"/>
</clipPath>
</defs>
</svg>
