<svg width="48" height="39" viewBox="0 0 48 39" fill="none" xmlns="http://www.w3.org/2000/svg">
<g clip-path="url(#clip0_115_2437)">
<mask id="mask0_115_2437" style="mask-type:alpha" maskUnits="userSpaceOnUse" x="0" y="0" width="48" height="39">
<path d="M47.7664 0.972656H0.0286865V38.2186H47.7664V0.972656Z" fill="white"/>
</mask>
<g mask="url(#mask0_115_2437)">
<path d="M32.7987 15.5643C32.6054 15.3828 32.4577 15.1584 32.3675 14.9093C32.2772 14.6601 32.2468 14.3932 32.2793 14.1302C32.3116 13.8672 32.4055 13.6154 32.5532 13.3955C32.7011 13.1755 32.8989 12.9934 33.1302 12.8641L35.2894 11.6563C35.4568 11.562 35.5903 11.4172 35.6705 11.2426C35.7508 11.068 35.7736 10.8725 35.7358 10.6841C35.4132 9.09225 34.7714 7.58209 33.8492 6.24451C33.7408 6.08575 33.5848 5.96533 33.4038 5.90051C33.2225 5.8357 33.0255 5.8298 32.8409 5.88367L30.4905 6.59059C30.2366 6.66726 29.9682 6.68312 29.7073 6.63696C29.446 6.5908 29.1994 6.48386 28.9875 6.3248C28.7753 6.16577 28.6038 5.95908 28.4863 5.72147C28.369 5.48386 28.3092 5.22198 28.3121 4.95704L28.3452 2.4777C28.3473 2.28542 28.2885 2.09739 28.1773 1.94055C28.0658 1.78371 27.9076 1.6661 27.7254 1.60458C26.1857 1.09074 24.5588 0.88911 22.9402 1.0115C22.7479 1.02647 22.5654 1.10198 22.4188 1.22716C22.2722 1.35235 22.1692 1.52076 22.1244 1.70817L21.5548 4.10668C21.4509 4.54198 21.1784 4.9183 20.7971 5.15305C20.4158 5.38783 19.9569 5.46185 19.5211 5.35887C19.3548 5.3189 19.1955 5.25446 19.0482 5.16764L16.9268 3.90634C16.7616 3.80882 16.5698 3.76588 16.3787 3.78366C16.1876 3.80145 16.0071 3.87903 15.8627 4.00538C14.6389 5.0767 13.6459 6.38537 12.9437 7.85188C12.8606 8.02571 12.8348 8.22141 12.87 8.41081C12.9052 8.60021 12.9997 8.77359 13.1397 8.906L14.9307 10.5885C15.093 10.7405 15.2236 10.9229 15.3151 11.1255C15.4066 11.328 15.4572 11.5465 15.464 11.7686C15.4707 11.9907 15.4335 12.212 15.3545 12.4197C15.2756 12.6274 15.1563 12.8175 15.0036 12.979C14.8857 13.1037 14.7497 13.2099 14.6003 13.2944L12.4356 14.5022C12.268 14.5964 12.1346 14.7412 12.0544 14.9158C11.9742 15.0904 11.9513 15.2859 11.989 15.4743C12.3112 17.0664 12.9531 18.5766 13.8757 19.9139C13.9849 20.0723 14.1415 20.1921 14.323 20.2561C14.5046 20.3202 14.7018 20.3251 14.8863 20.2702L17.2367 19.5633C17.4907 19.4867 17.7593 19.471 18.0205 19.5175C18.2817 19.564 18.5283 19.6714 18.7402 19.831C18.9521 19.9905 19.1233 20.1978 19.24 20.4359C19.3567 20.674 19.4155 20.9363 19.4117 21.2014L19.3798 23.6796C19.3776 23.8719 19.4364 24.0599 19.5477 24.2168C19.6591 24.3736 19.8172 24.4912 19.9996 24.5527C21.539 25.0677 23.1661 25.2694 24.7847 25.1458C24.977 25.1308 25.1595 25.0553 25.3061 24.9301C25.4527 24.805 25.5558 24.6365 25.6005 24.4491L26.1702 22.0506C26.2311 21.7927 26.3517 21.5528 26.5225 21.3502C26.6935 21.1476 26.9096 20.9881 27.1538 20.8845C27.398 20.781 27.6629 20.7363 27.9276 20.7542C28.1922 20.7721 28.4488 20.852 28.6767 20.9874L30.7981 22.2476C30.9634 22.3451 31.1551 22.388 31.3463 22.3702C31.5373 22.3524 31.7177 22.2748 31.8623 22.1485C33.0856 21.0769 34.0787 19.7683 34.7811 18.302C34.8642 18.1281 34.8897 17.9323 34.8543 17.7429C34.8189 17.5535 34.7244 17.3801 34.5841 17.2479L32.7987 15.5643ZM23.3481 17.282C22.5156 17.1799 21.7321 16.8333 21.0968 16.2862C20.4615 15.7392 20.0027 15.0162 19.7787 14.2086C19.5546 13.4011 19.5752 12.5452 19.838 11.7494C20.1007 10.9536 20.5938 10.2535 21.2547 9.7376C21.9157 9.22175 22.715 8.91331 23.5514 8.85133C24.3878 8.78933 25.2239 8.97655 25.9538 9.3893C26.6838 9.80207 27.2747 10.4218 27.6522 11.1702C28.0296 11.9186 28.1762 12.762 28.0739 13.5938C27.9368 14.709 27.3618 15.7241 26.4755 16.4158C25.5892 17.1074 24.4643 17.419 23.3481 17.282Z" fill="black"/>
<path d="M1.73764 34.8035H46.0574C46.5107 34.8035 46.9453 34.9834 47.2658 35.3037C47.5863 35.6239 47.7663 36.0583 47.7663 36.511C47.7663 36.964 47.5863 37.3984 47.2658 37.7186C46.9453 38.0386 46.5107 38.2185 46.0574 38.2185H1.73764C1.28439 38.2185 0.849704 38.0386 0.529206 37.7186C0.20871 37.3984 0.028656 36.964 0.028656 36.511C0.028656 36.0583 0.20871 35.6239 0.529206 35.3037C0.849704 34.9834 1.28439 34.8035 1.73764 34.8035Z" fill="black"/>
<path d="M1.96594 35.487H13.587C13.859 35.487 14.1198 35.5948 14.3121 35.7871C14.5044 35.9791 14.6124 36.2398 14.6124 36.5115C14.6124 36.7833 14.5044 37.0437 14.3121 37.236C14.1198 37.428 13.859 37.536 13.587 37.536H1.96594C1.69399 37.536 1.43318 37.428 1.24088 37.236C1.04858 37.0437 0.940552 36.7833 0.940552 36.5115C0.940552 36.2398 1.04858 35.9791 1.24088 35.7871C1.43318 35.5948 1.69399 35.487 1.96594 35.487Z" fill="white"/>
</g>
</g>
<defs>
<clipPath id="clip0_115_2437">
<rect width="48" height="37.5082" fill="white" transform="translate(0 0.938843)"/>
</clipPath>
</defs>
</svg>
