<svg width="48" height="31" viewBox="0 0 48 31" fill="none" xmlns="http://www.w3.org/2000/svg">
<g clip-path="url(#clip0_115_2429)">
<mask id="mask0_115_2429" style="mask-type:alpha" maskUnits="userSpaceOnUse" x="0" y="0" width="48" height="31">
<path d="M47.7671 0.952026H0.14209V30.577H47.7671V0.952026Z" fill="white"/>
</mask>
<g mask="url(#mask0_115_2429)">
<path d="M38.013 11.7534C37.8405 9.05347 36.7392 6.50054 34.9014 4.53946C33.0635 2.57838 30.6055 1.33349 27.9556 1.02171C25.3057 0.709929 22.632 1.35102 20.4003 2.83328C18.1686 4.31553 16.5204 6.54498 15.7429 9.13315C14.7171 8.73925 13.6165 8.58663 12.5241 8.68676C11.4316 8.78692 10.3759 9.13721 9.43635 9.71126C8.49679 10.2853 7.69796 11.0682 7.09999 12.0008C6.50205 12.9334 6.1206 13.9915 5.9844 15.0954H5.90419C5.10022 15.0948 4.30504 15.2649 3.56974 15.5946C2.83445 15.9244 2.17534 16.4065 1.63476 17.0101C1.09419 17.6136 0.68412 18.3252 0.430924 19.0992C0.177729 19.8731 0.0870061 20.6922 0.16459 21.5038C0.242174 22.3153 0.486349 23.1015 0.881411 23.8117C1.27648 24.5218 1.81369 25.1403 2.45852 25.6273C3.10334 26.1143 3.8415 26.459 4.62555 26.6394C5.4096 26.8197 6.22219 26.8317 7.01104 26.6744C7.83724 27.8017 8.89545 28.733 10.1122 29.4038C11.3289 30.0746 12.675 30.4687 14.0571 30.5588C15.439 30.6489 16.8239 30.4328 18.1152 29.9256C19.4067 29.4183 20.5737 28.632 21.5354 27.6214C22.3235 28.4221 23.2847 29.0259 24.3427 29.3847C25.4007 29.7435 26.5265 29.8475 27.6311 29.6886C28.7356 29.5297 29.7885 29.1121 30.7063 28.469C31.6242 27.8259 32.3818 26.9749 32.9193 25.9834C33.8666 26.4611 34.9027 26.7304 35.9598 26.7737C37.0169 26.817 38.0711 26.6334 39.0532 26.2347C40.0357 25.8361 40.9238 25.2315 41.6595 24.4606C42.3953 23.6897 42.9622 22.7698 43.3234 21.7612C43.6841 20.7525 43.8311 19.678 43.7542 18.6078C43.677 17.5377 43.3781 16.4961 42.8767 15.5512C42.3754 14.6064 41.6828 13.7797 40.8442 13.1252C40.0061 12.4707 39.0409 12.0033 38.0119 11.7534H38.013Z" fill="black"/>
<path d="M44.0017 13.2022C42.5171 13.2022 41.352 11.9523 40.272 10.5831C39.1567 11.9699 37.9582 13.2022 36.3385 13.2022C34.1294 13.2022 32.5737 11.6952 32.5737 9.52065C32.5737 7.3461 34.1271 5.84021 36.3385 5.84021C37.9245 5.84021 39.1406 7.13737 40.2544 8.56192C41.3347 7.1928 42.4635 5.89091 43.968 5.84021H43.9845C46.0774 5.84021 47.7667 7.4841 47.7667 9.52065C47.7667 11.6268 45.7747 13.2022 44.0017 13.2022ZM41.0475 9.57251C42.0101 10.7883 42.9892 11.9523 44.0017 11.9523C45.4204 11.9523 46.5341 10.6551 46.5341 9.52065C46.5341 8.20226 45.3866 7.10674 44.0194 7.0902C42.9727 7.14094 42.0439 8.28832 41.0475 9.57251ZM36.3385 7.08551C34.8015 7.08551 33.8062 8.04423 33.8062 9.51592C33.8062 10.9876 34.8189 11.9475 36.3385 11.9475C37.4861 11.9475 38.4986 10.8178 39.4777 9.56782C38.4825 8.30482 37.4524 7.08551 36.3385 7.08551Z" fill="white"/>
<path d="M43.9751 5.84021H43.959C42.4639 5.89091 41.3302 7.1928 40.2547 8.56192C39.1395 7.14682 37.9294 5.84021 36.3376 5.84021C36.2097 5.84021 36.0829 5.84021 35.9597 5.85555C36.2457 6.26606 36.5044 6.69547 36.7341 7.14094C37.698 7.37677 38.6014 8.45696 39.4781 9.57251C38.9872 10.1999 38.4874 10.7966 37.9665 11.2341C37.9864 11.4063 38.0014 11.5796 38.013 11.7541C38.3269 11.8306 38.6359 11.9275 38.9374 12.0442C39.4192 11.5932 39.8651 11.1043 40.2709 10.582C41.3512 11.9523 42.516 13.2022 44.0021 13.2022C45.774 13.2022 47.7667 11.6268 47.7656 9.52065C47.7611 7.4829 46.068 5.84021 43.9751 5.84021ZM43.9927 11.9523C42.9799 11.9523 42.0011 10.7871 41.0385 9.57251C42.0394 8.28832 42.9671 7.14093 44.0137 7.08551C45.381 7.10317 46.5296 8.1987 46.5296 9.51708C46.5334 10.6504 45.4159 11.9523 43.9972 11.9523H43.9927Z" fill="black"/>
</g>
</g>
<defs>
<clipPath id="clip0_115_2429">
<rect width="48" height="30" fill="white" transform="translate(0 0.938843)"/>
</clipPath>
</defs>
</svg>
