<svg width="151" height="58" viewBox="0 0 151 58" fill="none" xmlns="http://www.w3.org/2000/svg">
<g clip-path="url(#clip0_163_185)">
<path d="M30.3055 40.3816C30.3055 40.3816 44.3939 29.3609 46.5904 27.1643C52.3848 34.0191 41.2884 49.0543 30.3055 40.3816Z" fill="#809E35"/>
<path d="M39.7735 19.6657L45.227 24.9677L30.3055 37.1625V26.9371L39.7735 19.6657Z" fill="#809E35"/>
<path d="M38.0503 17.6963L30.3055 23.4907V10.6522" fill="#809E35"/>
<path d="M29.1457 5.50159C29.1457 5.50159 12.7046 21.0101 11.2276 22.4871C9.75056 23.9641 3.21765 31.6711 10.1103 40.4952C17.0492 49.3791 25.9875 45.7884 28.0237 43.7522V57.437L28.022 57.4595C12.7839 56.9026 0.666626 44.3741 0.666626 28.9993C0.666626 13.2712 13.417 0.520248 29.1457 0.520248C44.8744 0.520248 57.6248 13.2712 57.6248 28.9993C57.6248 44.3765 45.5152 56.908 30.2724 57.4601L30.2677 57.437V43.7522C32.3039 45.7884 41.2422 49.3791 48.1811 40.4952C55.0738 31.6711 48.5409 23.9641 47.0638 22.4871C45.5868 21.0101 29.1457 5.50159 29.1457 5.50159Z" fill="#809E35"/>
<path d="M27.9859 40.3816C27.9859 40.3816 13.8975 29.3609 11.7009 27.1643C5.90654 34.0191 17.003 49.0543 27.9859 40.3816Z" fill="#809E35"/>
<path d="M18.5179 19.6657L13.0644 24.9677L27.9859 37.1625V26.9371L18.5179 19.6657Z" fill="#809E35"/>
<path d="M20.2411 17.6963L27.9859 23.4907V10.6522" fill="#809E35"/>
<path d="M73.6848 29.7461C73.6848 30.6728 72.9339 31.4243 72.0072 31.4243C71.0806 31.4243 70.329 30.6728 70.329 29.7461C70.329 28.8194 71.0806 28.0679 72.0072 28.0679C72.9339 28.0679 73.6848 28.8194 73.6848 29.7461Z" fill="black"/>
<path d="M78.2448 29.7461C78.2448 30.6728 77.4939 31.4243 76.5672 31.4243C75.6406 31.4243 74.889 30.6728 74.889 29.7461C74.889 28.8194 75.6406 28.0679 76.5672 28.0679C77.4939 28.0679 78.2448 28.8194 78.2448 29.7461Z" fill="black"/>
<path d="M86.601 55.6907C86.601 56.6174 85.8494 57.3689 84.9228 57.3689C83.9961 57.3689 83.2451 56.6174 83.2451 55.6907C83.2451 54.7641 83.9961 54.0131 84.9228 54.0131C85.8494 54.0131 86.601 54.7641 86.601 55.6907Z" fill="black"/>
<path d="M91.161 55.6907C91.161 56.6174 90.4094 57.3689 89.4828 57.3689C88.5561 57.3689 87.8051 56.6174 87.8051 55.6907C87.8051 54.7641 88.5561 54.0131 89.4828 54.0131C90.4094 54.0131 91.161 54.7641 91.161 55.6907Z" fill="black"/>
<path d="M112.022 29.7461C112.022 30.6728 111.27 31.4243 110.344 31.4243C109.417 31.4243 108.666 30.6728 108.666 29.7461C108.666 28.8194 109.417 28.0679 110.344 28.0679C111.27 28.0679 112.022 28.8194 112.022 29.7461Z" fill="black"/>
<path d="M132.148 29.7461C132.148 30.6728 131.397 31.4243 130.47 31.4243C129.544 31.4243 128.792 30.6728 128.792 29.7461C128.792 28.8194 129.544 28.0679 130.47 28.0679C131.397 28.0679 132.148 28.8194 132.148 29.7461Z" fill="black"/>
<path d="M132.148 5.12228C132.148 6.04836 131.397 6.79988 130.47 6.79988C129.544 6.79988 128.792 6.04836 128.792 5.12228C128.792 4.1956 129.544 3.44408 130.47 3.44408C131.397 3.44408 132.148 4.1956 132.148 5.12228Z" fill="black"/>
<path d="M74.0381 21.3368C70.1634 21.3368 67.0111 18.1845 67.0111 14.3098C67.0111 10.435 70.1634 7.28275 74.0381 7.28275C77.9123 7.28275 81.0651 10.435 81.0651 14.3098C81.0651 18.1845 77.9123 21.3368 74.0381 21.3368ZM74.0381 4.85895C68.8183 4.85895 64.5873 9.08995 64.5873 14.3098C64.5873 19.5296 68.8183 23.7606 74.0381 23.7606C76.8525 23.7606 79.2627 22.6789 80.9941 20.7261V22.5132C80.9941 23.202 81.5527 23.7606 82.2415 23.7606C82.9303 23.7606 83.4889 23.202 83.4889 22.5132V14.3098C83.4889 9.08995 79.2573 4.85895 74.0381 4.85895Z" fill="black"/>
<path d="M74.0381 49.5868C70.1634 49.5868 67.0111 46.4346 67.0111 42.5598C67.0111 38.6851 70.1634 35.5328 74.0381 35.5328C77.9123 35.5328 81.0651 38.6851 81.0651 42.5598C81.0651 46.4346 77.9123 49.5868 74.0381 49.5868ZM98.7951 34.273C98.7951 33.5629 98.0767 33.7635 97.5092 34.16C96.9276 34.5665 96.2234 35.0914 96.2234 35.8015V42.5598C96.2234 46.4346 93.2197 49.4389 89.3449 49.4389H80.5178C82.4072 47.711 83.4889 45.3215 83.4889 42.5598C83.4889 37.3406 79.2573 33.109 74.0381 33.109C68.8183 33.109 64.5873 37.3406 64.5873 42.5598C64.5873 47.7796 68.8183 52.0106 74.0381 52.0106H89.3449C94.5641 52.0106 98.7957 47.7796 98.7957 42.5598" fill="black"/>
<path d="M94.0511 21.0793C90.7858 21.0793 88.1294 18.4236 88.1294 15.1583C88.1294 11.893 90.7858 9.23728 94.0511 9.23728C97.3157 9.23728 99.9721 11.893 99.9721 15.1583C99.9721 18.4236 97.3157 21.0793 94.0511 21.0793ZM94.0511 6.81348C89.4419 6.81348 85.7056 10.5492 85.7056 15.1583C85.7056 19.7674 89.4419 23.5032 94.0511 23.5032C96.3873 23.5032 98.4572 22.6268 99.9721 21.0793V22.8345C99.9721 26.0992 97.3157 28.5786 94.0511 28.5786H87.4957C86.7856 28.5786 86.2098 29.1544 86.2098 29.8644C86.2098 30.5745 86.7856 31.1503 87.4957 31.1503L90.768 31.1598L94.0511 31.1793C98.6596 31.1793 102.396 27.443 102.396 22.8345V15.1583C102.396 10.5492 98.6596 6.81348 94.0511 6.81348Z" fill="black"/>
<path d="M141.717 21.0793C138.452 21.0793 135.796 18.4236 135.796 15.1583C135.796 11.893 138.452 9.23728 141.717 9.23728C144.982 9.23728 147.638 11.893 147.638 15.1583C147.638 18.4236 144.982 21.0793 141.717 21.0793ZM141.717 6.81348C137.108 6.81348 133.372 10.5492 133.372 15.1583C133.372 19.7674 137.108 23.5032 141.717 23.5032C144.052 23.5032 146.053 22.6256 147.568 21.0793V22.5132C147.568 23.202 148.126 23.7606 148.814 23.7606C149.504 23.7606 150.062 23.202 150.062 22.5132V15.1583C150.062 10.5492 146.326 6.81348 141.717 6.81348Z" fill="black"/>
<path d="M131.682 9.12486C131.682 8.65087 131.106 8.26624 130.396 8.26624C129.685 8.26624 129.11 8.65087 129.11 9.12486V22.6445C129.11 23.1191 129.685 23.5038 130.396 23.5038C131.106 23.5038 131.682 23.1191 131.682 22.6445" fill="black"/>
<path d="M150.668 34.8784C150.668 34.299 150.092 33.8298 149.382 33.8298C148.672 33.8298 148.096 34.299 148.096 34.8784V51.3834C148.096 51.9621 148.672 52.432 149.382 52.432C150.092 52.432 150.668 51.9621 150.668 51.3834" fill="black"/>
<path d="M115.634 8.34198V1.97831C115.634 1.26822 115.059 0.692444 114.349 0.692444C113.638 0.692444 113.063 1.26822 113.063 1.97831V22.2179C113.063 22.9274 113.638 23.5038 114.349 23.5038C115.059 23.5038 115.634 22.9274 115.634 22.2179V13.076C115.634 11.0001 117.447 9.34558 119.835 9.34558C122.224 9.34558 124.018 11.035 124.018 13.1109V22.6445C124.018 23.1191 124.594 23.5038 125.304 23.5038C126.014 23.5038 126.59 23.1191 126.59 22.6445V13.1109C126.59 9.69294 123.566 6.92178 119.835 6.92178C118.197 6.92178 116.804 7.45317 115.634 8.34198Z" fill="black"/>
<path d="M111.083 7.12179H107.602V1.97831C107.602 1.26822 107.027 0.692444 106.316 0.692444C105.607 0.692444 105.031 1.26822 105.031 1.97831V22.2173C105.031 22.9274 105.607 23.5032 106.316 23.5032C107.027 23.5032 107.602 22.9274 107.602 22.2173V9.41068H109.938C110.57 9.41068 110.758 8.80827 111.083 8.26623C111.363 7.79698 111.715 7.12179 111.083 7.12179Z" fill="black"/>
<path d="M139.339 43.1309C138.178 43.1309 138.084 42.4066 138.076 42.2646C137.853 38.662 134.852 35.7991 131.195 35.7991C127.394 35.7991 124.301 38.8922 124.301 42.693C124.301 46.0659 126.568 48.8478 129.772 49.4395H142.508C143.916 49.4395 144.174 50.0147 144.174 50.7254C144.174 51.4349 144.042 52.0107 142.634 52.0107H101.025C99.617 52.0107 99.4093 51.4349 99.4093 50.7254C99.4093 50.0147 99.7158 49.4395 101.124 49.4395H111.905C114.806 48.6258 117.322 45.8505 117.322 42.693C117.322 38.8922 114.229 35.7991 110.428 35.7991C109.348 35.7991 108.3 36.6855 108.03 35.3393C107.834 33.7647 109.218 33.3753 110.428 33.3753C115.574 33.3753 119.745 37.5471 119.745 42.693C119.745 45.4044 118.703 47.7365 116.855 49.4395H124.768C122.936 47.7376 121.877 45.3908 121.877 42.693C121.877 37.5471 126.049 33.3753 131.195 33.3753C136.201 33.3753 140.286 37.3235 140.504 42.2758C140.51 42.4143 140.5 43.1309 139.339 43.1309Z" fill="black"/>
<path d="M150.213 31.7344H148.551C148.3 31.7344 148.096 31.5308 148.096 31.2799V29.9396C148.096 28.9804 148.877 28.1999 149.836 28.1999H150.213C150.464 28.1999 150.668 28.4034 150.668 28.6543C150.668 28.9052 150.464 29.1088 150.213 29.1088H149.836C149.378 29.1088 149.005 29.4816 149.005 29.9396V30.8254H150.213C150.464 30.8254 150.668 31.029 150.668 31.2799C150.668 31.5308 150.464 31.7344 150.213 31.7344Z" fill="black"/>
</g>
<defs>
<clipPath id="clip0_163_185">
<rect width="150" height="56.9396" fill="white" transform="translate(0.666626 0.520248)"/>
</clipPath>
</defs>
</svg>
