<svg width="151" height="36" viewBox="0 0 151 36" fill="none" xmlns="http://www.w3.org/2000/svg">
<path d="M87.5819 31.5944C87.5819 31.8778 87.6738 32.0463 87.8347 32.0463C87.9726 32.031 88.0874 31.9698 88.1947 31.8932L134.944 1.55151C135.733 0.999983 136.683 0.716561 137.641 0.739541H147.913C149.491 0.739541 150.556 1.78897 150.556 3.36695V22.9845C150.556 25.3514 150.027 26.7303 147.928 27.9942L135.465 35.4934C135.343 35.5777 135.197 35.6313 135.044 35.6466C134.891 35.6466 134.745 35.524 134.745 35.0951V12.2067C134.745 11.9386 134.668 11.7548 134.492 11.7548C134.362 11.7701 134.24 11.8237 134.132 11.908L99.9683 34.1069C99.187 34.6355 98.2754 34.9189 97.3408 34.9036H74.6976C73.1043 34.9036 72.0549 33.8541 72.0549 32.2608V3.98741C72.0549 3.78059 71.9629 3.58143 71.7868 3.58143C71.6565 3.59675 71.534 3.65038 71.4268 3.73464L48.8907 17.2547C48.6686 17.4079 48.6073 17.5075 48.6073 17.6147C48.6073 17.7067 48.6533 17.7909 48.7988 17.9594L64.908 34.0533C65.1148 34.2601 65.268 34.4286 65.268 34.6048C65.268 34.758 65.0305 34.8729 64.7395 34.8729H50.193C49.0516 34.8729 48.1707 34.7044 47.5502 34.0916L37.7836 24.3403C37.707 24.2484 37.5998 24.1948 37.4849 24.1871C37.3776 24.1948 37.278 24.2254 37.1861 24.279L20.8701 34.0839C19.882 34.6814 19.2079 34.8499 18.2274 34.8499H3.21357C1.61261 34.8653 0.555542 33.8005 0.555542 32.2225V12.9804C0.555542 10.5981 1.0841 9.23459 3.19828 7.97067L15.7379 0.44081C15.8374 0.379529 15.9523 0.341217 16.0672 0.333557C16.2587 0.333557 16.366 0.525065 16.366 0.961691V26.7302C16.366 26.9983 16.4272 27.1209 16.6187 27.1209C16.7566 27.1056 16.8716 27.0443 16.9941 26.9677L59.3468 1.49024C60.1587 0.938712 61.1469 0.662934 62.1351 0.708894H84.9315C86.5095 0.708894 87.5742 1.75835 87.5742 3.33632L87.5589 31.5791H87.5819V31.5944Z" fill="#131E29"/>
</svg>
