<svg width="67" height="72" viewBox="0 0 67 72" fill="none" xmlns="http://www.w3.org/2000/svg">
<path d="M54.7171 28.0028L39.4972 50.9382C35.248 57.3428 26.8023 59.2123 20.6351 55.1214C14.468 51.0305 12.9152 42.5189 17.1645 36.1186L32.3844 13.1832L20.1865 5.08942L4.68068 28.4515C-3.8838 41.3532 -0.364759 58.7548 12.5369 67.3193C25.4386 75.8838 42.8403 72.3648 51.4048 59.4631C51.5939 59.1771 51.7743 58.8824 51.9502 58.5921L66.893 36.0834L54.7171 28.0028Z" fill="black"/>
<path d="M50.1467 21.3166C56.0331 21.3166 60.805 16.5448 60.805 10.6583C60.805 4.77191 56.0331 3.05176e-05 50.1467 3.05176e-05C44.2603 3.05176e-05 39.4884 4.77191 39.4884 10.6583C39.4884 16.5448 44.2603 21.3166 50.1467 21.3166Z" fill="black"/>
<path d="M56.4282 67.746V68.2123H55.6628V70.614H55.0866V68.2123H54.3212V67.746H56.4282Z" fill="black"/>
<path d="M59.9736 67.746V70.614H59.3974V68.7489L58.6276 70.614H58.1921L57.4179 68.7489V70.614H56.8417V67.746H57.4927L58.4033 69.8794L59.3138 67.746H59.9736Z" fill="black"/>
</svg>
