<svg width="151" height="86" viewBox="0 0 151 86" fill="none" xmlns="http://www.w3.org/2000/svg">
<g clip-path="url(#clip0_163_178)">
<path d="M42.0912 16.6225L39.5416 18.947V18.7285L42.0912 16.2914L41.5349 12.6358L40.0117 12.1921L40.2303 11.9735L41.5548 12.3047L41.3363 10.8609L41.5548 10.5298L41.8859 12.4172L44.5349 13.1921L42.3164 9.75498L46.7469 11.7417L45.3031 9.75498H45.7468L46.8528 11.4172L47.8528 10.5298L48.0714 10.7484L46.8528 11.7483L48.0714 13.9669L46.7469 11.9801L45.3098 13.1854L48.1906 14.0729L48.3031 14.2914L51.5151 15.2914L51.7336 15.7351L50.7336 17.7219L52.6144 20.8278L52.727 21.4901L50.7402 18.2782L49.2833 22.6093L52.3892 23.7152L51.727 27.4835L49.078 22.6093L47.9588 26.0397L47.6276 25.8212L48.6276 22.5099L43.1972 21.0662L43.5283 23.1722L43.1972 22.9537L42.866 20.8477L39.7601 19.404L39.6475 19.1854L42.7535 20.5099L42.0912 16.6225ZM42.866 23.1589L44.972 24.9338L51.9521 28.245L52.9521 22.1523L52.3959 15.8344L50.2899 11.6225L47.078 9.40399L41.9786 9.2914L39.429 12.2848L38.323 15.8344L39.7667 20.3775L42.8727 23.1457L42.866 23.1589Z" fill="#0C1B54"/>
<path d="M19.7005 39.0133H19.5879L19.4753 36.9073L15.8197 37.2384L16.4819 38.5629L16.1508 38.4503L15.5945 37.3444L13.6078 37.457L13.3892 37.2384L15.4952 37.1258L14.0515 35.245L13.2766 37.0265L13.0581 36.9139L13.9455 35.1391L12.621 33.3642L11.7336 33.4768V33.2583L12.3958 33.1457L11.9521 32.4835L12.0647 32.1523L12.727 33.0398L14.3892 32.7086L12.2833 31.6027L15.2766 31.4901L14.2767 30.8278H14.3892L15.3892 31.3841L15.6078 30.6093H15.8263L15.6078 31.3841L17.0515 32.3841L18.9323 32.053L19.1508 32.2715L19.2634 33.8212L20.9256 34.8212L21.2568 35.2649L19.4819 34.245L19.5945 36.7947L21.5813 36.6821L21.6939 38.5695L19.5879 37.0265L19.7005 39.0133ZM19.8131 32.3907L17.4952 30.4768L15.0581 30.1457L12.0647 31.4702L11.4025 33.5762L11.7336 35.9007L13.8396 38.0066L18.0515 39.2252H22.7932L21.6872 35.3444L19.8131 32.3907ZM24.3561 25.8543V25.6358L25.3561 26.5232L24.7998 23.8742L26.7866 25.3179L26.674 23.3311L25.4554 22.8874L25.674 22.7748L26.78 23.2185L26.8925 22.2186L27.1111 22.106L26.9985 23.3245L29.4356 24.2119L31.5415 22.7682L31.7601 22.9868L29.6541 24.3113L32.5349 25.5298L31.9786 23.0927L32.866 23.4238L34.6409 26.5298L32.9786 25.8676L33.3098 30.0795L34.7535 26.8676L34.8661 27.0861L34.5349 28.3046L35.7535 30.0795L33.3164 30.4106L36.3098 33.1788L33.3164 32.9603L32.8727 30.4106L29.7667 30.8543L31.3164 32.6291L30.8727 32.5166L29.323 30.8543L27.3362 31.0729L27.2237 30.9603L27.1111 28.6358L25.4422 27.0398L24.4422 27.702V27.4834L25.3296 26.8212L24.3561 25.8543ZM27.7932 31.8146L31.7667 33.1391L36.7535 33.4702L36.0912 29.9205L35.429 27.702L32.8793 23.1589L29.7733 21.3841L26.8925 21.4967L24.568 23.0464L23.6806 26.8146L24.8992 29.5828L27.7932 31.8146ZM41.866 12.6093L42.3098 15.8212L44.5283 13.3841L41.866 12.6093ZM50.4025 17.9073L48.5151 14.5099L44.9654 13.5099L48.7336 22.1523L50.4025 17.9073Z" fill="#0C1B54"/>
<path d="M16.376 36.0199L19.3694 34.1391L15.0449 32.9205L16.376 36.0199ZM101.495 18.1788L99.5085 21.3907L99.621 20.7285L101.502 17.6225L100.396 15.7417L100.614 15.298L103.826 14.298L105.27 11.7483L104.051 10.7484L104.25 10.5364L105.25 11.4238L106.356 9.76158H106.8L105.575 11.6358L110.005 9.64901L107.787 13.0861L110.436 12.3113L110.767 10.4305L110.985 10.7616L110.767 12.2053L112.091 11.8742L112.31 12.0927L110.76 12.5364L110.204 16.1921L112.753 18.6291V18.8477L110.25 16.4967L109.588 20.3775L112.694 19.053L112.581 19.2715L109.369 20.8212L109.151 22.9271L108.82 23.1457L109.151 21.0397L103.72 22.4835L104.72 25.7947L104.389 26.0132L103.283 22.5762L100.515 27.4503L99.8528 23.5695L102.959 22.4636L101.495 18.1788ZM107.257 25.053L109.363 23.2781L112.462 20.4702L113.906 15.9272L113.018 12.2715L110.369 9.27815L105.27 9.39072L102.058 11.6093L99.9389 15.8344L99.2766 22.2649L100.277 28.3576L107.257 25.053ZM15.7137 37.1258L19.3694 36.7947L14.6012 35.7947L15.7137 37.1258ZM12.8594 33.245L13.9654 34.9073L14.7402 32.9205L12.8594 33.245ZM15.5084 31.5828L15.0647 32.8013L16.8396 32.4702L15.5084 31.5828ZM19.0581 32.3576L17.3959 32.5762L19.1508 33.7152L19.0581 32.3576ZM27.1508 28.3841L27.0382 26.0596L25.7137 26.947C25.4952 26.947 27.1574 28.3907 27.1574 28.3907L27.1508 28.3841ZM29.2568 24.4106L27.0382 23.5232L27.1508 25.7417L29.2568 24.4106ZM27.376 28.6225L29.5945 30.7285L33.0316 30.2848L27.27 25.9603L27.376 28.6225Z" fill="#0C1B54"/>
<path d="M140.283 31.5828L137.29 30.2583L134.853 30.702L133.191 32.0265L134.965 32.3576L136.409 31.3576L136.078 30.5828H136.297L136.628 31.3576L137.628 30.8013L137.846 30.9139L136.846 31.5762L139.84 31.6888L137.734 32.7947L139.396 33.1258L139.952 32.2384L140.065 32.5695L139.621 33.2318L140.283 33.3444L140.396 33.5629L139.508 33.4503L138.184 35.2252L139.071 37L138.853 37.1126L138.078 35.3378L136.634 37.1126L138.74 37.2252L138.522 37.4437L136.535 37.3311L135.979 38.4371L135.648 38.5497L136.422 37.3311L132.727 37.0265L132.614 39.0133H132.396L132.508 37.0265L130.403 38.5762L130.515 36.6887L132.502 36.8013L132.614 34.2517L130.84 35.2517V35.1391L130.621 35.5828L129.416 39.3444H134.29L138.502 38.1258L140.608 36.0199L140.939 33.6954L140.283 31.5828ZM119.005 32.9073L116.012 33.1258L119.005 30.3576L116.568 30.0265L117.787 28.2517L117.455 27.0331L117.568 26.8146L119.012 30.0265L119.343 25.8146L117.681 26.4768L119.456 23.3709L120.343 23.0398L119.681 25.5894L122.561 24.3709L120.455 23.0464L120.674 22.8278L122.78 24.2715L125.33 23.2715L125.217 22.053L125.436 22.1656L125.548 23.1656L126.654 22.7219L126.873 22.8345L125.654 23.2782L125.542 25.2649L127.528 23.8212L126.972 26.4702L127.972 25.5828V25.8013L126.972 26.8013L127.859 27.4636V27.6821L126.859 27.0199L125.197 28.5696L125.085 30.894L124.866 31.1126L122.879 30.894L121.217 32.5563L120.773 32.6689L122.323 30.894L119.217 30.4503L119.005 32.9073ZM124.303 31.8013L127.184 29.5828L128.402 26.8146L127.515 23.0464L125.078 21.6027L122.197 21.4901L119.091 23.2649L116.542 27.808L115.879 30.0265L115.323 33.4636L120.31 33.1325L124.283 31.808L124.303 31.8013ZM105.462 11.9338L104.018 14.0398L106.899 13.1854L105.462 11.9338ZM110.336 12.596L107.687 13.3709L109.906 15.808L110.336 12.596ZM107.23 13.4835L103.707 14.5099L101.82 17.947L103.482 22.1589L107.23 13.4835Z" fill="#0C1B54"/>
<path d="M137.621 35.7947L132.853 36.7947L136.508 37.1258L137.621 35.7947ZM24.4687 49.0927C24.4687 49.0927 53.3959 43.5497 76.8926 43.5497C100.946 43.5497 129.316 49.0927 129.316 49.0927L76.9985 36.9007L24.4687 49.0927ZM139.396 33.245L137.515 32.9139L138.29 34.9007L139.396 33.245ZM137.177 32.9139L132.853 34.1325L135.846 36.1192L137.177 32.9139ZM133.204 32.3576L133.091 33.6821L134.866 32.5762L133.204 32.3576ZM65.4753 18.4835C67.3229 19.8614 69.4357 20.8423 71.6806 21.3643C72.6939 21.6567 73.7348 21.8431 74.7866 21.9205C75.7042 22.0483 76.6286 22.1212 77.5548 22.1391C78.5204 22.1808 79.4874 22.1075 80.4356 21.9205C82.6541 21.4768 84.8661 20.9205 87.0581 20.3709C87.7204 18.0464 88.2767 15.8278 88.9389 13.7484C88.4952 14.1921 88.2767 14.8543 87.7204 15.1921C86.6429 16.9352 85.1114 18.3523 83.2899 19.2914C81.4756 20.1087 79.5174 20.5589 77.5283 20.6159C76.7493 20.5979 75.9726 20.5248 75.2038 20.3974C73.9273 20.2345 72.7123 19.753 71.6707 18.9973C70.6291 18.2416 69.7944 17.2359 69.2436 16.0728C68.71 14.9869 68.3375 13.8291 68.1376 12.6358C67.8817 11.584 67.8434 10.491 68.025 9.42386C68.2407 8.0174 68.7312 6.6672 69.4687 5.45035C70.3038 3.81265 71.7211 2.54648 73.4422 1.90067C75.718 1.07238 78.192 0.95688 80.5349 1.56954C81.7849 1.86673 82.982 2.35362 84.0846 3.01327C85.5291 3.90267 86.7449 5.11843 87.6343 6.56293C87.9654 7.11922 88.2965 7.78147 88.7403 8.54968V8.10596L87.078 2.1457C86.9654 2.03311 86.8595 1.81457 86.6343 1.81457C85.0846 1.37086 83.6409 0.927157 82.0912 0.596031C80.7532 0.240828 79.3761 0.0539565 77.9919 0.0397421C77.0677 0.0220407 76.1433 0.0596443 75.2237 0.152334L72.8992 0.48346C70.6243 0.894455 68.4446 1.72057 66.4687 2.92054C65.0033 3.79315 63.8124 5.05978 63.0316 6.57616C62.0224 8.59726 61.7103 10.8956 62.1442 13.1126C62.556 15.2632 63.7322 17.1922 65.4555 18.5431L65.4753 18.4835ZM136.74 31.6689L135.416 32.4437L137.191 32.7748L136.74 31.6689ZM131.091 34.7748L130.873 35.106L131.204 34.7748H131.091ZM124.886 28.5696L124.999 25.9205L119.237 30.2451L122.674 30.6887L124.886 28.5696ZM125.104 28.351C125.104 28.351 126.767 27.0265 126.548 26.9073L125.224 26.0199L125.104 28.351ZM125.217 23.4768L122.999 24.3643L125.104 25.6888L125.217 23.4768ZM133.085 32.0133L132.866 32.2318V32.3907L133.197 32.0596L133.085 32.0133ZM132.866 32.3444L132.535 32.5629L131.21 34.7815L132.76 33.7815L132.866 32.3444Z" fill="#0C1B54"/>
<path d="M86.2502 83.7483C86.2502 84.8278 87.3296 85.1457 88.2899 85.1457C89.2502 85.1457 90.0117 84.7616 90.0117 84.0662C90.0117 83.4901 89.568 83.3047 88.7998 83.1126L87.4025 82.8609C86.6409 82.7351 85.4952 82.4768 85.4952 81.2053C85.4952 79.9338 86.4489 79.298 88.0449 79.298C89.3164 79.298 90.6542 79.7417 90.6939 81.2848H89.7402C89.674 80.8411 89.3561 80.0729 87.833 80.0729C87.131 80.0729 86.3032 80.3907 86.3032 81.0927C86.3032 81.4768 86.5548 81.7947 87.323 81.9868L88.9124 82.2384C89.3561 82.3047 90.8197 82.5563 90.8197 83.8278C90.8197 85.4172 89.4224 85.8676 88.0846 85.8676C86.7469 85.8676 85.1574 85.4239 85.1574 83.6424H86.1773V83.7682L86.2502 83.7483ZM81.6144 79.6093H82.568V85.9139H81.6144V79.6093ZM72.9588 85.9139H73.9124V83.2649H76.3296C77.0912 83.2649 77.5415 83.5828 77.6012 84.7947C77.6089 85.2015 77.651 85.6069 77.727 86.0066H78.7468C78.4952 85.755 78.4952 85.4305 78.429 84.2848C78.4605 83.9854 78.3807 83.6849 78.2048 83.4406C78.0289 83.1963 77.7692 83.0253 77.4753 82.9603C77.8091 82.8575 78.0979 82.644 78.2941 82.3551C78.4903 82.0662 78.5823 81.7191 78.5548 81.3709C78.5661 81.1447 78.5288 80.9188 78.4453 80.7083C78.3619 80.4979 78.2343 80.3077 78.071 80.1508C77.9078 79.9939 77.7128 79.8738 77.4993 79.7986C77.2857 79.7235 77.0584 79.6951 76.8329 79.7153H72.8594C72.9257 79.649 72.9257 85.9536 72.9257 85.9536L72.9588 85.9139ZM73.9124 82.351V80.3642H76.5614C77.323 80.3642 77.6409 80.7483 77.6409 81.3841C77.6409 81.8278 77.3892 82.404 76.429 82.404H73.8197L73.9124 82.351ZM69.7733 85.9139H70.7932L67.9257 79.6093H66.8329L63.9654 85.9139H64.9853L65.7468 84.0662H68.7998L69.7733 85.9139ZM68.5614 83.2649H66.1442L67.3561 80.5298L68.5614 83.2649ZM57.7998 85.9139H58.7535V83.3841H61.1111C61.3822 83.417 61.6573 83.3887 61.9161 83.3012C62.1749 83.2138 62.4108 83.0695 62.6065 82.8789C62.8021 82.6883 62.9526 82.4563 63.0468 82.1999C63.141 81.9436 63.1766 81.6693 63.1508 81.3974C63.1508 80.1854 62.4488 79.5497 61.0515 79.5497H57.7402V85.8543H57.8064L57.7998 85.9139ZM58.7535 82.5364V80.4371H61.1707C61.3118 80.4178 61.4555 80.4305 61.5911 80.474C61.7267 80.5176 61.8508 80.591 61.9544 80.6888C62.0579 80.7866 62.1382 80.9064 62.1894 81.0393C62.2406 81.1722 62.2613 81.315 62.2501 81.457C62.2501 82.1192 61.9323 82.5364 60.9786 82.5364H58.7535ZM131.462 60.2517H149.164L150.118 65.9205C150.118 65.9205 148.27 61.2848 146.489 60.9536H142.224V73.053C142.241 73.3234 142.313 73.5874 142.435 73.8289C142.558 74.0704 142.729 74.2842 142.937 74.4573C143.146 74.6303 143.387 74.7589 143.647 74.8351C143.907 74.9114 144.18 74.9337 144.449 74.9007H136.171C136.171 74.9007 138.396 74.3245 138.396 73.245V61.0199H134.323C134.323 61.0199 132.224 61.0199 130.628 65.9205L131.462 60.2517ZM127.389 60.2517L128.601 65.0927C128.601 65.0927 126.946 61.2119 123.893 61.0199H118.82V66.9801H122.793C123.484 66.8828 124.113 66.5262 124.551 65.9826C124.988 65.439 125.203 64.7491 125.151 64.053V70.5497C125.151 70.5497 124.489 67.6821 122.793 67.6821H118.82V74.1788H124.297C124.297 74.1788 128.687 74.1126 129.595 70.2053L128.575 74.841H112.681C112.681 74.841 114.906 74.3974 114.906 73.1192V62.0993C114.906 62.0993 114.588 60.192 112.866 60.192H127.436L127.389 60.2517ZM86.3296 60.2517H92.184L98.4886 70.755L104.853 60.2517H110.21C110.21 60.2517 108.171 60.6358 108.171 61.9735V73.053C108.171 73.053 108.171 74.9007 110.396 74.9007H102.363C102.363 74.9007 104.35 74.5166 104.35 73.053V62.8013L96.8396 75.3444L89.5151 62.8013V72.9868C89.5508 73.4985 89.783 73.9766 90.1632 74.321C90.5434 74.6654 91.042 74.8494 91.5548 74.8345H86.2038C86.2038 74.8345 88.5614 74.5828 88.5614 72.9868V61.9073C88.4952 61.9073 88.4952 60.6358 86.3363 60.2517M72.9654 60.2517H64.9257C64.9257 60.2517 67.025 60.9537 67.025 62.159V69.6755C67.025 69.6755 66.9587 75.3444 75.1773 75.3444C83.3958 75.3444 83.0117 70.3179 83.0117 70.3179V62.1921C83.0591 61.6461 83.3186 61.1405 83.7347 60.7839C84.1508 60.4273 84.6901 60.248 85.2369 60.2848H79.9389C79.9389 60.2848 82.0383 60.4106 82.1641 62.1324V70.3444C82.1641 70.3444 82.2303 74.4172 76.4356 74.4172C70.6409 74.4172 70.8992 70.404 70.8992 70.404V62.1921C70.8329 62.1921 70.8329 60.2848 72.9389 60.2848M50.0912 69.4768H57.0316L53.5283 62.4702L50.0912 69.4768ZM44.2965 74.7748C44.9579 74.6143 45.5805 74.323 46.1276 73.9181C46.6747 73.5132 47.1352 73.0029 47.4819 72.4172C48.5018 70.5099 53.6607 60.2583 53.6607 60.2583H56.7137L63.2104 72.8411C63.2104 72.8411 64.5349 74.8278 66.078 74.8278H56.568C56.568 74.8278 59.217 73.9338 58.7932 72.8411C58.3694 71.7484 57.5813 70.2318 57.5813 70.2318H49.8992L48.5747 72.649C48.5747 72.649 47.6806 74.8742 51.1243 74.8742H44.4223V74.7748H44.2965ZM21.6939 60.2583H29.7137C29.7137 60.2583 27.6144 60.702 27.6144 61.9801V66.8808H37.5482V62.245C37.5482 62.245 37.2965 60.2053 35.5084 60.2053H43.4025C43.4025 60.2053 41.3627 60.9669 41.3627 62.245V73.053C41.4391 73.5372 41.6873 73.9777 42.0618 74.2939C42.4364 74.6101 42.9123 74.7808 43.4025 74.7748H35.5084C35.5084 74.7748 37.5482 74.1987 37.5482 73.1192V67.5828H27.5548V73.0596C27.5649 73.3157 27.626 73.5672 27.7345 73.7994C27.843 74.0315 27.9967 74.2397 28.1866 74.4118C28.3766 74.5838 28.5989 74.7163 28.8407 74.8014C29.0824 74.8864 29.3387 74.9225 29.5945 74.9073H21.6939C21.6939 74.9073 23.7336 74.6556 23.7336 73.2517V62.1921C23.7129 61.6697 23.4872 61.1766 23.1054 60.8196C22.7235 60.4626 22.2164 60.2704 21.6939 60.2848M18.4488 60.2848L19.1508 66.5232C19.1508 66.5232 17.2435 60.6689 10.9389 60.6689C4.63427 60.6689 4.31639 67.1656 4.31639 67.6755C4.31639 68.1855 4.63426 74.4901 10.9985 74.4901C12.791 74.5052 14.5462 73.9783 16.0341 72.9785C17.5219 71.9788 18.6729 70.5527 19.3362 68.8874L18.3164 75.4437C18.3164 75.4437 18.1906 73.8543 17.1045 74.1192C15.0857 74.7691 12.9858 75.1325 10.866 75.1987C7.99849 75.1987 0.104454 74.1192 0.104454 67.6225C0.104454 61.1258 7.9389 59.8742 10.8727 59.8742C12.868 59.9312 14.8426 60.2953 16.727 60.9536C16.8824 61.043 17.0562 61.0957 17.2351 61.1077C17.414 61.1198 17.5933 61.0909 17.7593 61.0232C17.9254 60.9555 18.0738 60.8508 18.1933 60.7171C18.3127 60.5834 18.4001 60.4242 18.4488 60.2517" fill="#0C1B54"/>
</g>
<defs>
<clipPath id="clip0_163_178">
<rect width="150" height="85.9801" fill="white" transform="translate(0.111084)"/>
</clipPath>
</defs>
</svg>
