<svg width="151" height="48" viewBox="0 0 151 48" fill="none" xmlns="http://www.w3.org/2000/svg">
<path d="M15.4592 8.67281H5.09046V0.00402832H0.222168V22.2083H5.09046V13.013H15.4592V22.2083H20.3254V0.00402832H15.4592V8.67281ZM121.174 1.27051C120.153 2.31546 120.112 3.84012 120.085 4.72888V22.2083H124.946V15.1237H135.272V22.2083H140.154V0.00402832H124.981C123.538 0.0173093 122.19 0.226618 121.174 1.27051ZM126.187 4.34267H135.273V10.7882H124.946V5.61074C124.966 5.35574 124.918 4.89357 125.133 4.61998C125.363 4.33151 125.729 4.35489 126.187 4.34267ZM86.7421 0.00402832H71.5412V22.2083H76.4095V4.34267H85.5373C85.9909 4.35489 86.3628 4.33151 86.5881 4.61944C86.8059 4.89303 86.7628 5.35521 86.7782 5.61021V22.2078H91.6417V4.72888C91.6147 3.84012 91.5764 2.31546 90.5596 1.27051C89.5391 0.226618 88.1919 0.0173093 86.7421 0.00402832ZM62.3667 16.5994C62.3491 16.8598 62.3932 17.3118 62.1786 17.5876C61.9481 17.8787 61.5778 17.8532 61.1262 17.8654H52.0006V0.00402832H47.1302V22.2083H62.3343C63.7803 22.1971 65.1286 21.982 66.1459 20.9381C67.1675 19.8947 67.2063 18.3722 67.2339 17.4802V0.00402832H62.3677V16.5994H62.3667ZM116.049 4.72888C116.025 3.84012 115.984 2.31546 114.967 1.27051C113.95 0.226618 112.6 0.0173093 111.156 0.00402832H95.9581V22.2083H111.156C112.6 22.1971 113.95 21.982 114.967 20.9381C115.984 19.8947 116.025 18.3722 116.049 17.4802V4.72888ZM111.2 16.5994C111.182 16.8598 111.227 17.3118 111.014 17.5876C110.786 17.8787 110.411 17.8532 109.959 17.8654H100.822V4.34267H109.959C110.412 4.35489 110.786 4.33151 111.014 4.61944C111.226 4.89303 111.182 5.35521 111.2 5.61021V16.5994ZM33.7323 9.71882L27.8275 0.00402832H22.045L31.1319 14.0027V22.2083H36.3295V14.0027L45.4148 0.00402832H39.6301L33.7323 9.71882ZM145.031 0.00402832H150.222V22.2083H145.031V0.00402832ZM0.222168 28.0174H150.222V31.3621H0.222168V28.0174ZM97.7611 44.6261C98.2398 44.5709 98.6722 44.4274 99.0217 44.0651C99.4951 43.5822 99.5179 42.8788 99.5269 42.4661V39.829C99.5174 39.4184 99.4945 38.7123 99.0217 38.2289C98.5537 37.746 97.9295 37.6483 97.2617 37.6419H90.1952V47.975H92.48V44.6511H95.3673L97.5922 47.975H100.003L97.7611 44.6261ZM97.3797 42.074C97.369 42.1803 97.3574 42.2913 97.2952 42.3731C97.19 42.507 97.0163 42.4979 96.8081 42.4979H92.4806V39.7945H96.8081C97.0163 39.8003 97.19 39.7892 97.2952 39.9241C97.3574 40.0048 97.3696 40.1201 97.3797 40.2211V42.074ZM70.1228 44.6261C70.6025 44.5709 71.0344 44.4274 71.3861 44.0651C71.8578 43.5822 71.8812 42.8788 71.8902 42.4661V39.829C71.8812 39.4184 71.8578 38.7123 71.3861 38.2289C70.917 37.746 70.2912 37.6483 69.6218 37.6419H62.5585V47.975H64.8407V44.6511H67.7295L69.9544 47.975H72.363L70.1228 44.6261ZM69.7392 42.074C69.7313 42.1803 69.719 42.2913 69.6574 42.3731C69.5522 42.507 69.3796 42.4979 69.1697 42.4979H64.8412V39.7945H69.1697C69.3796 39.8003 69.5522 39.7892 69.6574 39.9241C69.7196 40.0048 69.7318 40.1201 69.7392 40.2211V42.074ZM40.5773 37.6424V39.905H44.1074V47.9756H46.371V39.905H49.9043V37.6424H40.5773ZM16.9871 37.6424V47.9756H19.2485V41.4381L21.4622 47.9756H23.4613L25.6728 41.4381V47.9756H27.9338V37.6424H24.9349L22.4604 44.9193L19.9864 37.6424H16.9871ZM124.144 47.9756H126.405V45.0139H131.189C131.86 45.0107 132.484 44.9108 132.95 44.4279C133.425 43.9408 133.447 43.239 133.458 42.8305V39.8311C133.447 39.4189 133.424 38.7166 132.95 38.231C132.484 37.7503 131.86 37.6493 131.189 37.6429H124.144V47.9756ZM131.301 42.4331C131.297 42.5351 131.286 42.6504 131.224 42.7322C131.118 42.864 130.945 42.8608 130.734 42.8608H126.405V39.7939H130.734C130.945 39.7982 131.118 39.7897 131.224 39.9257C131.286 40.0054 131.297 40.1175 131.301 40.2216V42.4331ZM81.2204 40.0314C81.3208 39.9007 81.4935 39.9076 81.7012 39.9028H88.2051V37.6424H81.1402C80.4708 37.6488 79.8482 37.7497 79.3743 38.2305C78.901 38.716 78.8845 39.4184 78.8739 39.829V45.789C78.8851 46.2002 78.9015 46.9062 79.3743 47.3891C79.8487 47.8699 80.4708 47.9708 81.1402 47.9756H85.9368C86.6072 47.9713 87.2298 47.8704 87.7015 47.3891C88.1717 46.9062 88.1935 46.2002 88.2046 45.789V41.7824H83.3294V43.8H85.9394V45.2848C85.9362 45.39 85.924 45.5053 85.8576 45.5839C85.754 45.7167 85.5808 45.7093 85.3726 45.7125H81.7006C81.4924 45.7093 81.3203 45.7167 81.2199 45.5829C81.1556 45.5053 81.1402 45.39 81.1359 45.2848V40.331C81.1402 40.2285 81.1561 40.1143 81.2204 40.0314ZM119.901 45.3714C119.893 45.4915 119.913 45.7019 119.816 45.8315C119.705 45.9654 119.536 45.9553 119.324 45.96H115.086V37.6424H112.827V47.9756H119.887C120.557 47.9724 121.182 47.8714 121.658 47.3891C122.129 46.9025 122.148 46.1959 122.159 45.7837V37.6424H119.901V45.3714H119.901ZM110.399 38.231C109.931 37.7503 109.303 37.6493 108.636 37.6429H103.839C103.171 37.6493 102.547 37.7503 102.075 38.231C101.604 38.7166 101.584 39.4189 101.572 39.8311V45.7895C101.584 46.2007 101.604 46.9067 102.075 47.3896C102.548 47.8704 103.171 47.9713 103.839 47.9761H108.636C109.304 47.9719 109.931 47.8709 110.399 47.3896C110.875 46.9067 110.895 46.2007 110.905 45.7895V39.8306C110.894 39.4184 110.874 38.716 110.399 38.231ZM108.639 45.2854C108.635 45.3906 108.623 45.5058 108.561 45.5845C108.455 45.7173 108.284 45.7098 108.074 45.713H104.404C104.194 45.7098 104.022 45.7173 103.919 45.5845C103.853 45.5058 103.839 45.3906 103.833 45.2854V40.3316C103.839 40.2285 103.853 40.1143 103.919 40.033C104.022 39.9002 104.195 39.9103 104.404 39.9023H108.074C108.284 39.9103 108.455 39.9002 108.561 40.033C108.623 40.1137 108.636 40.228 108.639 40.3316V45.2854ZM60.1142 38.231C59.6457 37.7503 59.0183 37.6493 58.3516 37.6429H53.5529C52.8862 37.6493 52.262 37.7503 51.7902 38.231C51.3179 38.7166 51.2993 39.4189 51.2871 39.8311V45.7895C51.2988 46.2007 51.3179 46.9067 51.7902 47.3896C52.262 47.8704 52.8862 47.9713 53.5529 47.9761H58.3516C59.0188 47.9719 59.6457 47.8709 60.1142 47.3896C60.5897 46.9067 60.6083 46.2007 60.6173 45.7895V39.8306C60.6083 39.4184 60.5897 38.716 60.1142 38.231ZM58.3537 45.2854C58.3516 45.3906 58.3367 45.5058 58.274 45.5845C58.1699 45.7173 57.9983 45.7098 57.7869 45.713H54.117C53.9088 45.7098 53.7372 45.7173 53.6336 45.5845C53.5693 45.5058 53.5529 45.3906 53.5476 45.2854V40.3316C53.5529 40.2285 53.5693 40.1143 53.6336 40.033C53.7367 39.9002 53.9088 39.9103 54.117 39.9023H57.7869C57.9983 39.9103 58.1704 39.9002 58.274 40.033C58.3372 40.1137 58.3516 40.228 58.3537 40.3316V45.2854ZM38.6872 38.231C38.2197 37.7503 37.5923 37.6493 36.9245 37.6429H32.1279C31.4586 37.6493 30.8338 37.7503 30.3653 38.231C29.8919 38.7166 29.8723 39.4189 29.859 39.8311V45.7895C29.8723 46.2007 29.8925 46.9067 30.3653 47.3896C30.8338 47.8704 31.4591 47.9713 32.1279 47.9761H36.9245C37.5928 47.9719 38.2197 47.8709 38.6872 47.3896C39.1637 46.9067 39.1812 46.2007 39.1924 45.7895V39.8306C39.1812 39.4184 39.1637 38.716 38.6872 38.231ZM36.9277 45.2854C36.9245 45.3906 36.9134 45.5058 36.848 45.5845C36.7439 45.7173 36.5712 45.7098 36.3614 45.713H32.6916C32.4823 45.7098 32.3091 45.7173 32.2076 45.5845C32.1433 45.5058 32.1279 45.3906 32.1221 45.2854V40.3316C32.1279 40.2285 32.1433 40.1143 32.2076 40.033C32.3091 39.9002 32.4823 39.9103 32.6916 39.9023H36.3614C36.5707 39.9103 36.7439 39.9002 36.848 40.033C36.9134 40.1137 36.9245 40.228 36.9277 40.3316V45.2854Z" fill="#003C83"/>
</svg>
