<svg width="200" height="64" viewBox="0 0 200 64" fill="none" xmlns="http://www.w3.org/2000/svg">
<g clip-path="url(#clip0_81_2348)">
<path d="M54.2086 58.8184C54.2086 61.2824 52.4739 63.2931 50.3252 63.2931H3.8833C1.73467 63.2931 0 61.3022 0 58.8184V5.28009C0 2.79635 1.73467 0.80542 3.8833 0.80542H50.345C52.4739 0.80542 54.2086 2.79635 54.2086 5.28009V58.8184Z" fill="#D51317"/>
<path d="M27.124 57.3597C26.2567 57.3597 25.7244 56.7289 25.2119 56.1178L25.1528 56.0587C23.0042 53.4961 21.0724 51.0518 19.2786 48.5878L19.2588 48.5681C19.1997 48.4892 19.18 48.3906 19.18 48.2921C19.18 47.9767 19.4362 47.7401 19.7319 47.7401C19.8896 47.7401 20.0473 47.7993 20.1459 47.9176L20.1656 47.9373C21.9594 50.3816 23.8715 52.8062 26.0004 55.3491L26.0595 55.4082C26.5129 55.9404 26.7889 56.2558 27.1043 56.2558C27.6168 56.2361 28.4841 55.0731 28.9572 54.4423C29.1346 54.186 29.3121 53.9692 29.45 53.7918C32.1506 50.4999 34.4372 47.4642 36.4873 44.5271C38.8133 41.176 40.8634 37.7461 42.5389 34.3358C43.15 33.094 43.7808 31.793 44.1356 30.5511C44.9833 27.6731 45.0424 24.0658 44.2736 21.109C43.5048 18.1521 41.9082 15.5698 40.6663 14.1308C38.6556 11.7851 34.2204 7.86236 27.2029 7.86236C26.71 7.86236 26.1778 7.88208 25.6653 7.9215C22.807 8.13834 20.343 8.94654 17.879 10.4447C13.3452 13.2044 10.4869 17.4228 9.58015 22.6268C9.06763 25.5836 9.36331 28.8756 10.3686 31.6353C11.2163 33.9613 12.5764 36.3268 13.8971 38.5345C14.9222 40.2495 16.0063 41.9842 17.1496 43.6794L18.7857 41.3731L20.8358 38.4163L16.0063 37.9235C15.9078 37.9235 15.8289 37.884 15.7501 37.8249C15.4938 37.6475 15.4347 37.3124 15.6121 37.0561C15.7106 36.9181 15.8881 36.8196 16.0655 36.8196C16.0852 36.8196 16.1049 36.8196 16.1246 36.8196L21.5455 37.3715L30.4554 24.5389L18.9632 23.3759C18.8646 23.3562 18.7857 23.3364 18.7069 23.2773C18.5886 23.1985 18.5098 23.0605 18.4901 22.9225C18.4703 22.7845 18.4901 22.6268 18.5886 22.5085C18.6872 22.3705 18.8646 22.272 19.042 22.272C19.0617 22.272 19.0814 22.272 19.1011 22.272L31.2044 23.4941L33.8459 19.6897L33.9247 19.5911C34.0233 19.4531 34.181 19.3743 34.3584 19.3743C34.6541 19.3743 34.9103 19.6108 34.9103 19.9262C34.9103 20.0248 34.8906 20.1234 34.8315 20.2219L32.1112 24.1446L37.3152 34.9272C37.3941 35.1046 37.3941 35.3215 37.2758 35.4792C37.1772 35.6171 36.9998 35.7157 36.8224 35.7157C36.7041 35.7157 36.6056 35.6763 36.507 35.6171C36.4282 35.5777 36.3887 35.4989 36.3493 35.4397V35.42L31.4016 25.1894L22.5113 38.0023L24.7585 42.7924C24.8374 42.9698 24.8374 43.1866 24.7191 43.3443C24.6206 43.4823 24.4431 43.5809 24.2657 43.5809C24.1475 43.5809 24.0489 43.5414 23.9503 43.4823C23.8715 43.4232 23.8124 43.364 23.7729 43.2655L21.8017 39.0471L19.7122 42.063L17.6621 45.0199C17.5439 45.1578 17.3862 45.2367 17.2285 45.2367C17.0708 45.2367 16.9131 45.1776 16.8145 45.0593L16.7948 45.0396L16.6371 44.803C15.3558 42.9304 14.1534 40.9986 13.0101 39.1062C11.6302 36.8393 10.2504 34.4344 9.36331 32.0098C8.27914 29.0727 7.98346 25.5639 8.51569 22.4297C9.48158 16.9103 12.5173 12.4159 17.327 9.47877C19.9291 7.88208 22.5705 7.03445 25.6062 6.79791C26.1384 6.75848 26.6903 6.73877 27.2029 6.73877C29.9626 6.73877 32.6237 7.31042 35.068 8.45373C37.4926 9.57733 39.7398 11.2923 41.5336 13.3818C43.2289 15.353 44.6876 18.1916 45.3775 20.8133C46.1857 23.9475 46.1266 27.7914 45.2198 30.8468C44.8256 32.1675 44.1751 33.5276 43.5443 34.8089C41.8293 38.2586 39.7792 41.7279 37.4138 45.1381C35.3637 48.095 33.0377 51.1504 30.3174 54.462C30.1794 54.6197 30.0217 54.8365 29.864 55.0731C29.1149 56.0784 28.2082 57.3203 27.1634 57.34L27.124 57.3597Z" fill="white" stroke="white" stroke-width="1.3639" stroke-miterlimit="10"/>
<path d="M71.4962 15.5107H65.4051L65.6022 15.3136V22.6071L65.3854 22.3508H71.5947C72.6986 22.3508 73.5857 22.0749 74.2953 21.5032C74.9852 20.9513 75.34 20.0839 75.34 18.9012C75.34 17.9944 75.1626 17.2848 74.7881 16.792C74.4136 16.2992 73.9405 15.9641 73.3491 15.7669C72.7577 15.6093 72.1467 15.5107 71.4962 15.5107ZM71.2793 7.19214H65.2671L65.6022 6.69934V13.6577L65.2868 13.3029H71.3188C72.127 13.3029 72.8366 13.0467 73.428 12.5144C74.0193 11.9822 74.315 11.1937 74.315 10.149C74.315 9.2225 74.039 8.49315 73.5068 7.98063C72.9746 7.4484 72.2255 7.19214 71.2793 7.19214ZM71.6144 4.98438C73.2505 4.98438 74.5121 5.39833 75.3992 6.24596C76.2862 7.09358 76.7199 8.29602 76.7199 9.83358C76.7199 10.6615 76.5425 11.4106 76.168 12.1005C75.7934 12.7904 75.2415 13.3423 74.5318 13.7563C73.8222 14.1703 72.9352 14.3871 71.8904 14.4265L71.8313 13.638C72.4818 13.638 73.152 13.7366 73.8419 13.914C74.5318 14.0914 75.1626 14.4068 75.754 14.8011C76.3454 15.215 76.8185 15.7472 77.1733 16.4175C77.5281 17.0877 77.7252 17.9156 77.7252 18.9012C77.7252 19.9656 77.5478 20.8527 77.193 21.5623C76.8382 22.272 76.3651 22.8633 75.7737 23.297C75.1823 23.7307 74.5318 24.0461 73.8222 24.2432C73.1126 24.4206 72.3832 24.5192 71.6539 24.5192H64.3012C63.9858 24.5192 63.7296 24.4009 63.5127 24.1841C63.2959 23.9672 63.1973 23.6913 63.1973 23.3759V6.10797C63.1973 5.79258 63.2959 5.5166 63.5127 5.31948C63.7296 5.10265 63.9858 5.00409 64.3012 5.00409H71.6144V4.98438Z" fill="#D51317" stroke="#D5151A" stroke-width="0.584531" stroke-miterlimit="10"/>
<path d="M98.0682 14.7615C98.0682 13.2436 97.7725 11.8835 97.1615 10.7205C96.5504 9.53774 95.7422 8.63098 94.6974 7.96077C93.6527 7.29055 92.4502 6.95544 91.0704 6.95544C89.6905 6.95544 88.4684 7.29055 87.4236 7.96077C86.3789 8.63098 85.551 9.55745 84.9596 10.7205C84.3682 11.9032 84.0726 13.2436 84.0726 14.7615C84.0726 16.2793 84.3682 17.6197 84.9596 18.8025C85.551 19.9852 86.3789 20.9117 87.4236 21.5819C88.4684 22.2521 89.6905 22.5872 91.0704 22.5872C92.4502 22.5872 93.6527 22.2521 94.6974 21.5819C95.7422 20.9117 96.5701 19.9852 97.1615 18.8025C97.7725 17.6197 98.0682 16.2793 98.0682 14.7615ZM100.473 14.7615C100.473 16.2005 100.237 17.5212 99.7832 18.7433C99.3101 19.9655 98.6596 21.03 97.8317 21.9367C97.0038 22.8435 95.9984 23.5531 94.8354 24.0656C93.6724 24.5781 92.4305 24.8147 91.0704 24.8147C89.6905 24.8147 88.4289 24.5584 87.2856 24.0656C86.1423 23.5728 85.1567 22.8632 84.3091 21.9367C83.4615 21.03 82.811 19.9655 82.3576 18.7433C81.8845 17.5212 81.6677 16.2005 81.6677 14.7615C81.6677 13.3028 81.9042 11.9821 82.3576 10.7599C82.8307 9.53774 83.4812 8.47328 84.3091 7.56652C85.137 6.65976 86.1423 5.96983 87.2856 5.45732C88.4289 4.9448 89.6905 4.70825 91.0704 4.70825C92.4305 4.70825 93.6921 4.96451 94.8354 5.45732C95.9984 5.96983 96.984 6.65976 97.8317 7.56652C98.6793 8.47328 99.3298 9.53774 99.7832 10.7599C100.237 11.9821 100.473 13.3028 100.473 14.7615Z" fill="#D51317" stroke="#D5151A" stroke-width="0.584531" stroke-miterlimit="10"/>
<path d="M120.796 14.7615C120.796 13.2436 120.501 11.8835 119.89 10.7205C119.279 9.53774 118.451 8.63098 117.426 7.96077C116.381 7.29055 115.178 6.95544 113.799 6.95544C112.419 6.95544 111.197 7.29055 110.152 7.96077C109.107 8.63098 108.279 9.55745 107.688 10.7205C107.096 11.9032 106.801 13.2436 106.801 14.7615C106.801 16.2793 107.096 17.6197 107.688 18.8025C108.279 19.9852 109.107 20.9117 110.152 21.5819C111.197 22.2521 112.419 22.5872 113.799 22.5872C115.178 22.5872 116.381 22.2521 117.426 21.5819C118.47 20.9117 119.298 19.9852 119.89 18.8025C120.501 17.6197 120.796 16.2793 120.796 14.7615ZM123.201 14.7615C123.201 16.2005 122.965 17.5212 122.511 18.7433C122.038 19.9655 121.388 21.03 120.56 21.9367C119.732 22.8435 118.727 23.5531 117.564 24.0656C116.401 24.5781 115.159 24.8147 113.799 24.8147C112.419 24.8147 111.157 24.5584 110.014 24.0656C108.87 23.5728 107.885 22.8632 107.037 21.9367C106.209 21.03 105.539 19.9655 105.086 18.7433C104.613 17.5212 104.396 16.2005 104.396 14.7615C104.396 13.3028 104.632 11.9821 105.086 10.7599C105.559 9.53774 106.209 8.47328 107.037 7.56652C107.885 6.65976 108.87 5.96983 110.014 5.45732C111.157 4.9448 112.419 4.70825 113.799 4.70825C115.159 4.70825 116.42 4.96451 117.564 5.45732C118.727 5.96983 119.712 6.65976 120.56 7.56652C121.407 8.47328 122.058 9.53774 122.511 10.7599C122.965 11.9821 123.201 13.3028 123.201 14.7615Z" fill="#D51317" stroke="#D5151A" stroke-width="0.584531" stroke-miterlimit="10"/>
<path d="M142.105 24.598C141.77 24.598 141.494 24.46 141.277 24.184L133.846 14.7221L135.541 12.9875L143.111 22.6859C143.288 22.9224 143.367 23.1787 143.367 23.4349C143.367 23.8095 143.229 24.0854 142.953 24.3023C142.697 24.4994 142.401 24.598 142.105 24.598ZM142.026 4.9646C142.322 4.9646 142.578 5.08287 142.775 5.31942C142.973 5.55597 143.071 5.81222 143.071 6.06848C143.071 6.32474 142.953 6.581 142.736 6.79783L130.396 18.4675L130.199 15.8654L141.139 5.37856C141.415 5.10259 141.711 4.9646 142.026 4.9646ZM129.47 24.5388C129.115 24.5388 128.839 24.4205 128.622 24.2037C128.425 23.9869 128.307 23.7109 128.307 23.3955V6.12762C128.307 5.79251 128.425 5.51654 128.642 5.29971C128.859 5.08287 129.154 4.98431 129.489 4.98431C129.844 4.98431 130.12 5.08287 130.337 5.29971C130.534 5.51654 130.652 5.79251 130.652 6.12762V23.3955C130.652 23.7109 130.554 23.9869 130.337 24.2037C130.101 24.4205 129.805 24.5388 129.47 24.5388Z" fill="#D51317" stroke="#D5151A" stroke-width="0.584531" stroke-miterlimit="10"/>
<path d="M160.852 4.88574C161.167 4.88574 161.443 5.00402 161.64 5.24056C161.857 5.47711 161.955 5.73337 161.955 6.02905C161.955 6.14732 161.936 6.2656 161.916 6.38387C161.896 6.50214 161.837 6.62042 161.758 6.73869L155.273 15.7669L155.628 14.4067V23.4349C155.628 23.7503 155.529 24.0263 155.312 24.2431C155.096 24.46 154.839 24.5782 154.544 24.5782C154.209 24.5782 153.933 24.46 153.716 24.2431C153.499 24.0263 153.4 23.7503 153.4 23.4349V14.6039L153.597 15.3332L147.309 6.83725C147.191 6.67955 147.112 6.54157 147.073 6.40358C147.033 6.2656 146.994 6.12761 146.994 5.98963C146.994 5.67423 147.132 5.41797 147.388 5.20114C147.644 4.9843 147.92 4.88574 148.177 4.88574C148.551 4.88574 148.847 5.06315 149.103 5.41797L154.879 13.3423L154.347 13.2634L159.905 5.43768C160.181 5.06315 160.477 4.88574 160.852 4.88574Z" fill="#D51317" stroke="#D5151A" stroke-width="0.584531" stroke-miterlimit="10"/>
<path d="M166.726 19.315L167.672 17.1269H175.971L176.385 19.315H166.726ZM171.89 7.9016L165.326 23.8685C165.247 24.0853 165.129 24.2627 164.932 24.4007C164.735 24.5387 164.557 24.5978 164.341 24.5978C163.986 24.5978 163.73 24.4993 163.552 24.3219C163.375 24.1445 163.296 23.9079 163.296 23.6517C163.276 23.5137 163.296 23.3757 163.355 23.2377L170.589 5.6347C170.688 5.37844 170.826 5.18132 171.023 5.06304C171.22 4.94477 171.437 4.88563 171.674 4.90535C171.91 4.90535 172.127 4.96448 172.324 5.10247C172.521 5.24045 172.659 5.41786 172.738 5.6347L179.953 23.0603C180.012 23.218 180.032 23.356 180.032 23.5137C180.032 23.8488 179.913 24.105 179.696 24.3022C179.48 24.4993 179.223 24.5978 178.947 24.5978C178.731 24.5978 178.514 24.5387 178.336 24.4007C178.159 24.2627 178.001 24.0853 177.922 23.8488L171.279 7.86218L171.89 7.9016Z" fill="#D51317" stroke="#D5151A" stroke-width="0.584531" stroke-miterlimit="10"/>
<path d="M198.975 4.98438C199.29 4.98438 199.547 5.08294 199.724 5.28006C199.901 5.47718 200 5.71373 200 6.02912V23.3759C200 23.7307 199.882 24.0067 199.665 24.2235C199.448 24.4403 199.172 24.5389 198.857 24.5389C198.679 24.5389 198.522 24.4995 198.344 24.4403C198.187 24.3812 198.049 24.2826 197.95 24.1841L186.004 8.37487L186.556 8.03977V23.5138C186.556 23.8095 186.458 24.0658 186.261 24.2629C186.064 24.46 185.807 24.5586 185.492 24.5586C185.196 24.5586 184.96 24.46 184.763 24.2629C184.585 24.0658 184.487 23.8292 184.487 23.5138V6.10797C184.487 5.77286 184.585 5.49689 184.802 5.29977C185.019 5.10265 185.275 4.98438 185.571 4.98438C185.728 4.98438 185.906 5.0238 186.083 5.08294C186.261 5.14207 186.399 5.24063 186.497 5.37862L198.285 20.971L197.93 21.4244V6.02912C197.93 5.73344 198.029 5.47718 198.226 5.28006C198.443 5.08294 198.679 4.98438 198.975 4.98438Z" fill="#D51317" stroke="#D5151A" stroke-width="0.584531" stroke-miterlimit="10"/>
<path d="M98.5018 30.5708C98.699 30.5708 98.8369 30.6299 98.9552 30.7482C99.0735 30.8665 99.1326 31.0242 99.1326 31.2016V40.8606C99.1326 41.038 99.0735 41.1957 98.9552 41.314C98.8369 41.4322 98.6792 41.5111 98.4821 41.5111C98.3047 41.5111 98.147 41.4519 98.0287 41.314C97.9105 41.1957 97.8316 41.038 97.8316 40.8606V31.2016C97.8316 31.0045 97.8907 30.8665 98.0287 30.7482C98.1667 30.6299 98.3244 30.5708 98.5018 30.5708ZM91.228 35.3412H98.5018L98.4821 36.5633H91.1689L91.228 35.3412ZM91.3069 30.5708C91.4843 30.5708 91.642 30.6299 91.7603 30.7482C91.8785 30.8665 91.9574 31.0242 91.9574 31.2016V40.8606C91.9574 41.038 91.8982 41.1957 91.7603 41.314C91.6223 41.4322 91.4843 41.5111 91.3069 41.5111C91.1098 41.5111 90.9521 41.4519 90.8338 41.314C90.7155 41.1957 90.6564 41.038 90.6564 40.8606V31.2016C90.6564 31.0045 90.7155 30.8665 90.8338 30.7482C90.9521 30.6299 91.1098 30.5708 91.3069 30.5708Z" fill="#D51317" stroke="#D5151A" stroke-width="0.584531" stroke-miterlimit="10"/>
<path d="M111.965 36.0508C111.965 35.2032 111.788 34.4344 111.453 33.7839C111.118 33.1334 110.645 32.6209 110.073 32.2464C109.482 31.8719 108.811 31.6747 108.043 31.6747C107.274 31.6747 106.584 31.8719 106.012 32.2464C105.421 32.6209 104.967 33.1334 104.632 33.7839C104.297 34.4344 104.14 35.2032 104.14 36.0508C104.14 36.8985 104.297 37.6475 104.632 38.3177C104.967 38.988 105.421 39.5005 106.012 39.875C106.604 40.2495 107.274 40.4467 108.043 40.4467C108.811 40.4467 109.482 40.2495 110.073 39.875C110.664 39.5005 111.118 38.988 111.453 38.3177C111.808 37.6475 111.965 36.8788 111.965 36.0508ZM113.306 36.0508C113.306 36.859 113.168 37.5884 112.911 38.2783C112.655 38.9682 112.281 39.5596 111.827 40.0721C111.354 40.5846 110.802 40.9789 110.152 41.2549C109.501 41.5308 108.811 41.6688 108.043 41.6688C107.274 41.6688 106.564 41.5308 105.933 41.2549C105.303 40.9789 104.731 40.5846 104.278 40.0721C103.804 39.5596 103.45 38.9682 103.193 38.2783C102.937 37.5884 102.799 36.859 102.799 36.0508C102.799 35.2426 102.937 34.4936 103.193 33.8036C103.45 33.1137 103.824 32.5224 104.278 32.0295C104.751 31.517 105.303 31.1228 105.933 30.8468C106.564 30.5708 107.274 30.4329 108.043 30.4329C108.811 30.4329 109.501 30.5708 110.152 30.8468C110.802 31.1228 111.354 31.517 111.827 32.0295C112.3 32.5421 112.655 33.1334 112.911 33.8036C113.187 34.4739 113.306 35.2229 113.306 36.0508Z" fill="#D51317" stroke="#D5151A" stroke-width="0.584531" stroke-miterlimit="10"/>
<path d="M122.984 40.2694C123.162 40.2694 123.319 40.3285 123.438 40.4468C123.556 40.5651 123.615 40.7228 123.615 40.9002C123.615 41.0776 123.556 41.2156 123.438 41.3338C123.319 41.4521 123.162 41.5113 122.984 41.5113H117.583C117.406 41.5113 117.248 41.4521 117.13 41.3141C117.012 41.1959 116.952 41.0382 116.952 40.8608V31.1821C116.952 31.0047 117.012 30.847 117.15 30.7287C117.268 30.6104 117.426 30.5513 117.623 30.5513C117.8 30.5513 117.958 30.6104 118.076 30.7287C118.194 30.847 118.273 31.0047 118.273 31.1821V40.5454L117.958 40.2694H122.984Z" fill="#D51317" stroke="#D5151A" stroke-width="0.584531" stroke-miterlimit="10"/>
<path d="M128.287 40.8801C128.287 41.0575 128.228 41.2152 128.09 41.3335C127.952 41.4518 127.814 41.5306 127.637 41.5306C127.439 41.5306 127.282 41.4715 127.163 41.3335C127.045 41.2152 126.986 41.0575 126.986 40.8801V31.2211C126.986 31.024 127.045 30.886 127.183 30.7677C127.301 30.6495 127.459 30.5903 127.656 30.5903C127.834 30.5903 127.991 30.6495 128.11 30.7677C128.228 30.886 128.307 31.0437 128.307 31.2211V40.8801H128.287Z" fill="#D51317" stroke="#D5151A" stroke-width="0.584531" stroke-miterlimit="10"/>
<path d="M136.98 40.2889C137.788 40.2889 138.439 40.0918 138.932 39.7173C139.444 39.3427 139.799 38.8105 140.036 38.1797C140.272 37.5292 140.39 36.8196 140.39 36.0508C140.39 35.4791 140.331 34.9469 140.193 34.4344C140.055 33.9219 139.858 33.4685 139.582 33.0742C139.306 32.68 138.951 32.3646 138.518 32.1281C138.084 31.8915 137.571 31.793 136.96 31.793H133.767L133.885 31.6747V40.4663L133.787 40.3086H136.98V40.2889ZM137.118 30.5708C137.887 30.5708 138.557 30.7088 139.129 31.0045C139.7 31.3002 140.193 31.6944 140.568 32.2069C140.962 32.7194 141.238 33.3108 141.435 33.9613C141.632 34.6315 141.731 35.3214 141.731 36.0508C141.731 37.0561 141.553 37.9629 141.218 38.7908C140.883 39.6187 140.371 40.2889 139.681 40.7817C139.01 41.2745 138.143 41.5308 137.118 41.5308H133.215C133.038 41.5308 132.88 41.4716 132.762 41.3337C132.643 41.2154 132.584 41.0577 132.584 40.8803V31.2016C132.584 31.0242 132.643 30.8665 132.762 30.7482C132.88 30.6299 133.038 30.5708 133.215 30.5708H137.118Z" fill="#D51317" stroke="#D5151A" stroke-width="0.584531" stroke-miterlimit="10"/>
<path d="M146.186 38.5936L146.718 37.3714H151.35L151.587 38.5936H146.186ZM149.083 32.2069L145.417 41.1365C145.377 41.2548 145.299 41.3533 145.2 41.4322C145.101 41.511 144.983 41.5504 144.865 41.5504C144.668 41.5504 144.53 41.4913 144.431 41.3927C144.333 41.2942 144.293 41.1562 144.293 41.0182C144.274 40.9394 144.293 40.8605 144.333 40.7817L148.374 30.9453C148.433 30.8073 148.512 30.689 148.61 30.6299C148.729 30.5707 148.847 30.5313 148.985 30.551C149.123 30.551 149.241 30.5905 149.359 30.6693C149.478 30.7481 149.537 30.8467 149.576 30.965L153.617 40.7225C153.657 40.8014 153.657 40.8802 153.657 40.9788C153.657 41.1759 153.597 41.3139 153.479 41.4322C153.361 41.5504 153.223 41.5899 153.065 41.5899C152.947 41.5899 152.829 41.5504 152.73 41.4716C152.632 41.3927 152.553 41.2942 152.494 41.1562L148.768 32.2266L149.083 32.2069Z" fill="#D51317" stroke="#D5151A" stroke-width="0.584531" stroke-miterlimit="10"/>
<path d="M162.902 30.5117C163.079 30.5117 163.237 30.5709 163.355 30.7088C163.473 30.8468 163.532 30.9848 163.532 31.1622C163.532 31.2214 163.532 31.3002 163.513 31.3593C163.493 31.4185 163.473 31.4973 163.434 31.5565L159.807 36.6028L160.004 35.834V40.8803C160.004 41.0577 159.945 41.2154 159.827 41.3337C159.708 41.452 159.57 41.5308 159.393 41.5308C159.196 41.5308 159.058 41.4717 158.939 41.3337C158.821 41.2154 158.762 41.0577 158.762 40.8803V35.9523L158.88 36.3662L155.372 31.6156C155.312 31.5368 155.273 31.4579 155.234 31.3791C155.214 31.3002 155.194 31.2214 155.194 31.1425C155.194 30.9651 155.273 30.8074 155.411 30.6891C155.549 30.5709 155.707 30.5117 155.845 30.5117C156.061 30.5117 156.219 30.6103 156.357 30.8074L159.59 35.2426L159.294 35.2032L162.409 30.8271C162.527 30.6103 162.705 30.5117 162.902 30.5117Z" fill="#D51317" stroke="#D5151A" stroke-width="0.584531" stroke-miterlimit="10"/>
<path d="M169.545 41.6687C168.776 41.6687 168.106 41.5504 167.514 41.3336C166.923 41.097 166.371 40.7422 165.819 40.2494C165.74 40.1706 165.681 40.0917 165.642 40.0129C165.602 39.934 165.563 39.8355 165.563 39.7172C165.563 39.5595 165.622 39.4018 165.74 39.2638C165.858 39.1258 166.016 39.0667 166.194 39.0667C166.332 39.0667 166.47 39.1258 166.588 39.2441C167.002 39.6383 167.435 39.934 167.909 40.1509C168.382 40.3677 168.914 40.4663 169.505 40.4663C169.959 40.4663 170.373 40.3874 170.747 40.2494C171.122 40.1114 171.417 39.8946 171.634 39.6383C171.851 39.3821 171.969 39.0667 171.969 38.7316C171.95 38.3176 171.831 37.9628 171.595 37.7065C171.358 37.4306 171.043 37.2137 170.629 37.0363C170.215 36.8589 169.742 36.7012 169.19 36.583C168.717 36.4647 168.263 36.3267 167.869 36.169C167.475 36.0113 167.12 35.7945 166.824 35.5579C166.529 35.3214 166.312 35.0257 166.154 34.6709C165.996 34.316 165.918 33.9218 165.918 33.4487C165.918 32.8573 166.075 32.3251 166.391 31.8914C166.706 31.4381 167.14 31.103 167.692 30.8467C168.244 30.6102 168.874 30.4722 169.604 30.4722C170.235 30.4722 170.846 30.5707 171.417 30.7876C171.989 31.0044 172.442 31.2804 172.777 31.6549C172.994 31.852 173.093 32.0491 173.093 32.2266C173.093 32.3843 173.034 32.5222 172.896 32.6602C172.758 32.7982 172.62 32.8573 172.442 32.8573C172.324 32.8573 172.226 32.8179 172.127 32.7391C171.95 32.5419 171.733 32.3645 171.457 32.2068C171.181 32.0491 170.885 31.9309 170.57 31.8323C170.254 31.7337 169.919 31.6943 169.604 31.6943C169.131 31.6943 168.697 31.7732 168.342 31.9112C167.987 32.0491 167.692 32.2463 167.495 32.5025C167.297 32.7588 167.199 33.0545 167.199 33.4093C167.199 33.8035 167.317 34.1386 167.534 34.3949C167.771 34.6512 168.066 34.868 168.46 35.0257C168.855 35.1834 169.269 35.3214 169.742 35.4594C170.254 35.5776 170.727 35.7353 171.161 35.893C171.595 36.0507 171.969 36.2478 172.285 36.4844C172.6 36.7209 172.837 37.0363 173.014 37.3912C173.191 37.7657 173.27 38.2191 173.27 38.7513C173.27 39.3229 173.113 39.8355 172.777 40.2888C172.462 40.7422 172.009 41.097 171.457 41.3533C170.885 41.5307 170.254 41.649 169.545 41.6687Z" fill="#D51317" stroke="#D5151A" stroke-width="0.584531" stroke-miterlimit="10"/>
<path d="M77.1535 55.7039L74.5515 51.7615H73.5856V59.2718H74.5515V53.4567L76.9564 57.1232H77.3704L79.7556 53.4567V59.2718H80.7215V51.7615H79.7358L77.1535 55.7039Z" fill="#333333" stroke="#333333" stroke-width="0.584531" stroke-miterlimit="10"/>
<path d="M84.8413 55.9407H89.0006V55.0339H84.8413V52.6882H89.1977V51.7617H83.8951V59.2721H89.316V58.3259H84.8413V55.9407Z" fill="#333333" stroke="#333333" stroke-width="0.584531" stroke-miterlimit="10"/>
<path d="M93.1007 55.9407H97.26V55.0339H93.1007V52.6882H97.4571V51.7617H92.1348V59.2721H97.5754V58.3259H93.1007V55.9407Z" fill="#333333" stroke="#333333" stroke-width="0.584531" stroke-miterlimit="10"/>
<path d="M100.256 52.6685H102.819V59.2721H103.785V52.6685H106.347V51.7617H100.256V52.6685Z" fill="#333333" stroke="#333333" stroke-width="0.584531" stroke-miterlimit="10"/>
<path d="M113.266 52.6685H115.829V59.2721H116.795V52.6685H119.357V51.7617H113.266V52.6685Z" fill="#333333" stroke="#333333" stroke-width="0.584531" stroke-miterlimit="10"/>
<path d="M127.065 55.1325H122.984V51.7617H121.999V59.2721H122.984V56.0393H127.065V59.2721H128.031V51.7617H127.065V55.1325Z" fill="#333333" stroke="#333333" stroke-width="0.584531" stroke-miterlimit="10"/>
<path d="M132.17 55.9407H136.31V55.0339H132.17V52.6882H136.527V51.7617H131.204V59.2721H136.645V58.3259H132.17V55.9407Z" fill="#333333" stroke="#333333" stroke-width="0.584531" stroke-miterlimit="10"/>
<path d="M151.331 57.7937L149.32 51.7617H148.709L146.678 57.7937L144.648 51.7617H143.623L146.245 59.2918H147.132L148.315 55.8027L149.004 53.6344L149.694 55.8224L150.877 59.2918H151.764L154.406 51.7617H153.381L151.331 57.7937Z" fill="#333333" stroke="#333333" stroke-width="0.584531" stroke-miterlimit="10"/>
<path d="M160.378 58.4637C158.447 58.4637 157.56 56.9262 157.56 55.5069C157.56 54.6396 157.836 53.8511 158.368 53.3386C158.861 52.8458 159.57 52.5698 160.398 52.5698C162.35 52.5698 163.237 54.0482 163.237 55.5069C163.217 56.9262 162.33 58.4637 160.378 58.4637ZM160.378 51.6433C157.757 51.6433 156.594 53.5751 156.594 55.5069C156.594 57.3796 157.776 59.3902 160.378 59.3902C162.961 59.3902 164.163 57.3796 164.163 55.5266C164.163 54.403 163.789 53.3977 163.079 52.6881C162.409 51.9981 161.463 51.6433 160.378 51.6433Z" fill="#333333" stroke="#333333" stroke-width="0.584531" stroke-miterlimit="10"/>
<path d="M168.046 52.6879H170.412C170.865 52.6879 171.26 52.8259 171.516 53.1018C171.772 53.3778 171.93 53.7523 171.93 54.1663C171.93 54.8365 171.634 55.6447 170.353 55.6447H168.046V52.6879ZM172.304 55.8615C172.718 55.4279 172.955 54.8365 172.955 54.1663C172.935 52.9639 172.068 51.7417 170.412 51.7417H167.081V59.252H168.046V56.5909H169.683L172.127 59.2718H173.428L170.905 56.5318C171.457 56.4529 171.95 56.2164 172.304 55.8615Z" fill="#333333" stroke="#333333" stroke-width="0.584531" stroke-miterlimit="10"/>
<path d="M176.641 51.7617H175.675V59.2721H180.623V58.3259H176.641V51.7617Z" fill="#333333" stroke="#333333" stroke-width="0.584531" stroke-miterlimit="10"/>
<path d="M185.827 58.3259H184.191V52.7079H185.827C187.759 52.7079 188.646 54.0878 188.665 55.4479C188.685 56.2561 188.39 57.0249 187.877 57.5374C187.384 58.0499 186.675 58.3259 185.827 58.3259ZM185.827 51.7617H183.225V59.2721H185.827C186.951 59.2721 187.916 58.8975 188.606 58.2076C189.296 57.5177 189.671 56.4926 189.651 55.4282C189.592 53.595 188.409 51.7617 185.827 51.7617Z" fill="#333333" stroke="#333333" stroke-width="0.584531" stroke-miterlimit="10"/>
</g>
<defs>
<clipPath id="clip0_81_2348">
<rect width="200" height="62.3893" fill="white" transform="translate(0 0.80542)"/>
</clipPath>
</defs>
</svg>
