<svg width="201" height="48" viewBox="0 0 201 48" fill="none" xmlns="http://www.w3.org/2000/svg">
<path d="M116.702 42.1391C116.702 42.517 116.824 42.7417 117.039 42.7417C117.223 42.7213 117.376 42.6396 117.519 42.5375L179.852 2.08194C180.904 1.34658 182.17 0.96868 183.447 0.99932H197.143C199.247 0.99932 200.667 2.39856 200.667 4.50253V30.6592C200.667 33.8152 199.962 35.6536 197.163 37.3388L180.546 47.3378C180.383 47.4501 180.189 47.5216 179.984 47.5421C179.78 47.5421 179.586 47.3787 179.586 46.8067V16.2889C179.586 15.9314 179.484 15.6863 179.249 15.6863C179.075 15.7067 178.912 15.7782 178.769 15.8906L133.217 45.4892C132.175 46.1939 130.96 46.5718 129.714 46.5514H99.5228C97.3984 46.5514 95.9992 45.1521 95.9992 43.0277V5.32982C95.9992 5.05405 95.8766 4.78851 95.6416 4.78851C95.468 4.80893 95.3046 4.88044 95.1616 4.99279L65.1136 23.0195C64.8174 23.2238 64.7357 23.3566 64.7357 23.4996C64.7357 23.6221 64.797 23.7345 64.991 23.9592L86.47 45.4177C86.7457 45.6934 86.95 45.9181 86.95 46.153C86.95 46.3573 86.6334 46.5105 86.2453 46.5105H66.8499C65.3281 46.5105 64.1535 46.2858 63.3262 45.4687L50.3041 32.467C50.2019 32.3444 50.059 32.273 49.9058 32.2627C49.7628 32.273 49.63 32.3138 49.5075 32.3853L27.7528 45.4585C26.4353 46.2552 25.5365 46.4799 24.2291 46.4799H4.21073C2.07611 46.5003 0.666687 45.0806 0.666687 42.9767V17.3204C0.666687 14.1441 1.37143 12.3261 4.19034 10.6408L20.9098 0.601011C21.0425 0.519304 21.1957 0.468221 21.3489 0.458008C21.6043 0.458008 21.7473 0.713352 21.7473 1.29552V35.6536C21.7473 36.0111 21.8289 36.1745 22.0843 36.1745C22.2681 36.1541 22.4214 36.0723 22.5848 35.9702L79.055 2.00025C80.1376 1.26488 81.4552 0.897177 82.7727 0.958457H113.168C115.272 0.958457 116.692 2.35773 116.692 4.4617L116.671 42.1187H116.702V42.1391Z" fill="#131E29"/>
</svg>
